<?xml version="1.0" encoding="utf-8"?>
<!-- Generator: Adobe Illustrator 28.1.0, SVG Export Plug-In . SVG Version: 6.00 Build 0)  -->
<svg version="1.1" id="Layer_1" xmlns="http://www.w3.org/2000/svg" xmlns:xlink="http://www.w3.org/1999/xlink" x="0px" y="0px"
	 viewBox="0 0 145.6 32.1" style="enable-background:new 0 0 145.6 32.1;" xml:space="preserve">
<style type="text/css">
	.st0{fill:#5D6F77;}
</style>
<g>
	<path class="st0" d="M30.5,5.5l-4,2.9c-1.7-1.8-3.5-2.8-6.1-2.8c-5.9,0-9.8,4.5-9.8,10.3c0,5.9,3.8,10.7,9.8,10.7
		c2.7,0,4.8-1.4,6.5-3.5l4.2,3c-2.5,3.5-6.5,5.1-10.7,5.1c-8.8,0-15.2-6.1-15.2-15S11.2,1,20.4,1C24.6,1,27.8,2.5,30.5,5.5z"/>
	<path class="st0" d="M36.3,1.7h19v4.6H41.4v7.1h13.2v4.6H41.4v7.8h14.7v4.6H36.3C36.3,30.5,36.3,1.7,36.3,1.7z"/>
	<path class="st0" d="M80.6,3.9l-3.7,3.9c-1.1-1.6-3-2.3-5.1-2.3c-2.9,0-4.7,1.5-4.7,3.7c0,2,1.6,3,4.5,3.9c4.6,1.4,9.2,2.9,9.2,8.8
		c0,5.9-4.7,9.2-10.3,9.2c-4.1,0-7.4-1.2-9.6-3.9l3.9-3.7c1.3,1.9,3.4,3,5.7,3c2.8,0,5.1-1.6,5.1-3.9c0-2.2-1.5-3.3-5.2-4.4
		c-5.2-1.6-8.5-3.3-8.5-8.5c0-5.2,4.3-8.7,10.6-8.7C75.6,1,78.6,2,80.6,3.9z"/>
	<path class="st0" d="M105.5,3.9l-3.7,3.9c-1.1-1.6-3-2.3-5.1-2.3c-2.9,0-4.7,1.5-4.7,3.7c0,2,1.6,3,4.5,3.9
		c4.6,1.4,9.2,2.9,9.2,8.8c0,5.9-4.7,9.2-10.3,9.2c-4.1,0-7.4-1.2-9.6-3.9l3.9-3.7c1.3,1.9,3.4,3,5.7,3c2.8,0,5.1-1.6,5.1-3.9
		c0-2.2-1.5-3.3-5.2-4.4c-5.2-1.6-8.5-3.3-8.5-8.5C86.7,4.5,91,1,97.3,1C100.6,1,103.5,2,105.5,3.9z"/>
	<path class="st0" d="M124.1,1.7c7.4,0,14.5,4.7,14.5,14.4c0,10.2-8.9,14.4-15.1,14.4h-10.8V1.7L124.1,1.7L124.1,1.7L124.1,1.7z
		 M121.8,25.9c6.1,0,11.4-2.8,11.4-9.7s-4.5-9.7-10.8-9.7h-4.7v19.5L121.8,25.9L121.8,25.9z"/>
</g>
</svg>
