<svg width="201" height="48" viewBox="0 0 201 48" fill="none" xmlns="http://www.w3.org/2000/svg">
<g clip-path="url(#clip0_1_348)">
<path d="M199.641 9.75415H195.149C194.079 9.75415 193.117 10.4074 192.728 11.4004L192.053 13.1275L191.929 13.4329L191.192 15.2915L190.686 16.5697L189.618 19.1928L188.285 22.4974L183.767 16.2117L183.57 15.9488C183.079 15.2996 182.31 14.9174 181.492 14.9174H177.237C176.12 14.9174 175.475 16.1773 176.132 17.0753L180.988 23.7027L182.186 25.3712L185.407 29.8954L178.349 46.3214C178.012 47.1082 178.591 47.9839 179.454 47.9839H181.395L181.391 47.998H184.31C185.002 47.998 185.624 47.5875 185.893 46.9545L192.311 31.8369C192.336 31.7823 192.358 31.7277 192.38 31.6731L192.683 30.9612L192.968 30.3059L194.248 27.3532L195.015 25.5209L200.089 13.5219L200.89 11.6269C201.267 10.737 200.609 9.75617 199.639 9.75617L199.641 9.75415Z" fill="#4B5FC3"/>
<path d="M54.1834 10.7957H57.3489C58.6489 10.7957 59.6539 11.9262 59.4972 13.2084L56.6552 36.2862C56.523 37.3641 55.6014 38.1751 54.5069 38.1751H51.3557C50.0557 38.1751 49.0507 37.0446 49.2074 35.7624L49.3925 34.2698C49.4047 34.1667 49.2725 34.1101 49.2074 34.191C47.9115 35.7765 46.5138 36.6118 46.048 36.901C44.4449 37.8192 42.9049 38.1873 41.0556 38.1873C37.8495 38.1873 34.8304 37.3298 32.3038 34.8179C29.714 32.2454 28.7294 28.9974 28.7294 25.442C28.7294 20.663 30.3325 16.7416 32.8591 14.1064C35.0156 11.8999 38.4679 9.94019 43.3992 9.94019C45.3095 9.94019 46.9736 10.3083 48.7008 11.2264C50.0781 11.9687 50.9732 12.8686 51.6873 13.9769C51.7402 14.0598 51.8683 14.0336 51.8805 13.9345L52.0392 12.6806C52.1755 11.6046 53.095 10.7957 54.1855 10.7957H54.1834ZM39.2064 18.4546C37.4812 20.0482 36.5556 22.376 36.5556 24.5825C36.5556 26.9103 37.4182 28.7486 38.59 29.8529C39.6987 30.8944 41.3018 31.5679 43.5213 31.5679C45.0003 31.5679 47.0346 31.2625 48.8229 29.6688C50.6111 28.0752 51.4736 25.5633 51.4736 23.2962C51.4736 21.3972 50.7331 19.7428 49.6244 18.5779C48.7618 17.6597 47.1587 16.5555 44.4469 16.5555C42.5367 16.5555 40.7484 17.1076 39.2084 18.4546H39.2064Z" fill="#4B5FC3"/>
<path d="M171.203 10.6724H168.037C166.947 10.6724 166.025 11.4793 165.891 12.5573L165.732 13.8112C165.72 13.9082 165.592 13.9366 165.539 13.8536C164.825 12.7433 163.928 11.8434 162.552 11.1032C160.827 10.185 159.163 9.81689 157.251 9.81689C152.32 9.81689 148.867 11.7766 146.711 13.9831C144.184 16.6183 142.581 20.5397 142.581 25.3187C142.581 28.8721 143.568 32.1201 146.155 34.6946C148.682 37.2065 151.703 38.064 154.907 38.064C156.757 38.064 158.297 37.6959 159.9 36.7777C160.365 36.4885 161.763 35.6532 163.059 34.0677C163.126 33.9868 163.258 34.0434 163.244 34.1465L163.059 35.6391C162.9 36.9213 163.907 38.0518 165.207 38.0518H168.359C169.451 38.0518 170.373 37.2408 170.507 36.1629L173.349 13.0851C173.508 11.8029 172.5 10.6724 171.201 10.6724H171.203ZM162.677 29.5456C160.888 31.1392 158.856 31.4446 157.375 31.4446C155.155 31.4446 153.554 30.7711 152.444 29.7296C151.272 28.6274 150.409 26.789 150.409 24.4592C150.409 22.2527 151.333 19.9249 153.06 18.3313C154.6 16.9823 156.388 16.4322 158.299 16.4322C161.01 16.4322 162.613 17.5344 163.476 18.4546C164.585 19.6195 165.325 21.2739 165.325 23.1729C165.325 25.4401 164.463 27.9519 162.674 29.5456H162.677Z" fill="#4B5FC3"/>
<path d="M103.708 9.8147H100.64C99.5479 9.8147 98.6263 10.6237 98.4941 11.7016L98.3781 12.6441C98.3273 12.8342 98.2846 13.0283 98.2622 13.2306L95.8047 33.8248C95.7945 33.9118 95.7925 33.9987 95.7884 34.0857L95.589 35.7785C95.4385 37.0546 96.4414 38.177 97.7353 38.1791L100.893 38.1831C101.991 38.1831 102.917 37.3681 103.045 36.2841L104.115 27.2277L105.014 19.6942L105.673 14.175C105.694 14.0031 105.7 13.8353 105.698 13.6674L105.863 12.2092C106.007 10.9331 105.004 9.81672 103.712 9.81672L103.708 9.8147Z" fill="#4B5FC3"/>
<path d="M104.424 0H102.223C100.913 0 99.8063 0.869638 99.6456 2.02848L99.5764 2.53409C99.5723 2.55027 99.5683 2.56847 99.5622 2.58465L99.2875 4.41493C99.1756 5.74568 100.354 6.89441 101.869 6.89644L104.156 6.90048C105.474 6.90048 106.585 6.02477 106.737 4.85986L106.772 4.5565L107.004 2.57049C107.177 1.20131 105.972 0.00202242 104.424 0.00202242V0Z" fill="#4B5FC3"/>
<path d="M92.4927 0.0221805H89.2642C88.1717 0.0221805 87.2501 0.833169 87.1159 1.91314L85.6349 13.9647C85.6226 14.0598 85.5026 14.0881 85.4457 14.0112C84.1864 12.3225 82.7379 11.5176 82.0279 11.1637C80.61 10.4902 78.3905 9.93808 76.4802 9.93808C72.7817 9.93808 68.9611 11.5924 66.6806 13.9202C64.276 16.3107 62.4898 20.2928 62.4898 25.1325C62.4898 29.9721 64.339 33.1595 66.1883 34.9978C68.4688 37.265 71.1806 38.1831 74.4478 38.1831C76.3581 38.1831 78.3925 37.7544 79.8715 36.9576C81.3118 36.1466 82.4897 34.8138 82.9698 34.2071C82.9983 34.1727 83.037 34.1626 83.0715 34.1707L82.8701 35.7542C82.7054 37.0384 83.7124 38.173 85.0123 38.175L87.9764 38.1791C89.2927 38.1811 90.4014 37.2043 90.558 35.9039L92.448 20.1776L94.46 4.16611C94.4803 4.00634 94.4864 3.84657 94.4864 3.68882L94.641 2.42683C94.7977 1.14462 93.7927 0.0161133 92.4927 0.0161133V0.0221805ZM82.8295 29.422C81.5356 30.7083 79.5623 31.5658 77.2817 31.5658C75.0012 31.5658 73.3981 30.769 72.4114 29.8508C71.1786 28.7486 70.316 26.8475 70.316 24.459C70.316 22.2526 71.1176 20.1088 72.7207 18.5758C74.1386 17.1662 75.9268 16.5534 78.0833 16.5534C79.9325 16.5534 81.7818 17.0428 83.3218 18.4524C84.5546 19.6174 85.2951 21.209 85.2951 23.2941C85.2951 25.6219 84.1864 28.0731 82.8295 29.422Z" fill="#4B5FC3"/>
<path d="M135.162 13C132.881 10.7329 130.169 9.8147 126.902 9.8147C124.992 9.8147 122.957 10.2434 121.478 11.0403C120.038 11.8513 118.86 13.184 118.38 13.7908C118.352 13.8251 118.313 13.8353 118.278 13.8272L118.48 12.2436C118.645 10.9594 117.638 9.82481 116.338 9.82279L112.989 9.81672C111.893 9.81672 110.967 10.6297 110.837 11.7117L108.902 27.8162L106.89 43.8277C106.87 43.9874 106.864 44.1472 106.864 44.305L106.709 45.567C106.552 46.8492 107.557 47.9777 108.857 47.9777H112.086C113.178 47.9777 114.1 47.1667 114.234 46.0867L115.715 34.0351C115.727 33.9401 115.847 33.9118 115.904 33.9886C117.164 35.6773 118.612 36.4823 119.322 36.8362C120.74 37.5096 122.959 38.0618 124.87 38.0618C128.568 38.0618 132.389 36.4074 134.669 34.0796C137.074 31.6891 138.86 27.707 138.86 22.8674C138.86 18.0277 137.011 14.8404 135.162 13.002V13ZM128.627 29.422C127.209 30.8316 125.421 31.4444 123.265 31.4444C121.415 31.4444 119.566 30.955 118.026 29.5454C116.793 28.3805 116.053 26.7888 116.053 24.7037C116.053 22.3759 117.162 19.9248 118.518 18.5758C119.812 17.2895 121.786 16.432 124.066 16.432C126.347 16.432 127.95 17.2289 128.936 18.147C130.169 19.2493 131.032 21.1503 131.032 23.5388C131.032 25.7453 130.23 27.889 128.627 29.422Z" fill="#4B5FC3"/>
<path d="M28.0784 36.7371L21.5603 27.7778L19.0417 24.2932L18.9319 24.1415C18.9319 24.1415 18.9461 24.1273 18.9522 24.1213C18.9522 24.1213 18.9685 24.1051 18.9766 24.097L15.2476 18.8953C14.6353 18.0419 13.7584 17.4149 12.7494 17.1096L2.77691 14.0901L1.21247 26.8434L0.0121956 36.5409C-0.0976605 37.4247 0.59606 38.2054 1.49322 38.2054H5.88136C6.71952 38.2054 7.42341 37.5825 7.52513 36.7593L7.75298 34.8967C7.75298 34.8967 7.75298 34.8866 7.75501 34.8825L8.04186 32.5628L8.10289 32.0532L8.15782 31.5921V31.586L8.95123 25.09L8.96343 25.1062L9.17907 23.3588C9.29097 23.5125 9.40896 23.6602 9.53102 23.8037L18.6837 36.5227C18.7772 36.6481 18.8749 36.7674 18.9786 36.8807C19.6764 37.6998 20.7018 38.1791 21.7922 38.1791H27.3379C28.0825 38.1791 28.5158 37.3357 28.0784 36.7351V36.7371Z" fill="#4B5FC3"/>
<path d="M27.6328 3.87564e-05H23.3037C23.3037 3.87564e-05 21.4484 -0.0646784 20.7974 1.76358L20.7912 1.77976L17.6583 9.41236L14.3403 17.4919L14.3057 17.5768L12.6822 15.3138L11.3538 13.4188C11.3212 13.3743 11.2887 13.3298 11.2561 13.2873C11.2521 13.2833 11.246 13.2772 11.2439 13.2731C11.1972 13.2165 11.1483 13.1639 11.0995 13.1114L10.9957 12.9678C10.6926 12.5451 10.2044 12.2963 9.68358 12.2963H4.38201C3.07187 12.2963 2.30898 13.7666 3.06984 14.8284L6.96973 20.2768L8.02557 21.7632L8.03167 21.7592L8.27376 22.0969L9.01224 23.1344C9.28281 23.541 9.59203 23.909 9.93177 24.2387C10.2593 24.5522 10.6214 24.8313 11.0059 25.0638C11.067 25.1002 11.128 25.1366 11.187 25.171C11.6549 25.436 12.1614 25.6443 12.6904 25.7838C12.8165 25.8162 12.9467 25.8526 13.0749 25.8768H13.0912C13.1583 25.891 13.2275 25.9052 13.2987 25.9173C13.4451 25.9395 13.5957 25.9638 13.7503 25.978C13.8073 25.984 13.8642 25.9881 13.9212 25.9941C13.9964 26.0002 14.0738 26.0022 14.1531 26.0022C14.2182 26.0083 14.2813 26.0103 14.3484 26.0103C16.4662 26.0285 18.4151 24.9566 19.6947 23.2861C19.7842 23.1648 19.8717 23.0455 19.9592 22.9201C20.1199 22.6774 20.2766 22.4266 20.421 22.1738L24.5935 12.1446L24.7583 11.7563L25.0512 11.0667L27.8119 4.54643L27.8241 4.51609L28.9206 1.92942C29.3132 1.01529 28.6338 3.87564e-05 27.6328 3.87564e-05ZM14.2833 17.5971L14.3077 17.5789L14.2935 17.6112L14.2833 17.5971Z" fill="#D0BEF2"/>
</g>
<defs>
<clipPath id="clip0_1_348">
<rect width="201" height="48" fill="white"/>
</clipPath>
</defs>
</svg>
