<?xml version="1.0" encoding="utf-8"?>
<!-- Generator: Adobe Illustrator 28.1.0, SVG Export Plug-In . SVG Version: 6.00 Build 0)  -->
<svg version="1.1" id="Layer_1" xmlns="http://www.w3.org/2000/svg" xmlns:xlink="http://www.w3.org/1999/xlink" x="0px" y="0px"
	 viewBox="0 0 80 80" style="enable-background:new 0 0 80 80;" xml:space="preserve">
<style type="text/css">
	.st0{fill:#222F37;}
	.st1{fill:#F5F5F5;}
</style>
<path class="st0" d="M82.4,82.4h-85v-85h85V82.4z"/>
<g>
	<path class="st1" d="M24.8,57.9c2.3,2.3,5,4.1,8.2,5.4c3.1,1.3,6.4,2,10.1,2c2.4,0,4.8-0.3,7.1-1c2.3-0.7,4.5-1.7,6.7-2.9
		c0.9-0.6,3.2-2.1,5.5-3.8l-5.1-6.1c-0.8,0.6-1.7,1.1-2.4,1.5c-1.9,1.2-3.5,2.1-4.1,2.3c-2.3,1.1-4.7,1.6-7.1,1.6
		c-2.3,0-4.5-0.4-6.4-1.3c-2-0.9-3.8-2.1-5.3-3.6c-1.6-1.6-2.7-3.3-3.5-5.4c-0.8-2.1-1.2-4.3-1.2-6.8c0-2.3,0.4-4.6,1.2-6.7
		c0.8-2.1,2.1-3.9,3.5-5.4c0.7-0.7,1.6-1.4,2.4-2.1c0.2-0.1,0.4-0.2,0.6-0.4c1.6-0.9,3.3-1.6,5-2.1c-5.8,0.1-11.1,2.2-15.1,5.9
		c-5.5,5-7.8,12.8-5.4,19.8C20.3,51.9,21.9,55,24.8,57.9z"/>
	<g>
		<path class="st1" d="M62.4,22.6L60.4,25l-3.1,3.6c-3-2.8-7.3-5.7-11.2-6.7l0,0c-1.9-0.5-3.9-0.7-5.9-0.7
			c-10.6,0-19.5,6.8-22.7,16.3c0.2-2.6,0.9-5.1,1.9-7.5c1.3-3,3.1-5.7,5.5-8s5.2-4.1,8.3-5.4c3.1-1.3,6.5-1.9,10.2-1.9
			c2.4,0,4.7,0.3,7,1c2.3,0.7,4.5,1.6,6.5,2.6c1.9,1.1,3.6,2.3,5.1,3.8C62.2,22.3,62.4,22.4,62.4,22.6z"/>
	</g>
</g>
</svg>
