<?xml version="1.0" encoding="utf-8"?>
<!-- Generator: Adobe Illustrator 28.1.0, SVG Export Plug-In . SVG Version: 6.00 Build 0)  -->
<svg version="1.1" id="Layer_1" xmlns="http://www.w3.org/2000/svg" xmlns:xlink="http://www.w3.org/1999/xlink" x="0px" y="0px"
	 viewBox="0 0 80 80" style="enable-background:new 0 0 80 80;" xml:space="preserve">
<style type="text/css">
	.st0{fill:#1E2F38;}
	.st1{fill:#F4F4F4;}
</style>
<path class="st0" d="M82.4,82.4h-85v-85h85V82.4z"/>
<g>
	<path class="st1" d="M39.9,28.6l-4.3,3.2c-1.8-1.9-3.8-3.1-6.5-3.1c-6.4,0-10.6,4.9-10.6,11.1c0,6.4,4.1,11.5,10.6,11.5
		c2.9,0,5.2-1.5,7-3.8l4.5,3.3c-2.7,3.8-7,5.5-11.6,5.5c-9.5,0-16.4-6.5-16.4-16.2S19,23.7,29,23.7C33.5,23.7,36.9,25.3,39.9,28.6z"
		/>
	<path class="st1" d="M46.1,24.5h20.5v5h-15v7.6h14.3v5H51.6v8.4h15.8v5H46.1C46.1,55.5,46.1,24.5,46.1,24.5z"/>
</g>
</svg>
