<?xml version="1.0" encoding="utf-8"?>
<!-- Generator: Adobe Illustrator 28.1.0, SVG Export Plug-In . SVG Version: 6.00 Build 0)  -->
<svg version="1.1" id="Layer_1" xmlns="http://www.w3.org/2000/svg" xmlns:xlink="http://www.w3.org/1999/xlink" x="0px" y="0px"
	 viewBox="0 0 80 80" style="enable-background:new 0 0 80 80;" xml:space="preserve">
<style type="text/css">
	.st0{fill:#F7F7F7;}
	.st1{fill:#616C72;}
	.st2{fill:#D42027;}
</style>
<path class="st0" d="M82.4,82.4h-85v-85h85V82.4z"/>
<g>
	<g>
		<path class="st1" d="M43.1,31.8c-1.1-0.4-2.2-0.6-3.4-0.6c-0.1,0-0.3,0-0.4,0c-0.8,0-1.5,0.2-2.2,0.4L40,13.1l2.6,15.5L43.1,31.8z
			"/>
		<path class="st1" d="M48.8,43.7c0.3-0.9,0.5-1.9,0.5-3c0-0.1,0-0.3,0-0.4c0-1-0.2-1.9-0.5-2.8l1.8,0.3l17.2,2.7L48.8,43.7z"/>
		<g>
			<path class="st1" d="M42.9,49.8L40,68.1l-2.8-16.4L37,50c0.7,0.2,1.3,0.3,2.1,0.4c0.2,0,0.4,0,0.7,0
				C40.8,50.3,41.9,50.1,42.9,49.8z"/>
			<path class="st1" d="M30.3,42.3c0.1,0.4,0.2,0.9,0.3,1.3l-0.9-0.1l-17.4-2.7l18.4-3.1c-0.4,1-0.5,2.1-0.5,3.2
				C30.1,41.3,30.2,41.8,30.3,42.3z"/>
		</g>
		<path class="st2" d="M33.5,48.1L16.9,68l12.8-24.6l0.6-1.1c0.1,0.4,0.2,0.9,0.3,1.3C31.1,45.4,32.2,46.9,33.5,48.1z"/>
		<path d="M39,50.3l-1.8,1.4L16.9,68l16.7-19.9c1,0.8,2.2,1.5,3.4,1.8C37.6,50.1,38.3,50.3,39,50.3z"/>
		<path class="st2" d="M63.5,11.9l-13,25.9l-1.3,2.5c0-1-0.2-1.9-0.5-2.8c-0.6-1.7-1.7-3.2-3.1-4.3L63.5,11.9z"/>
		<path d="M63.5,11.9L45.6,33.3c-0.8-0.6-1.6-1.1-2.5-1.4c-1.1-0.4-2.2-0.6-3.4-0.6c-0.1,0-0.3,0-0.4,0l3.3-2.6L63.5,11.9z"/>
		<path class="st2" d="M19.8,38.8l-2.1,0.4c0.7-11.1,9.5-20,20.7-21.2l-0.5,3.1C28.3,22,20.5,29.2,19.8,38.8z"/>
		<path class="st2" d="M19.8,42.5c0.3,3.7,1.6,7.4,3.9,10.6l-0.8,1.8c-3-3.6-4.9-8.1-5.2-12.8L19.8,42.5z"/>
		<path class="st2" d="M38.5,62l0.3,1.8c-3.8-0.5-7.4-2-10.5-4.1l1.3-1.1C32.1,60.2,35.1,61.4,38.5,62z"/>
		<path class="st2" d="M46.2,63.6C44.9,63.9,43.4,64,42,64c-0.3,0-0.5,0-0.8,0l0.4-1.6c1.5,0.1,3,0.1,4.6,0h0L46.2,63.6z"/>
		<path class="st2" d="M51.6,20.4l-2.8,2.2c-2.1-0.8-4.3-1.3-6.7-1.5l-0.6-3.3C45.2,17.9,48.6,18.8,51.6,20.4z"/>
		<path class="st2" d="M61.3,29.5l-3.2,0.1c-0.5-0.7-1.1-1.3-1.7-2l1.3-2.8C59.1,26.2,60.3,27.8,61.3,29.5z"/>
		<path class="st2" d="M46,40.9c0,3.4-2.8,6.1-6.2,6.1c-1.3,0-2.4-0.4-3.4-1l0.6-0.4c0.8,0.4,1.8,0.7,2.7,0.7c3.2,0,5.8-2.5,5.8-5.6
			c0-3.1-2.6-5.6-5.8-5.6c-1.3,0-2.5,0.4-3.5,1.1l-0.4-0.1c1.1-0.8,2.4-1.4,3.9-1.4C43.2,34.8,46,37.5,46,40.9z"/>
	</g>
</g>
</svg>
