<?xml version="1.0" encoding="utf-8"?>
<!-- Generator: Adobe Illustrator 28.1.0, SVG Export Plug-In . SVG Version: 6.00 Build 0)  -->
<svg version="1.1" id="Layer_1" xmlns="http://www.w3.org/2000/svg" xmlns:xlink="http://www.w3.org/1999/xlink" x="0px" y="0px"
	 viewBox="0 0 145.6 57.3" style="enable-background:new 0 0 145.6 57.3;" xml:space="preserve">
<style type="text/css">
	.st0{fill:#616C72;}
	.st1{fill:#D42027;}
	.st2{fill:#231F20;}
</style>
<g>
	<g>
		<path class="st0" d="M29.2,18.7c-1-0.4-2.1-0.6-3.2-0.6c-0.1,0-0.2,0-0.4,0c-0.7,0-1.4,0.1-2.1,0.3l2.7-17.1l2.4,14.3L29.2,18.7z"
			/>
		<path class="st0" d="M34.5,29.7c0.3-0.9,0.4-1.8,0.4-2.8c0-0.1,0-0.3,0-0.4c0-0.9-0.2-1.8-0.5-2.6l1.7,0.3l16,2.5L34.5,29.7z"/>
		<g>
			<path class="st0" d="M29,35.3l-2.7,17l-2.6-15.2l-0.3-1.6c0.6,0.2,1.3,0.3,1.9,0.3c0.2,0,0.4,0,0.6,0
				C27.1,35.8,28.1,35.6,29,35.3z"/>
			<path class="st0" d="M17.3,28.4c0.1,0.4,0.2,0.8,0.3,1.2l-0.8-0.1L0.6,26.8L17.7,24c-0.3,0.9-0.5,1.9-0.5,3
				C17.2,27.4,17.2,27.9,17.3,28.4z"/>
		</g>
		<path class="st1" d="M20.3,33.7L4.9,52.2l11.9-22.8l0.5-1c0.1,0.4,0.2,0.8,0.3,1.2C18.1,31.2,19,32.6,20.3,33.7z"/>
		<path d="M25.4,35.8l-1.6,1.3L4.9,52.2l15.5-18.4c0.9,0.8,2,1.4,3.2,1.7C24.1,35.6,24.8,35.7,25.4,35.8z"/>
		<path class="st1" d="M48.1,0.2l-12,24l-1.2,2.4c0-0.9-0.2-1.8-0.5-2.6c-0.6-1.6-1.6-2.9-2.9-4L48.1,0.2z"/>
		<path d="M48.1,0.2L31.5,20c-0.7-0.5-1.5-1-2.3-1.3c-1-0.4-2.1-0.6-3.2-0.6c-0.1,0-0.2,0-0.4,0l3-2.4L48.1,0.2z"/>
		<path class="st1" d="M7.6,25.2l-1.9,0.3C6.3,15.2,14.5,7,24.8,5.8l-0.4,2.9C15.5,9.5,8.2,16.2,7.6,25.2z"/>
		<path class="st1" d="M7.6,28.5c0.3,3.4,1.5,6.8,3.6,9.8L10.5,40c-2.8-3.4-4.5-7.5-4.8-11.9L7.6,28.5z"/>
		<path class="st1" d="M24.9,46.6l0.2,1.7c-3.5-0.5-6.8-1.8-9.7-3.8l1.2-1C19,45,21.7,46.1,24.9,46.6z"/>
		<path class="st1" d="M32.1,48.1c-1.3,0.2-2.6,0.4-4,0.4c-0.2,0-0.5,0-0.7,0l0.4-1.5c1.3,0.1,2.8,0.1,4.2,0h0L32.1,48.1z"/>
		<path class="st1" d="M37.1,8l-2.6,2.1c-1.9-0.8-4-1.2-6.2-1.4l-0.5-3C31.1,5.8,34.3,6.6,37.1,8z"/>
		<path class="st1" d="M46.1,16.5l-2.9,0.1c-0.5-0.6-1-1.2-1.6-1.8l1.2-2.6C44,13.4,45.1,14.9,46.1,16.5z"/>
		<path class="st1" d="M31.9,27.1c0,3.1-2.6,5.7-5.7,5.7c-1.2,0-2.3-0.3-3.2-0.9l0.6-0.4c0.8,0.4,1.6,0.6,2.5,0.6
			c3,0,5.4-2.3,5.4-5.2c0-2.8-2.4-5.2-5.4-5.2c-1.2,0-2.3,0.4-3.2,1l-0.4-0.1c1-0.8,2.2-1.3,3.6-1.3C29.3,21.4,31.9,23.9,31.9,27.1z
			"/>
	</g>
	<rect x="35.9" y="47.4" class="st1" width="108.9" height="0.4"/>
	<g>
		<g>
			<path class="st0" d="M41.9,41.5h-3.8c-0.5,0-0.8-0.1-1.1-0.3c-0.2-0.2-0.4-0.5-0.4-0.9v-1.1h-0.8v1.1c0,0.4,0.1,0.7,0.2,1
				c0.2,0.3,0.4,0.5,0.7,0.6c0.3,0.1,0.7,0.2,1.1,0.2h4.8V38h-0.8V41.5z"/>
			<rect x="39.7" y="37" class="st0" width="0.8" height="0.9"/>
			<rect x="38" y="37" class="st0" width="0.8" height="0.9"/>
			<path class="st0" d="M47.4,38.8c0.2-0.6,0.4-1.3,0.4-2v-1.5H47v1.5c0,0.6-0.1,1.1-0.2,1.5c-0.7-0.5-1.6-0.9-2.6-1.2V38
				c0.9,0.2,1.6,0.6,2.3,1.1c-0.6,0.9-1.5,1.7-2.8,2.5l0.3,0.7h4.5c0.1-0.3,0.1-0.6,0.1-0.8c0-0.5-0.1-0.9-0.3-1.4
				C48,39.6,47.7,39.2,47.4,38.8z M47.7,41.5h-3.1c1-0.6,1.8-1.3,2.3-2.1c0.3,0.3,0.5,0.6,0.6,0.9c0.1,0.3,0.2,0.6,0.2,1
				C47.8,41.5,47.8,41.5,47.7,41.5z"/>
			<path class="st0" d="M51.6,37.9c-0.5,0-0.9,0.1-1.2,0.3c-0.3,0.2-0.6,0.5-0.8,0.8c-0.2,0.3-0.3,0.7-0.3,1.1
				c0,0.4,0.1,0.8,0.3,1.1c0.2,0.3,0.4,0.6,0.7,0.8c0.3,0.2,0.7,0.3,1.1,0.3h0.3l0.3-0.7h-0.6c-0.4,0-0.8-0.1-1-0.4
				c-0.2-0.3-0.4-0.6-0.4-1c0-0.4,0.1-0.8,0.4-1.1c0.3-0.3,0.6-0.4,1.1-0.4c0.2,0,0.5,0,0.8,0.1v3.6c0,0.4-0.1,0.7-0.4,0.9
				s-0.7,0.3-1.2,0.4l0.3,0.7c0.7-0.1,1.2-0.3,1.5-0.7c0.3-0.3,0.5-0.8,0.5-1.4v-4.1c-0.1,0-0.2,0-0.2,0
				C52.3,37.9,51.9,37.9,51.6,37.9z"/>
			<rect x="59.3" y="36.2" class="st0" width="0.8" height="0.9"/>
			<rect x="57.7" y="36.2" class="st0" width="0.8" height="0.9"/>
			<path class="st0" d="M71.1,35.5v6.1H70c-0.5,0-0.9-0.2-1.1-0.6c0-0.1,0.1-0.3,0.1-0.5v-5h-0.8v4.9c0,0.3-0.1,0.6-0.3,0.8
				c-0.2,0.2-0.5,0.3-0.8,0.3h-0.2c-0.5,0-0.8-0.2-1.1-0.5c0.1-0.3,0.2-0.6,0.2-1c0-0.4-0.1-0.7-0.3-1.1c-0.2-0.3-0.4-0.6-0.8-0.8
				c-0.3-0.2-0.8-0.3-1.2-0.3c-0.4,0-0.9,0.1-1.5,0.2v3.5h-0.7c-0.5,0-0.9-0.2-1.1-0.5c0.1-0.3,0.1-0.5,0.1-0.8v-2.1
				c-0.7-0.1-1.2-0.2-1.6-0.2c-0.5,0-0.9,0.1-1.2,0.3c-0.3,0.2-0.6,0.5-0.8,0.8c-0.2,0.3-0.3,0.7-0.3,1c0,0.3,0.1,0.6,0.2,0.9
				c0.1,0.3,0.3,0.5,0.6,0.6H56h-0.2c-0.2,0-0.4-0.1-0.6-0.2c-0.1-0.1-0.2-0.3-0.2-0.6v-5.3h-0.8v5.3c0,0.4,0.1,0.8,0.3,1
				c0.2,0.3,0.6,0.4,1,0.4H56h2.6c0.7,0,1.2-0.2,1.5-0.7c0.4,0.4,0.8,0.7,1.4,0.7h2.4c0.7,0,1.2-0.2,1.6-0.7
				c0.4,0.5,0.8,0.7,1.4,0.7h0.3c0.6,0,1-0.2,1.4-0.7c0.4,0.5,0.8,0.7,1.4,0.7h1.9v-6.8H71.1z M59.8,40.1c0,0.4-0.1,0.7-0.3,0.9
				c-0.2,0.2-0.4,0.4-0.7,0.5c-0.4,0-0.7-0.2-1-0.4c-0.2-0.3-0.4-0.6-0.4-1c0-0.4,0.1-0.8,0.4-1.1c0.3-0.3,0.6-0.4,1-0.4
				c0.3,0,0.5,0,0.9,0.1V40.1z M64.9,41.2c-0.2,0.3-0.6,0.4-1.1,0.4H63v-2.9c0.2-0.1,0.5-0.1,0.8-0.1c0.5,0,0.9,0.1,1.1,0.4
				c0.3,0.3,0.4,0.6,0.4,1.1C65.2,40.6,65.1,40.9,64.9,41.2z"/>
		</g>
		<g>
			<rect x="79.2" y="36.2" class="st2" width="0.8" height="0.9"/>
			<path class="st2" d="M78.9,37.9c-0.5,0-0.9,0.1-1.2,0.3c-0.3,0.2-0.6,0.5-0.8,0.8c-0.2,0.3-0.3,0.7-0.3,1.1
				c0,0.4,0.1,0.8,0.3,1.1c0.2,0.3,0.4,0.6,0.7,0.8c0.3,0.2,0.7,0.3,1.1,0.3h0.3l0.3-0.7h-0.6c-0.3,0-0.5-0.1-0.7-0.2
				c-0.2-0.1-0.4-0.3-0.5-0.5c-0.1-0.2-0.2-0.4-0.2-0.7c0-0.4,0.1-0.8,0.4-1.1c0.3-0.3,0.6-0.4,1-0.4c0.2,0,0.5,0,0.8,0.1v4.4h-2.9
				c-0.5,0-0.8-0.1-1.1-0.3c-0.2-0.2-0.4-0.5-0.4-0.9V40h-0.8v2c0,0.6,0.2,1,0.5,1.3c0.4,0.3,0.9,0.5,1.5,0.5h3.8v-5.7l-0.2,0
				C79.6,37.9,79.2,37.9,78.9,37.9z"/>
			<rect x="77.6" y="36.2" class="st2" width="0.8" height="0.9"/>
			<rect x="87.6" y="34.8" class="st2" width="0.8" height="0.9"/>
			<rect x="86.8" y="36.2" class="st2" width="0.8" height="0.9"/>
			<rect x="88.4" y="36.2" class="st2" width="0.8" height="0.9"/>
			<path class="st2" d="M93.7,41.5h-1.1c-0.6,0-1-0.2-1.2-0.6c0-0.2,0.1-0.3,0.1-0.5v-2.8h-0.8v2.8c0,0.3-0.1,0.6-0.3,0.8
				c-0.2,0.2-0.4,0.3-0.8,0.3c-0.2,0-0.4,0-0.6-0.2c-0.2-0.1-0.3-0.2-0.5-0.4c-0.1-0.2-0.2-0.3-0.2-0.5V38h-0.8v2.4
				c0,0.3-0.1,0.6-0.3,0.8c-0.2,0.2-0.5,0.3-0.8,0.3h-0.7V38H85v3.6h-1.1c0,0,0,0,0,0s0,0,0,0c-0.3,0-0.5-0.1-0.6-0.2
				c-0.2-0.1-0.3-0.3-0.4-0.5V38h-0.8v4.3c0,0.4-0.1,0.8-0.3,1c-0.2,0.2-0.5,0.3-0.9,0.4l0.3,0.7c1.1-0.2,1.7-0.9,1.7-2.1v-0.4
				c0.3,0.3,0.6,0.4,1,0.4c0,0,0,0,0,0s0,0,0,0h2.8c0.3,0,0.6-0.1,0.9-0.2c0.2-0.1,0.4-0.3,0.6-0.6c0.4,0.5,0.9,0.8,1.6,0.8
				c0.6,0,1.1-0.2,1.4-0.7c0.2,0.3,0.4,0.4,0.6,0.6c0.2,0.1,0.5,0.2,0.9,0.2h1.9v-6.8h-0.8V41.5z"/>
			<rect x="95.9" y="35.5" class="st2" width="0.8" height="6.8"/>
			<rect x="105.3" y="36.2" class="st2" width="0.8" height="0.9"/>
			<path class="st2" d="M109.5,41.5h-1.1c-0.5,0-0.9-0.2-1.1-0.5c0.1-0.2,0.1-0.5,0.1-0.8v-2.1c-0.7-0.1-1.2-0.2-1.6-0.2
				c-0.5,0-0.9,0.1-1.2,0.3c-0.3,0.2-0.6,0.5-0.8,0.8c-0.2,0.3-0.3,0.7-0.3,1c0,0.3,0.1,0.6,0.2,0.9c0.1,0.3,0.3,0.5,0.6,0.6h-2.6
				c-0.5,0-0.8-0.1-1.1-0.3c-0.2-0.2-0.4-0.5-0.4-0.9v-1.1h-0.8v1.1c0,0.4,0.1,0.7,0.2,1c0.2,0.3,0.4,0.5,0.7,0.6
				c0.3,0.1,0.7,0.2,1.1,0.2h3.9c0.7,0,1.2-0.2,1.5-0.7c0.4,0.4,0.8,0.7,1.4,0.7h1.9v-6.8h-0.8V41.5z M106.7,40.1
				c0,0.4-0.1,0.7-0.2,0.9c-0.2,0.2-0.4,0.4-0.7,0.5c-0.4,0-0.7-0.2-1-0.4c-0.2-0.3-0.4-0.6-0.4-1c0-0.4,0.1-0.8,0.4-1.1
				c0.3-0.3,0.6-0.4,1.1-0.4c0.3,0,0.5,0,0.8,0.1V40.1z"/>
			<path class="st2" d="M121,40.9l-0.5-1.2c-0.2-0.5-0.5-1-0.9-1.3c-0.4-0.3-0.8-0.5-1.4-0.5c-0.3,0-0.6,0-0.8,0.1
				c-0.2,0.1-0.5,0.2-0.7,0.3l0.3,0.6c0.3-0.2,0.7-0.3,1.1-0.3c0.4,0,0.8,0.1,1,0.3c0.3,0.2,0.5,0.5,0.7,0.9l0.5,1.2l0,0.1
				c-0.7,0.3-1.5,0.4-2.4,0.4h-1.8h-0.9v-3.5c-0.1,0-0.2,0-0.2,0c-0.5-0.1-0.9-0.1-1.3-0.1c-0.5,0-0.9,0.1-1.2,0.3
				c-0.3,0.2-0.6,0.5-0.8,0.8c-0.2,0.3-0.3,0.7-0.3,1.1c0,0.4,0.1,0.8,0.3,1.1c0.2,0.3,0.4,0.6,0.7,0.8c0.3,0.2,0.7,0.3,1.1,0.3h0.3
				l0.3-0.7h-0.6c-0.4,0-0.8-0.1-1-0.4c-0.2-0.3-0.4-0.6-0.4-1c0-0.4,0.1-0.8,0.4-1.1c0.3-0.3,0.6-0.4,1.1-0.4c0.2,0,0.5,0,0.8,0.1
				v3.6c0,0.4-0.1,0.7-0.4,0.9s-0.7,0.3-1.2,0.4l0.3,0.7c0.7-0.1,1.2-0.3,1.5-0.7c0.3-0.3,0.5-0.8,0.5-1.4h0.9h1.8
				c0.4,0,0.9-0.1,1.4-0.2c0.5-0.1,0.9-0.3,1.3-0.5c0.3,0.4,0.7,0.6,1.2,0.6l0.3-0.7C121.5,41.5,121.2,41.3,121,40.9z"/>
			<rect x="117.9" y="43.2" class="st2" width="0.8" height="0.9"/>
			<rect x="126.7" y="36.2" class="st2" width="0.8" height="0.9"/>
			<rect x="125.1" y="36.2" class="st2" width="0.8" height="0.9"/>
			<path class="st2" d="M131.9,38.3H130l2.7-2.9h-1l-2.6,2.9l0.3,0.7h2.3c0.6,0,1,0.1,1.2,0.4c0.3,0.2,0.4,0.6,0.4,1
				c0,0.4-0.1,0.8-0.3,1.2h-4.3h-0.2c-0.3,0-0.4-0.1-0.6-0.2c-0.1-0.1-0.2-0.3-0.2-0.6l0-2.7l-0.4-0.1c-0.4-0.1-0.8-0.1-1.1-0.1
				c-0.5,0-0.9,0.1-1.2,0.3c-0.3,0.2-0.6,0.5-0.8,0.8c-0.2,0.3-0.3,0.7-0.3,1.1c0,0.4,0.1,0.8,0.3,1.1c0.2,0.3,0.4,0.6,0.7,0.8
				c0.3,0.2,0.7,0.3,1.1,0.3h0.4l0.3-0.7h-0.6c-0.4,0-0.8-0.1-1-0.4c-0.2-0.3-0.4-0.6-0.4-1c0-0.4,0.1-0.8,0.4-1.1
				c0.3-0.3,0.6-0.4,1.1-0.4c0.2,0,0.5,0,0.8,0.1v2.1c0,0.4,0.1,0.8,0.3,1c0.2,0.3,0.6,0.4,1,0.4h0.3h4.9c0.4-0.8,0.5-1.4,0.5-1.9
				c0-0.6-0.2-1.1-0.6-1.5C133.2,38.5,132.6,38.3,131.9,38.3z"/>
			<rect x="141.7" y="36.2" class="st2" width="0.8" height="0.9"/>
			<path class="st2" d="M143.9,37.6v3.9h-0.9c-0.2,0-0.4,0-0.7-0.1c-0.2-0.1-0.4-0.2-0.5-0.4c-0.1-0.2-0.2-0.3-0.2-0.5V38h-0.8v2.4
				c0,0.3-0.1,0.6-0.3,0.8c-0.2,0.2-0.5,0.3-0.8,0.3H139V38h-0.8v3.6h-1.1c0,0,0,0,0,0s0,0,0,0c-0.3,0-0.5-0.1-0.6-0.2
				c-0.2-0.1-0.3-0.3-0.4-0.5V38h-0.8v4.3c0,0.4-0.1,0.8-0.3,1c-0.2,0.2-0.5,0.3-0.9,0.4l0.3,0.7c1.1-0.2,1.7-0.9,1.7-2.1v-0.4
				c0.3,0.3,0.6,0.4,1,0.4c0,0,0,0,0,0s0,0,0,0h2.8c0.3,0,0.6-0.1,0.9-0.2c0.2-0.1,0.4-0.3,0.6-0.6c0.2,0.3,0.4,0.5,0.7,0.6
				c0.3,0.1,0.6,0.2,1,0.2h1.6v-4.6H143.9z"/>
			<rect x="140.9" y="34.8" class="st2" width="0.8" height="0.9"/>
			<rect x="140.1" y="36.2" class="st2" width="0.8" height="0.9"/>
		</g>
	</g>
	<g>
		<path class="st0" d="M40.2,54.1c0.9,0.1,1,0.2,1,0.9v0.9c0,0.5-0.1,0.7-0.4,0.8c-0.2,0.1-0.6,0.2-1,0.2c-2.2,0-3-1.8-3-3.4
			c0-2,1-3.1,2.8-3.1c0.4,0,0.8,0.1,1,0.1c0.8,0.2,1,0.7,1.3,1.4l0.2,0c-0.1-0.4-0.1-1.2-0.2-1.5c-0.3,0-1-0.2-2-0.2
			c-2.1,0-4,1.1-4,3.5c0,2.1,1.5,3.5,3.8,3.5c0.8,0,1.7-0.2,2.4-0.4c-0.1-0.3-0.1-0.6-0.1-1v-0.8c0-0.6,0-0.7,0.7-0.8V54h-2.5V54.1z
			"/>
		<path class="st0" d="M46.3,52.2c-1.2,0-2.5,1-2.5,2.4c0,1.4,1,2.4,2.5,2.4c1.3,0,2.5-0.9,2.5-2.5C48.8,53.2,47.8,52.2,46.3,52.2z
			 M46.5,56.9c-1.1,0-1.8-1-1.8-2.4c0-1.4,0.7-2.1,1.6-2.1c1.1,0,1.8,1,1.8,2.3C48,56.3,47.3,56.9,46.5,56.9z"/>
		<path class="st0" d="M53.3,56.4c-0.2,0.2-0.4,0.3-1,0.3c-0.3,0-0.5,0-0.7-0.1c-0.2-0.1-0.2-0.2-0.2-0.6v-2.8
			c0-0.6,0.1-0.7,0.8-0.8v-0.1h-2.2v0.1c0.7,0.1,0.7,0.1,0.7,0.8V56c0,0.7-0.1,0.7-0.9,0.8V57h3.8c0.1-0.2,0.3-0.9,0.3-1.3l-0.2,0
			C53.5,56.1,53.4,56.3,53.3,56.4z"/>
		<path class="st0" d="M57.2,52.4h-2.6v0.1c0.7,0.1,0.7,0.2,0.7,0.8V56c0,0.6,0,0.7-0.7,0.8V57h2.3v-0.1C56.1,56.7,56,56.7,56,56
			v-1.3h1c0.6,0,0.7,0.1,0.8,0.6H58v-1.5h-0.1c-0.1,0.5-0.2,0.6-0.8,0.6h-1v-1.6c0-0.3,0-0.3,0.2-0.3h0.8c0.5,0,0.7,0.1,0.8,0.2
			c0.1,0.2,0.2,0.4,0.3,0.7l0.1,0c0-0.5-0.1-1-0.1-1.1C57.9,52.4,57.6,52.4,57.2,52.4z"/>
		<path class="st0" d="M66,56.2c-0.3,0.4-0.4,0.5-0.9,0.5H64c-0.6,0-0.9,0-0.9-0.7v-2.4h1.4c0.7,0,0.8,0.1,0.9,0.8h0.1v-1.9h-0.1
			c-0.1,0.7-0.2,0.8-1,0.8h-1.3v-2.4c0-0.3,0-0.3,0.3-0.3h1.2c0.6,0,0.8,0,1,0.3c0.1,0.2,0.3,0.5,0.3,0.8l0.2,0c0-0.3-0.1-1-0.1-1.4
			c-0.2,0-0.5,0-1.5,0h-3v0.1c0.8,0.2,0.9,0.2,0.9,1.1v4.3c0,0.8-0.1,0.9-1,1V57h4.9c0.1-0.3,0.3-1.1,0.3-1.5l-0.1,0
			C66.3,55.8,66.2,56,66,56.2z"/>
		<path class="st0" d="M71.6,56.2l-1.7-4l-0.1,0L68.2,56c-0.3,0.7-0.5,0.8-1,0.9V57H69v-0.1l-0.2,0c-0.4-0.1-0.6-0.1-0.4-0.6l0.4-1
			h1.6l0.5,1.2c0.1,0.3,0,0.4-0.3,0.5l-0.2,0V57h2v-0.1C71.9,56.8,71.8,56.7,71.6,56.2z M68.9,54.9l0.7-1.7l0.7,1.7H68.9z"/>
		<path class="st0" d="M74.7,54.3l-0.2-0.1c-0.5-0.2-0.9-0.5-0.9-1c0-0.4,0.3-0.8,0.8-0.8c0.7,0,1,0.4,1.2,1.1l0.2,0
			c-0.1-0.3-0.1-0.8-0.2-1.1c-0.2,0-0.6-0.1-1-0.1c-1,0-1.6,0.5-1.6,1.2c0,0.7,0.5,1,1.1,1.4l0.3,0.1c0.4,0.2,0.9,0.5,0.9,1.1
			c0,0.6-0.4,0.8-0.9,0.8c-0.8,0-1.3-0.6-1.5-1.2l-0.2,0c0.1,0.5,0.2,1,0.2,1.2c0.2,0.1,0.7,0.2,1.2,0.2c0.9,0,1.7-0.5,1.7-1.4
			C75.9,55,75.3,54.6,74.7,54.3z"/>
		<path class="st0" d="M81.2,52.2c-0.1,0.1-0.2,0.2-0.4,0.2h-3.3c-0.2,0-0.3,0-0.4-0.2h-0.1c0,0.4-0.1,1-0.1,1.3H77
			c0.1-0.2,0.1-0.3,0.2-0.5c0.2-0.3,0.3-0.4,0.8-0.4h0.7V56c0,0.6-0.1,0.7-0.8,0.8V57h2.3v-0.1c-0.8-0.1-0.8-0.2-0.8-0.8v-3.4h0.7
			c0.5,0,0.7,0.1,0.8,0.4c0.1,0.2,0.2,0.4,0.2,0.6l0.2,0c0-0.4,0-1,0-1.3H81.2z"/>
		<path class="st0" d="M88.4,56.9c-1.9,0-3-1.4-3-3.4c0-1.6,0.9-3.1,2.8-3.1c0.4,0,0.9,0.1,1.2,0.2c0.6,0.2,0.8,0.7,1,1.3l0.2,0
			c-0.1-0.4-0.1-1-0.2-1.5c-0.3,0-1-0.2-1.9-0.2c-2.4,0-4.1,1.4-4.1,3.5c0,1.8,1.2,3.5,3.9,3.5c0.7,0,1.5-0.2,1.8-0.2
			c0.2-0.3,0.5-1.1,0.6-1.5l-0.2-0.1C90.1,56.2,89.6,56.9,88.4,56.9z"/>
		<path class="st0" d="M94.2,52.2c-1.2,0-2.5,1-2.5,2.4c0,1.4,1,2.4,2.5,2.4c1.2,0,2.5-0.9,2.5-2.5C96.8,53.2,95.7,52.2,94.2,52.2z
			 M94.4,56.9c-1.1,0-1.8-1-1.8-2.4c0-1.4,0.7-2.1,1.6-2.1c1.1,0,1.8,1,1.8,2.3C96,56.3,95.3,56.9,94.4,56.9z"/>
		<path class="st0" d="M101.3,52.5c0.7,0.1,0.8,0.2,0.8,0.6c0,0.3,0,0.5,0,1.2v1.5l-3.2-3.5h-1.3v0.1c0.4,0.1,0.6,0.2,0.8,0.4
			c0.1,0.1,0.1,0.2,0.1,0.4V55c0,0.7,0,0.9,0,1.2c0,0.5-0.2,0.6-0.7,0.7V57h1.9v-0.1c-0.6-0.1-0.8-0.2-0.8-0.7c0-0.2,0-0.5,0-1.2
			v-1.7l3.4,3.7h0.2v-2.7c0-0.7,0-1,0-1.2c0-0.4,0.2-0.5,0.8-0.6v-0.1h-1.9V52.5z"/>
		<path class="st0" d="M108.3,52.2c-0.1,0.1-0.2,0.2-0.4,0.2h-3.3c-0.2,0-0.3,0-0.4-0.2h-0.1c0,0.4-0.1,1-0.1,1.3h0.2
			c0.1-0.2,0.1-0.3,0.2-0.5c0.2-0.3,0.3-0.4,0.8-0.4h0.7V56c0,0.6-0.1,0.7-0.8,0.8V57h2.3v-0.1c-0.8-0.1-0.8-0.2-0.8-0.8v-3.4h0.7
			c0.5,0,0.7,0.1,0.8,0.4c0.1,0.2,0.2,0.4,0.2,0.6l0.2,0c0-0.4,0-1,0-1.3H108.3z"/>
		<path class="st0" d="M118.5,56.2l-1.7-4l-0.1,0l-1.6,3.7c-0.3,0.7-0.5,0.8-1,0.9v0.1c-0.2-0.1-0.4-0.2-0.6-0.4
			c-0.2-0.2-0.4-0.4-0.6-0.8c-0.2-0.3-0.6-0.8-0.7-1c0.4-0.2,1-0.5,1-1.2c0-0.5-0.2-0.8-0.5-0.9c-0.3-0.2-0.7-0.2-1.2-0.2h-2.1v0.1
			c0.7,0.1,0.7,0.2,0.7,0.8V56c0,0.6,0,0.7-0.7,0.8V57h2.3v-0.1c-0.8-0.1-0.8-0.2-0.8-0.8v-1.1h0.3c0.4,0,0.5,0.1,0.7,0.4
			c0.2,0.2,0.5,0.8,0.8,1.2c0.3,0.4,0.6,0.5,1.2,0.5l0.3,0l0-0.1h1.8v-0.1l-0.2,0c-0.4-0.1-0.6-0.1-0.4-0.6l0.4-1h1.6l0.5,1.2
			c0.1,0.3,0,0.4-0.3,0.5l-0.2,0V57h2v-0.1C118.8,56.8,118.7,56.7,118.5,56.2z M112,54.6c-0.2,0.1-0.5,0.1-0.8,0.1h-0.4V53
			c0-0.3,0-0.5,0.5-0.5c0.6,0,1.1,0.3,1.1,1.1C112.4,54.1,112.2,54.4,112,54.6z M115.8,54.9l0.7-1.7l0.7,1.7H115.8z"/>
		<path class="st0" d="M122.6,56.9c-1.2,0-2-1-2-2.3c0-1.2,0.6-2.1,1.8-2.1c0.7,0,1.4,0.2,1.6,1.1l0.1,0c-0.1-0.3-0.1-0.8-0.1-1.2
			c-0.2,0-0.8-0.1-1.4-0.1c-1.6,0-2.9,0.9-2.9,2.5c0,1.3,0.9,2.4,2.8,2.4c0.5,0,1.1-0.1,1.4-0.2c0.1-0.2,0.3-0.8,0.4-1.1l-0.1,0
			C123.8,56.5,123.4,56.9,122.6,56.9z"/>
		<path class="st0" d="M129.6,52.2c-0.1,0.1-0.2,0.2-0.4,0.2h-3.3c-0.2,0-0.3,0-0.4-0.2h-0.1c0,0.4-0.1,1-0.1,1.3h0.2
			c0.1-0.2,0.1-0.3,0.2-0.5c0.2-0.3,0.3-0.4,0.8-0.4h0.7V56c0,0.6-0.1,0.7-0.8,0.8V57h2.3v-0.1c-0.8-0.1-0.8-0.2-0.8-0.8v-3.4h0.7
			c0.5,0,0.7,0.1,0.8,0.4c0.1,0.2,0.2,0.4,0.2,0.6l0.2,0c0-0.4,0-1,0-1.3H129.6z"/>
		<path class="st0" d="M130.6,52.5c0.7,0.1,0.7,0.2,0.7,0.8v2.8c0,0.6-0.1,0.7-0.7,0.8V57h2.2v-0.1c-0.7-0.1-0.8-0.2-0.8-0.8v-2.8
			c0-0.6,0.1-0.7,0.8-0.8v-0.1h-2.2V52.5z"/>
		<path class="st0" d="M137.3,52.5c0.7,0.1,0.8,0.2,0.8,0.6c0,0.3,0,0.5,0,1.2v1.5l-3.2-3.5h-1.3v0.1c0.4,0.1,0.6,0.2,0.8,0.4
			c0.1,0.1,0.1,0.2,0.1,0.4V55c0,0.7,0,0.9,0,1.2c0,0.5-0.2,0.6-0.7,0.7V57h1.9v-0.1c-0.6-0.1-0.8-0.2-0.8-0.7c0-0.2,0-0.5,0-1.2
			v-1.7l3.4,3.7h0.2v-2.7c0-0.7,0-1,0-1.2c0-0.4,0.2-0.5,0.8-0.6v-0.1h-1.9V52.5z"/>
		<path class="st0" d="M143,54.8v0.1c0.7,0.1,0.8,0.2,0.8,0.7v0.7c0,0.5-0.3,0.7-0.8,0.7c-1.4,0-2.1-1.2-2.1-2.3
			c0-1.4,0.7-2.1,1.8-2.1c1,0,1.5,0.4,1.7,1.2l0.2,0c-0.1-0.4-0.1-0.9-0.1-1.2c-0.3,0-0.8-0.2-1.4-0.2c-1.6,0-2.9,0.8-2.9,2.5
			c0,1.5,1.1,2.4,2.8,2.4c0.6,0,1.2-0.2,1.7-0.3c0-0.1-0.1-0.4-0.1-0.7v-0.7c0-0.5,0-0.5,0.5-0.6v-0.1H143z"/>
	</g>
</g>
</svg>
