<?xml version="1.0" encoding="utf-8"?>
<!-- Generator: Adobe Illustrator 28.1.0, SVG Export Plug-In . SVG Version: 6.00 Build 0)  -->
<svg version="1.1" id="Layer_1" xmlns="http://www.w3.org/2000/svg" xmlns:xlink="http://www.w3.org/1999/xlink" x="0px" y="0px"
	 viewBox="0 0 80 80" style="enable-background:new 0 0 80 80;" xml:space="preserve">
<style type="text/css">
	.st0{fill:#465BAA;}
	.st1{fill:#F8F8F8;}
	.st2{fill:#D0BEF2;}
</style>
<path class="st0" d="M82.4,82.4h-85v-85h85V82.4z"/>
<g>
	<path class="st1" d="M57.5,62.7l-8.4-11.5l-3.2-4.5l-0.1-0.2c0,0,0,0,0,0c0,0,0,0,0,0l-4.8-6.7c-0.8-1.1-1.9-1.9-3.2-2.3l-12.8-3.9
		l-2,16.4l-1.5,12.5c-0.1,1.1,0.8,2.1,1.9,2.1h5.6c1.1,0,2-0.8,2.1-1.9l0.3-2.4c0,0,0,0,0,0l0.4-3l0.1-0.7l0.1-0.6v0l1-8.4l0,0
		l0.3-2.2c0.1,0.2,0.3,0.4,0.5,0.6l11.8,16.4c0.1,0.2,0.2,0.3,0.4,0.5c0.9,1.1,2.2,1.7,3.6,1.7h7.1C57.5,64.6,58,63.5,57.5,62.7
		L57.5,62.7z"/>
	<path class="st2" d="M56.9,15.4h-5.6c0,0-2.4-0.1-3.2,2.3l0,0l-4,9.8l-4.3,10.4l0,0.1l-2.1-2.9l-1.7-2.4c0-0.1-0.1-0.1-0.1-0.2
		c0,0,0,0,0,0c-0.1-0.1-0.1-0.1-0.2-0.2l-0.1-0.2c-0.4-0.5-1-0.9-1.7-0.9H27c-1.7,0-2.7,1.9-1.7,3.3l5,7l1.4,1.9l0,0l0.3,0.4l1,1.3
		c0.3,0.5,0.7,1,1.2,1.4c0.4,0.4,0.9,0.8,1.4,1.1c0.1,0,0.2,0.1,0.2,0.1c0.6,0.3,1.3,0.6,1.9,0.8c0.2,0,0.3,0.1,0.5,0.1h0
		c0.1,0,0.2,0,0.3,0.1c0.2,0,0.4,0.1,0.6,0.1c0.1,0,0.1,0,0.2,0c0.1,0,0.2,0,0.3,0c0.1,0,0.2,0,0.3,0c2.7,0,5.2-1.4,6.9-3.5
		c0.1-0.2,0.2-0.3,0.3-0.5c0.2-0.3,0.4-0.6,0.6-1L53,31l0.2-0.5l0.4-0.9l3.6-8.4l0,0l1.4-3.3C59,16.7,58.2,15.4,56.9,15.4z
		 M39.7,38.1L39.7,38.1L39.7,38.1L39.7,38.1z"/>
</g>
</svg>
