<?xml version="1.0" encoding="utf-8"?>
<!-- Generator: Adobe Illustrator 28.0.0, SVG Export Plug-In . SVG Version: 6.00 Build 0)  -->
<svg version="1.1" id="Layer_1" xmlns="http://www.w3.org/2000/svg" xmlns:xlink="http://www.w3.org/1999/xlink" x="0px" y="0px"
	 viewBox="0 0 177.57 89.57" style="enable-background:new 0 0 177.57 89.57;" xml:space="preserve">
<style type="text/css">
	.st0{fill:#7343FF;}
	.st1{fill:#F6F6F6;}
</style>
<g>
	<polygon class="st0" points="163.13,42.49 151.95,49.47 151.95,16.03 163.13,9.39 	"/>
	<g>
		<path class="st1" d="M29.76,32.87c-0.77-0.82-1.51-1.37-2.22-1.65c-0.72-0.27-1.44-0.41-2.17-0.41c-1.08,0-2.06,0.19-2.93,0.57
			c-0.87,0.38-1.63,0.91-2.25,1.59c-0.63,0.68-1.12,1.47-1.46,2.37c-0.34,0.9-0.52,1.88-0.52,2.92c0,1.12,0.17,2.15,0.52,3.09
			c0.34,0.94,0.83,1.76,1.46,2.45c0.63,0.69,1.38,1.23,2.25,1.62c0.87,0.39,1.85,0.59,2.93,0.59c0.84,0,1.66-0.2,2.46-0.6
			s1.54-1.05,2.22-1.93l3.06,2.18c-0.94,1.3-2.09,2.24-3.45,2.83c-1.35,0.59-2.8,0.88-4.33,0.88c-1.61,0-3.09-0.26-4.43-0.78
			c-1.35-0.52-2.5-1.26-3.48-2.21c-0.97-0.95-1.73-2.1-2.28-3.43s-0.82-2.82-0.82-4.45c0-1.67,0.28-3.19,0.82-4.55
			c0.55-1.36,1.31-2.53,2.28-3.49c0.97-0.96,2.13-1.7,3.48-2.22c1.35-0.52,2.82-0.78,4.43-0.78c1.41,0,2.72,0.25,3.92,0.75
			c1.2,0.5,2.33,1.35,3.39,2.55L29.76,32.87z"/>
		<path class="st1" d="M34.92,29.9c0-0.57,0.21-1.06,0.63-1.49c0.42-0.42,0.96-0.63,1.61-0.63s1.19,0.2,1.64,0.6
			c0.44,0.4,0.66,0.91,0.66,1.52c0,0.61-0.22,1.12-0.66,1.52c-0.44,0.4-0.99,0.6-1.64,0.6s-1.18-0.21-1.61-0.63
			C35.13,30.96,34.92,30.47,34.92,29.9z M35.42,34.7h3.54v14.14h-3.54V34.7z"/>
		<path class="st1" d="M41.43,37.71V34.7h2.92v-4.1h3.54v4.1h3.89v3.01h-3.89v6.19c0,0.71,0.13,1.27,0.4,1.68
			c0.27,0.41,0.79,0.62,1.58,0.62c0.31,0,0.66-0.03,1.03-0.1c0.37-0.07,0.67-0.18,0.88-0.34v2.98c-0.37,0.18-0.83,0.3-1.37,0.37
			c-0.54,0.07-1.02,0.1-1.43,0.1c-0.94,0-1.71-0.1-2.31-0.31c-0.6-0.21-1.07-0.52-1.41-0.94c-0.34-0.42-0.58-0.95-0.71-1.58
			c-0.13-0.63-0.19-1.35-0.19-2.18v-6.48H41.43z"/>
		<path class="st1" d="M52.68,34.7h3.89l3.95,9.81h0.06l3.54-9.81h3.68l-6.69,17.18c-0.26,0.67-0.54,1.25-0.84,1.75
			c-0.3,0.5-0.66,0.92-1.08,1.27c-0.41,0.34-0.9,0.6-1.46,0.77c-0.56,0.17-1.23,0.25-2.02,0.25c-0.92,0-1.83-0.12-2.71-0.35
			l0.44-3.18c0.27,0.1,0.56,0.18,0.87,0.25c0.3,0.07,0.61,0.1,0.93,0.1c0.43,0,0.8-0.04,1.09-0.12c0.29-0.08,0.54-0.2,0.74-0.37
			c0.2-0.17,0.37-0.38,0.52-0.65c0.15-0.26,0.3-0.58,0.46-0.96l0.68-1.68L52.68,34.7z"/>
		<path class="st1" d="M77.49,38.62c-0.67-0.96-1.59-1.44-2.77-1.44c-0.47,0-0.93,0.12-1.38,0.35c-0.45,0.24-0.68,0.62-0.68,1.15
			c0,0.43,0.19,0.75,0.56,0.94c0.37,0.2,0.84,0.36,1.41,0.5s1.18,0.28,1.84,0.43c0.66,0.15,1.27,0.37,1.84,0.68
			c0.57,0.3,1.04,0.72,1.41,1.25c0.37,0.53,0.56,1.26,0.56,2.18c0,0.84-0.18,1.56-0.55,2.14c-0.36,0.58-0.84,1.05-1.41,1.4
			c-0.58,0.35-1.23,0.61-1.96,0.77c-0.73,0.16-1.45,0.24-2.18,0.24c-1.12,0-2.14-0.16-3.05-0.47c-0.91-0.31-1.73-0.88-2.46-1.71
			l2.36-2.21c0.45,0.51,0.94,0.93,1.46,1.25c0.52,0.32,1.15,0.49,1.9,0.49c0.26,0,0.52-0.03,0.8-0.09c0.27-0.06,0.53-0.16,0.77-0.29
			c0.24-0.14,0.43-0.31,0.57-0.52c0.15-0.21,0.22-0.45,0.22-0.72c0-0.49-0.19-0.85-0.56-1.09c-0.37-0.24-0.84-0.43-1.41-0.57
			c-0.57-0.15-1.18-0.28-1.84-0.41c-0.66-0.13-1.27-0.33-1.84-0.62c-0.57-0.28-1.04-0.68-1.41-1.19c-0.37-0.51-0.56-1.22-0.56-2.12
			c0-0.79,0.16-1.47,0.49-2.05c0.32-0.58,0.75-1.06,1.28-1.43c0.53-0.37,1.14-0.65,1.83-0.83c0.69-0.18,1.38-0.26,2.09-0.26
			c0.94,0,1.88,0.16,2.8,0.49c0.92,0.32,1.67,0.88,2.24,1.66L77.49,38.62z"/>
		<path class="st1" d="M92.75,38.94c-0.41-0.43-0.84-0.78-1.3-1.03c-0.45-0.26-0.91-0.38-1.38-0.38c-0.65,0-1.23,0.12-1.74,0.35
			c-0.51,0.24-0.95,0.55-1.31,0.94c-0.36,0.39-0.64,0.84-0.82,1.36c-0.19,0.51-0.28,1.04-0.28,1.59c0,0.55,0.09,1.08,0.28,1.59
			s0.46,0.96,0.82,1.35c0.36,0.39,0.8,0.71,1.31,0.94c0.51,0.24,1.09,0.35,1.74,0.35c1.12,0,2.03-0.44,2.74-1.33l2.36,2.53
			c-0.35,0.35-0.76,0.66-1.22,0.91c-0.46,0.26-0.93,0.46-1.4,0.62c-0.47,0.16-0.92,0.27-1.36,0.34c-0.43,0.07-0.81,0.1-1.12,0.1
			c-1.06,0-2.06-0.18-3.01-0.53c-0.94-0.35-1.76-0.85-2.45-1.5s-1.23-1.43-1.64-2.34s-0.6-1.93-0.6-3.05c0-1.12,0.2-2.14,0.6-3.05
			c0.4-0.91,0.95-1.69,1.64-2.34s1.5-1.15,2.45-1.5c0.94-0.35,1.94-0.53,3.01-0.53c0.9,0,1.81,0.17,2.73,0.52
			c0.91,0.34,1.71,0.89,2.4,1.64L92.75,38.94z"/>
		<path class="st1" d="M106.18,46.9h-0.09c-0.51,0.83-1.16,1.41-1.94,1.77c-0.79,0.35-1.65,0.53-2.59,0.53
			c-0.65,0-1.28-0.09-1.9-0.26c-0.62-0.18-1.17-0.44-1.65-0.8c-0.48-0.35-0.87-0.8-1.16-1.33c-0.29-0.53-0.44-1.15-0.44-1.86
			c0-0.77,0.14-1.42,0.41-1.96c0.27-0.54,0.64-0.99,1.1-1.35c0.46-0.36,1-0.65,1.61-0.87c0.61-0.22,1.24-0.38,1.9-0.49
			c0.66-0.11,1.32-0.18,1.99-0.21c0.67-0.03,1.3-0.04,1.89-0.04h0.88v-0.38c0-0.88-0.3-1.55-0.91-1.99
			c-0.61-0.44-1.38-0.66-2.33-0.66c-0.75,0-1.44,0.13-2.09,0.4c-0.65,0.27-1.21,0.62-1.68,1.08l-1.86-1.86
			c0.79-0.82,1.7-1.41,2.76-1.75c1.05-0.34,2.14-0.52,3.25-0.52c1,0,1.85,0.11,2.53,0.34c0.69,0.23,1.26,0.52,1.71,0.87
			c0.45,0.35,0.8,0.76,1.05,1.22c0.25,0.46,0.42,0.93,0.53,1.4c0.11,0.47,0.17,0.93,0.19,1.37c0.02,0.44,0.03,0.83,0.03,1.16v8.13
			h-3.18V46.9z M105.98,42.51h-0.74c-0.49,0-1.04,0.02-1.65,0.06c-0.61,0.04-1.18,0.13-1.72,0.28c-0.54,0.15-1,0.37-1.37,0.66
			c-0.37,0.29-0.56,0.69-0.56,1.18c0,0.33,0.07,0.61,0.22,0.84c0.15,0.23,0.34,0.42,0.57,0.57c0.24,0.16,0.5,0.27,0.79,0.34
			c0.29,0.07,0.59,0.1,0.88,0.1c1.24,0,2.14-0.29,2.71-0.87c0.57-0.58,0.85-1.37,0.85-2.37V42.51z"/>
		<path class="st1" d="M113.23,34.7h3.36v2.12h0.06c0.51-0.88,1.2-1.52,2.06-1.9c0.86-0.38,1.8-0.57,2.8-0.57
			c1.08,0,2.05,0.19,2.92,0.57c0.86,0.38,1.6,0.91,2.21,1.58c0.61,0.67,1.07,1.45,1.38,2.36c0.31,0.9,0.47,1.88,0.47,2.92
			c0,1.04-0.17,2.01-0.5,2.92c-0.33,0.9-0.8,1.69-1.4,2.36c-0.6,0.67-1.32,1.19-2.17,1.58c-0.84,0.38-1.77,0.57-2.77,0.57
			c-0.65,0-1.23-0.07-1.75-0.21c-0.52-0.14-0.98-0.31-1.37-0.53c-0.39-0.22-0.73-0.45-1-0.69c-0.28-0.25-0.5-0.49-0.68-0.72h-0.09
			v8.51h-3.54V34.7z M124.95,41.77c0-0.55-0.09-1.08-0.28-1.59c-0.19-0.51-0.46-0.96-0.83-1.36c-0.36-0.39-0.8-0.71-1.31-0.94
			c-0.51-0.24-1.09-0.35-1.74-0.35c-0.65,0-1.23,0.12-1.74,0.35c-0.51,0.24-0.95,0.55-1.31,0.94c-0.36,0.39-0.64,0.84-0.83,1.36
			c-0.19,0.51-0.28,1.04-0.28,1.59c0,0.55,0.09,1.08,0.28,1.59s0.46,0.96,0.83,1.35c0.36,0.39,0.8,0.71,1.31,0.94
			c0.51,0.24,1.09,0.35,1.74,0.35c0.65,0,1.23-0.12,1.74-0.35c0.51-0.24,0.95-0.55,1.31-0.94c0.36-0.39,0.64-0.84,0.83-1.35
			C124.86,42.85,124.95,42.32,124.95,41.77z"/>
		<path class="st1" d="M134.67,43.01c0.12,1.06,0.53,1.89,1.24,2.47c0.71,0.59,1.56,0.88,2.56,0.88c0.88,0,1.62-0.18,2.22-0.55
			c0.6-0.36,1.12-0.82,1.58-1.37l2.53,1.91c-0.83,1.02-1.75,1.75-2.77,2.18c-1.02,0.43-2.09,0.65-3.21,0.65
			c-1.06,0-2.06-0.18-3.01-0.53c-0.94-0.35-1.76-0.85-2.45-1.5s-1.23-1.43-1.64-2.34c-0.4-0.91-0.6-1.93-0.6-3.05
			c0-1.12,0.2-2.14,0.6-3.05c0.4-0.91,0.95-1.69,1.64-2.34s1.5-1.15,2.45-1.5c0.94-0.35,1.94-0.53,3.01-0.53
			c0.98,0,1.88,0.17,2.7,0.52c0.82,0.34,1.51,0.84,2.09,1.49c0.58,0.65,1.03,1.45,1.36,2.4c0.32,0.95,0.49,2.05,0.49,3.29v0.97
			H134.67z M141.92,40.36c-0.02-1.06-0.34-1.89-0.97-2.47c-0.63-0.59-1.5-0.88-2.62-0.88c-1.06,0-1.9,0.3-2.52,0.91
			c-0.62,0.61-1,1.42-1.13,2.45H141.92z"/>
		<path class="st1" d="M33.97,78.02c-2.55,1.38-5.43,2.06-8.63,2.06c-1.61,0-3.09-0.26-4.43-0.78c-1.35-0.52-2.5-1.26-3.48-2.21
			c-0.97-0.95-1.73-2.1-2.28-3.43s-0.82-2.82-0.82-4.45c0-1.67,0.28-3.19,0.82-4.55c0.55-1.36,1.31-2.53,2.28-3.49
			c0.97-0.96,2.13-1.7,3.48-2.22c1.35-0.52,2.82-0.78,4.43-0.78c1.59,0,3.08,0.19,4.46,0.56c1.38,0.37,2.64,1.06,3.76,2.06
			l-2.74,2.77c-0.67-0.65-1.48-1.15-2.43-1.5c-0.95-0.35-1.96-0.53-3.02-0.53c-1.08,0-2.06,0.19-2.93,0.57
			c-0.87,0.38-1.63,0.91-2.25,1.59c-0.63,0.68-1.12,1.47-1.46,2.37c-0.34,0.9-0.52,1.88-0.52,2.92c0,1.12,0.17,2.15,0.52,3.09
			c0.34,0.94,0.83,1.76,1.46,2.45c0.63,0.69,1.38,1.23,2.25,1.62s1.85,0.59,2.93,0.59c0.94,0,1.83-0.09,2.67-0.27
			c0.84-0.18,1.58-0.45,2.22-0.82v-4.92h-4.27v-3.36h7.98V78.02z"/>
		<path class="st1" d="M38.16,57.28h3.54v22.27h-3.54V57.28z"/>
		<path class="st1" d="M45.11,72.48c0-1.12,0.2-2.14,0.6-3.05c0.4-0.91,0.95-1.69,1.64-2.34c0.69-0.65,1.5-1.15,2.45-1.5
			c0.94-0.35,1.94-0.53,3.01-0.53c1.06,0,2.06,0.18,3.01,0.53c0.94,0.35,1.76,0.85,2.45,1.5c0.69,0.65,1.23,1.43,1.64,2.34
			c0.4,0.91,0.6,1.93,0.6,3.05c0,1.12-0.2,2.14-0.6,3.05c-0.4,0.91-0.95,1.69-1.64,2.34c-0.69,0.65-1.5,1.15-2.45,1.5
			c-0.94,0.35-1.94,0.53-3.01,0.53c-1.06,0-2.06-0.18-3.01-0.53c-0.94-0.35-1.76-0.85-2.45-1.5c-0.69-0.65-1.23-1.43-1.64-2.34
			C45.31,74.62,45.11,73.6,45.11,72.48z M48.65,72.48c0,0.55,0.09,1.08,0.28,1.59c0.19,0.51,0.46,0.96,0.82,1.35
			c0.36,0.39,0.8,0.71,1.31,0.94c0.51,0.24,1.09,0.35,1.74,0.35s1.23-0.12,1.74-0.35c0.51-0.24,0.95-0.55,1.31-0.94
			c0.36-0.39,0.64-0.84,0.83-1.35c0.19-0.51,0.28-1.04,0.28-1.59c0-0.55-0.09-1.08-0.28-1.59c-0.19-0.51-0.46-0.96-0.83-1.36
			c-0.36-0.39-0.8-0.71-1.31-0.94s-1.09-0.35-1.74-0.35s-1.23,0.12-1.74,0.35c-0.51,0.24-0.95,0.55-1.31,0.94
			c-0.36,0.39-0.64,0.84-0.82,1.36S48.65,71.93,48.65,72.48z"/>
		<path class="st1" d="M63.85,57.28h3.54v9.93h0.09c0.18-0.24,0.4-0.48,0.68-0.72c0.28-0.25,0.61-0.48,1-0.69
			c0.39-0.22,0.85-0.39,1.37-0.53c0.52-0.14,1.11-0.21,1.75-0.21c1,0,1.92,0.19,2.77,0.57c0.84,0.38,1.57,0.91,2.17,1.58
			c0.6,0.67,1.07,1.45,1.4,2.36c0.33,0.9,0.5,1.88,0.5,2.92c0,1.04-0.16,2.01-0.47,2.92c-0.31,0.9-0.78,1.69-1.38,2.36
			c-0.61,0.67-1.35,1.19-2.21,1.58c-0.86,0.38-1.84,0.57-2.92,0.57c-1,0-1.93-0.19-2.8-0.57c-0.86-0.38-1.55-1.02-2.06-1.9h-0.06
			v2.12h-3.36V57.28z M75.57,72.48c0-0.55-0.09-1.08-0.28-1.59c-0.19-0.51-0.46-0.96-0.83-1.36c-0.36-0.39-0.8-0.71-1.31-0.94
			c-0.51-0.24-1.09-0.35-1.74-0.35c-0.65,0-1.23,0.12-1.74,0.35s-0.95,0.55-1.31,0.94c-0.36,0.39-0.64,0.84-0.83,1.36
			s-0.28,1.04-0.28,1.59c0,0.55,0.09,1.08,0.28,1.59c0.19,0.51,0.46,0.96,0.83,1.35c0.36,0.39,0.8,0.71,1.31,0.94
			c0.51,0.24,1.09,0.35,1.74,0.35c0.65,0,1.23-0.12,1.74-0.35c0.51-0.24,0.95-0.55,1.31-0.94c0.36-0.39,0.64-0.84,0.83-1.35
			C75.48,73.56,75.57,73.03,75.57,72.48z"/>
		<path class="st1" d="M91.31,77.61h-0.09c-0.51,0.83-1.16,1.41-1.94,1.77c-0.79,0.35-1.65,0.53-2.59,0.53
			c-0.65,0-1.28-0.09-1.9-0.26c-0.62-0.18-1.17-0.44-1.65-0.8c-0.48-0.35-0.87-0.8-1.16-1.33c-0.29-0.53-0.44-1.15-0.44-1.86
			c0-0.77,0.14-1.42,0.41-1.96c0.27-0.54,0.64-0.99,1.1-1.35c0.46-0.36,1-0.65,1.61-0.87c0.61-0.22,1.24-0.38,1.9-0.49
			c0.66-0.11,1.32-0.18,1.99-0.21c0.67-0.03,1.3-0.04,1.89-0.04h0.88v-0.38c0-0.88-0.3-1.55-0.91-1.99
			c-0.61-0.44-1.38-0.66-2.33-0.66c-0.75,0-1.44,0.13-2.09,0.4c-0.65,0.27-1.21,0.62-1.68,1.08l-1.86-1.86
			c0.79-0.82,1.7-1.41,2.76-1.75c1.05-0.34,2.14-0.52,3.25-0.52c1,0,1.85,0.11,2.53,0.34c0.69,0.23,1.26,0.52,1.71,0.87
			c0.45,0.35,0.8,0.76,1.05,1.22c0.25,0.46,0.42,0.93,0.53,1.4c0.11,0.47,0.17,0.93,0.19,1.37c0.02,0.44,0.03,0.83,0.03,1.16v8.13
			h-3.18V77.61z M91.1,73.22h-0.74c-0.49,0-1.04,0.02-1.65,0.06c-0.61,0.04-1.18,0.13-1.72,0.28c-0.54,0.15-1,0.37-1.37,0.66
			c-0.37,0.29-0.56,0.69-0.56,1.18c0,0.33,0.07,0.61,0.22,0.84c0.15,0.23,0.34,0.42,0.57,0.57c0.24,0.16,0.5,0.27,0.79,0.34
			s0.59,0.1,0.88,0.1c1.24,0,2.14-0.29,2.71-0.87c0.57-0.58,0.85-1.37,0.85-2.37V73.22z"/>
		<path class="st1" d="M98.41,57.28h3.54v22.27h-3.54V57.28z"/>
	</g>
</g>
</svg>
