<?xml version="1.0" encoding="utf-8"?>
<!-- Generator: Adobe Illustrator 28.0.0, SVG Export Plug-In . SVG Version: 6.00 Build 0)  -->
<svg version="1.1" id="Layer_1" xmlns="http://www.w3.org/2000/svg" xmlns:xlink="http://www.w3.org/1999/xlink" x="0px" y="0px"
	 viewBox="0 0 495.52 131.87" style="enable-background:new 0 0 495.52 131.87;" xml:space="preserve">
<style type="text/css">
	.st0{fill:#F6F6F6;}
</style>
<g>
	<g>
		<g>
			<path class="st0" d="M436.64,7.02c1.58,0.24,3.15,0.48,4.73,0.73c7.37,1.15,14.21,3.76,20.62,7.55
				c4.31,2.55,8.25,5.62,11.74,9.21c8.18,8.41,13.5,18.38,15.81,29.9c0.83,4.13,1.3,8.32,1.17,12.54
				c-0.25,8.08-1.9,15.86-5.28,23.25c-2.79,6.09-6.47,11.54-11.1,16.39c-5.38,5.63-11.6,10.01-18.7,13.2
				c-4.79,2.15-9.78,3.62-14.96,4.4c-4.62,0.69-9.27,0.87-13.94,0.45c-4.17-0.38-8.25-1.13-12.23-2.35
				c-6.52-2-12.54-5.03-18.01-9.16c-6.06-4.57-11.12-10.06-15.06-16.54c-4.12-6.76-6.76-14.07-7.97-21.9
				c-0.69-4.46-0.77-8.95-0.45-13.41c0.71-9.66,3.72-18.61,8.91-26.81c4.92-7.79,11.35-14.08,19.18-18.91
				c4.34-2.68,8.98-4.72,13.88-6.16c3.66-1.07,7.36-1.82,11.16-2.16c0.22-0.02,0.43-0.13,0.65-0.2
				C430.05,7.02,433.35,7.02,436.64,7.02z M431.76,10.58c-29.71-0.37-55.33,23.93-55.42,55.06c-0.1,31.57,25.58,55.62,55.36,55.62
				c30.13,0,55.34-24.35,55.41-55.28C487.17,34.95,461.74,10.24,431.76,10.58z"/>
			<path class="st0" d="M485.84,66.03c0.19,29.51-24.2,54.26-54.38,54.18c-29.59-0.08-54.21-24.15-54.17-54.46
				C377.33,35.6,402.2,11.37,432,11.57C461.58,11.78,486.17,36.24,485.84,66.03z M483.84,66.03c0.1-28.66-23-52.19-51.92-52.35
				c-29.58-0.16-52.39,24.08-52.44,52.1c-0.04,28.08,22.52,52.15,51.79,52.34C460.66,118.3,483.83,94.66,483.84,66.03z"/>
			<path class="st0" d="M444.92,20.8c-1.5,0.76-2.69,1.37-3.88,1.98c0,0.1,0.01,0.19,0.01,0.29c8.2-0.95,14.57,2.47,19.99,8.23
				c-4.78-1.89-9.53-3.82-15.02-2.71c0.86,0.23,1.58,0.41,2.29,0.61c4.25,1.21,8.08,3.15,11.13,6.45c1.83,1.98,3.11,4.28,3.99,6.81
				c0.11,0.3,0.17,0.62,0.24,0.93c0.03,0.12-0.01,0.26-0.02,0.56c-1.11-0.98-2.13-1.86-3.13-2.77c-4.21-3.81-9.06-6.3-14.71-7.14
				c-0.08-0.01-0.17,0.02-0.4,0.06c0.21,0.23,0.35,0.42,0.53,0.57c3.27,2.67,5.91,5.84,7.75,9.66c1.07,2.21,1.7,4.54,1.85,6.98
				c0.05,0.8-0.16,1.61-0.25,2.41c-0.1,0.03-0.19,0.06-0.29,0.09c-0.2-0.25-0.41-0.49-0.59-0.76c-1.43-2.23-2.75-4.54-4.32-6.67
				c-2.18-2.96-4.74-5.57-7.84-7.6c-0.37-0.24-0.76-0.43-1.44-0.81c0.5,1.41,1,2.48,1.26,3.6c0.26,1.15,0.39,2.35,0.37,3.52
				c-0.02,1.17-0.2,2.37-0.5,3.51c-0.29,1.13-0.69,2.26-1.7,3.38c-1.08-6.2-4.38-10.96-8.39-15.53c-2.21,2.15-3.85,4.58-5.4,7.1
				c-1.55,2.52-2.52,5.26-3.06,8.21c-2.29-2.31-3.76-8.08-0.44-13.89c-1.62,0.76-2.92,1.7-4.13,2.79c-3.77,3.39-6.93,7.28-9.3,11.78
				c-0.23,0.44-0.51,0.87-0.77,1.3c-0.04,0.07-0.14,0.1-0.29,0.2c-0.63-1.36-0.49-2.76-0.29-4.14c0.6-4.1,2.53-7.59,5.07-10.8
				c1.31-1.66,2.77-3.16,4.48-4.42c0.17-0.13,0.33-0.28,0.45-0.51c-3.59,0.39-6.94,1.46-10.03,3.3c-3.03,1.81-5.67,4.11-8.15,6.62
				c-0.07-0.05-0.15-0.1-0.22-0.15c0.03-0.29,0.02-0.59,0.1-0.86c1.45-4.89,4.47-8.52,8.85-11.08c2.35-1.38,4.87-2.29,7.5-2.96
				c0.44-0.11,0.87-0.23,1.5-0.39c-5.45-1.08-10.15,0.81-14.87,2.68c5.31-5.81,11.65-9.12,20.02-8.16
				c-1.23-1.14-2.57-1.47-3.79-2.09c2.07-1.35,5.5-1.07,9.94,0.78c1.29-3.3,1.39-3.45,2.9-4.48c1.73,0.9,2.1,2.78,2.9,4.47
				c2.33-1.26,4.75-1.78,7.31-1.55C442.98,20.29,443.8,20.56,444.92,20.8z"/>
			<path class="st0" d="M466.65,90.48c-10.27,2.15-19.8,5.99-29.1,11.16c0.53,0.3,0.9,0.52,1.27,0.73c2.74,1.47,5.48,2.93,8.21,4.41
				c0.39,0.21,0.73,0.5,1.12,0.77c-0.1,0.31-0.12,0.56-0.24,0.73c-1.11,1.57-2.31,3.08-3.94,4.15c-1.12,0.73-1.33,0.67-2.43-0.14
				c-2.86-2.12-5.76-4.19-8.61-6.33c-0.87-0.65-1.59-0.65-2.46,0c-2.79,2.07-5.61,4.09-8.42,6.14c-0.4,0.29-0.81,0.59-1.35,0.98
				c-2.47-1.07-4.11-3-5.56-5.35c1.02-1.01,2.24-1.54,3.35-2.21c1.14-0.68,2.31-1.3,3.48-1.92c1.16-0.61,2.34-1.17,3.54-1.77
				c-1.21-1.29-6.98-4.14-13.91-6.84c-4.82-1.88-9.79-3.25-14.85-4.48c0.41,0,0.83-0.05,1.24,0.01c8.31,1.09,16.49,2.79,24.46,5.4
				c2.78,0.91,5.53,1.89,8.28,2.89c0.65,0.24,1.21,0.24,1.84-0.01c8.11-3.18,16.45-5.57,25.02-7.1c2.65-0.47,5.33-0.82,7.99-1.21
				C465.93,90.44,466.29,90.48,466.65,90.48z"/>
			<path class="st0" d="M442.89,78.75c-1.23,0.07-2.05,0.29-2.76,0.97c-0.59,0.57-1.27,1.04-1.96,1.49
				c-0.39,0.26-0.87,0.36-1.19-0.43c0.49-0.4,1.02-0.84,1.65-1.36c-0.88-0.26-1.54-0.13-2.18,0.32c-0.79,0.55-1.58,1.09-2.4,1.59
				c-0.41,0.25-0.87,0.58-1.42,0.08c0.05-1.29,1.56-0.85,2.06-1.73c-1.81-0.56-3.78-0.34-5.56-1.29c0.25-0.1,0.5-0.29,0.75-0.29
				c1.1,0.01,2.19,0.07,3.29,0.12c0.58,0.03,1.16,0.08,1.91,0.14c-0.76-1.06-2.05-0.94-2.7-1.81c0.18-0.73,0.71-0.73,1.17-0.5
				c1.02,0.5,2,1.08,2.99,1.65c0.23,0.13,0.42,0.34,0.67,0.55c0.79-0.08,1.59-0.15,2.49-0.24c-0.87-1.18-2.38-1.2-3.34-2.06
				c0.53-0.79,1.1-0.65,1.59-0.44c0.84,0.36,1.64,0.81,2.44,1.25c0.4,0.22,0.77,0.48,1.19,0.75c0.57-0.19,1.12-0.38,1.77-0.6
				c-0.75-1.17-2.31-1.05-3-2.11c0.54-0.77,1.14-0.53,1.66-0.28c0.94,0.45,1.85,0.99,2.91,1.57c0.53-0.3,1.14-0.66,2.02-1.17
				c-2.54-1.16-4.91-1.82-7.37-2.26c-2.45-0.44-4.87-0.17-7.32,0.2c-0.23-1.12,0.3-1.75,0.93-2.28c0.97-0.82,2.1-1.29,3.39-1.29
				c0.73,0,1.46,0.05,2.19,0.03c0.49-0.01,0.97-0.1,1.34-0.14c0.5-0.68,0.24-1.2-0.01-1.68c-0.57-1.08-1.44-1.88-2.49-2.48
				c-2.57-1.45-5.36-2.1-8.27-2.2c-3.3-0.11-6.57,0.26-9.79,1c-0.5,0.12-1.03,0.13-1.63,0.2c0.03-0.8,0.5-1.05,0.92-1.29
				c3-1.65,6.19-2.78,9.62-3c3.84-0.25,7.67-0.03,11.46,0.79c4.59,0.99,8.52,3.26,12.01,6.32c1.49,1.31,3.04,2.49,4.9,3.22
				c1.32,0.52,2.63,1.08,4.11,0.7c0.12-0.03,0.27,0.02,0.4,0.06c0.08,0.03,0.14,0.11,0.23,0.18c0.22,0.66-0.22,1.03-0.68,1.32
				c-3.36,2.11-6.91,3.59-11,2.99c-0.55-0.08-0.97,0.06-1.4,0.36c-0.78,0.55-1.61,1.05-2.39,1.6c-0.4,0.29-0.75,0.65-1.12,0.98
				c-0.92,0.82-1.8,1.68-2.76,2.45c-0.43,0.34-1,0.51-1.39-0.35C441.41,79.88,442.04,79.4,442.89,78.75z"/>
			<path class="st0" d="M445.5,81.61c-0.11,0.78-0.57,1.03-1,1.25c-3.32,1.73-6.78,2.95-10.58,3.01c-3.25,0.05-6.49-0.03-9.69-0.63
				c-4.72-0.88-8.74-3.14-12.37-6.19c-1.47-1.23-2.86-2.55-4.67-3.31c-1.57-0.66-3.11-1.33-4.88-0.95c-0.15,0.03-0.34-0.08-0.5-0.12
				c-0.26-0.66,0.13-1.05,0.54-1.3c3.18-1.98,6.5-3.59,10.41-3.21c0.64,0.06,1.29,0.11,1.9,0.29c0.8,0.23,1.36-0.09,2.03-0.48
				c1.6-0.94,2.93-2.15,4.21-3.47c0.41-0.42,0.9-0.78,1.4-1.09c0.38-0.24,0.85-0.38,1.24,0.15c-0.18,0.92-1.33,0.89-1.7,1.74
				c1.02-0.09,1.89-0.27,2.61-1.03c0.49-0.53,1.1-0.96,1.71-1.36c0.38-0.25,0.84-0.43,1.23,0.15c-0.01,0.89-1.09,0.85-1.45,1.6
				c0.74,0.26,1.36,0.18,2-0.27c0.78-0.56,1.59-1.08,2.42-1.55c0.45-0.25,1.01-0.52,1.48,0.16c-0.36,1.08-1.7,0.79-2.3,1.7
				c1.96,0.34,3.97,0.23,6.16,1.04c-0.56,0.27-0.81,0.49-1.07,0.5c-0.77,0.01-1.55-0.06-2.32-0.1c-0.9-0.05-1.8-0.1-2.81-0.16
				c0.57,1.18,2.24,0.73,2.47,2.01c-0.39,0.6-0.87,0.42-1.26,0.22c-0.81-0.41-1.62-0.85-2.38-1.35c-1.51-1-1.52-1.03-3.58-0.36
				c1.13,0.59,2.13,1.11,3.14,1.65c0.11,0.62-0.22,0.88-0.77,0.77c-0.53-0.1-1.05-0.31-1.54-0.55c-0.57-0.28-1.13-0.61-1.64-0.99
				c-0.89-0.67-1.75-0.65-2.7,0.01c0.52,1.21,2.13,0.92,2.77,1.95c-0.34,0.64-0.86,0.57-1.32,0.4c-0.59-0.22-1.16-0.54-1.72-0.84
				c-0.44-0.24-0.85-0.53-1.36-0.86c-0.57,0.32-1.14,0.64-1.99,1.12c4.56,1.89,8.92,2.53,13.5,1.52c0.27,1.18-0.33,1.84-0.99,2.37
				c-1.17,0.95-2.53,1.42-4.08,1.28c-0.94-0.08-1.9-0.27-2.83,0.13c-0.41,0.72-0.18,1.34,0.21,1.94c0.69,1.06,1.61,1.87,2.74,2.42
				c2.45,1.2,5.03,1.89,7.78,1.94c3.35,0.06,6.66-0.2,9.93-1C444.36,81.62,444.9,81.66,445.5,81.61z"/>
		</g>
	</g>
	<g>
		<g>
			<path class="st0" d="M265.8,41.21c0.07,1.07-0.32,1.9-1.15,2.47c-0.75,0.52-1.74,0.78-3.01,0.78c-1.49,0-2.62-0.42-3.38-1.25
				c-0.68-0.73-1.02-1.73-1.02-2.98c0-1.02,0.22-2.06,0.68-3.15l1.84-1.12c-0.66,1.47-1,2.79-1,3.96c0,1.95,1,3.1,2.88,3.08
				c0.81,0,1.39-0.07,1.74-0.22c0.68-0.25,1.05-0.78,1.12-1.57c-1.05-0.08-1.74-0.51-2.08-1.29l0.75-1.52
				c0.42,1.07,0.86,1.42,1.95,1.42h0.69v1.39H265.8z M261.35,46.67c0,0.47-0.39,0.88-0.88,0.88c-0.47,0-0.88-0.41-0.88-0.88
				c0-0.46,0.41-0.86,0.88-0.86C260.96,45.81,261.35,46.22,261.35,46.67z M263.63,46.67c0,0.47-0.41,0.88-0.88,0.88
				c-0.49,0-0.88-0.41-0.88-0.88c0-0.46,0.39-0.86,0.88-0.86C263.23,45.81,263.63,46.22,263.63,46.67z"/>
			<path class="st0" d="M272.59,41.21h-1.02c-1,0-1.78-0.3-2.35-0.9c-0.58,0.59-1.37,0.9-2.4,0.9h-1.22v-1.39h1.12
				c1.13,0,1.69-0.58,1.69-1.73v-4.04l1.59-0.47v4.57c0,1.12,0.56,1.68,1.68,1.68h0.91V41.21z M270.03,31.19
				c0,0.47-0.41,0.88-0.88,0.88s-0.88-0.41-0.88-0.88s0.41-0.86,0.88-0.86S270.03,30.72,270.03,31.19z"/>
			<path class="st0" d="M284.8,41.21h-12.69v-1.42h2.08v-8.7l1.61-0.49v5.79c1.1-1.78,2.62-2.67,4.6-2.72
				c1.64-0.05,2.89,0.61,3.72,1.95c0.49,0.83,0.74,1.93,0.74,3.27c0,0.25-0.02,0.64-0.03,1.17C284.82,40.57,284.8,40.95,284.8,41.21
				z M283.3,39.79c0.02-0.25,0.03-0.51,0.03-0.76c0-1.07-0.22-1.98-0.66-2.77c-0.51-0.69-1.23-1.08-2.17-1.13
				c-1.13-0.05-2.2,0.51-3.18,1.64c-0.81,0.93-1.34,1.95-1.59,3.03L283.3,39.79L283.3,39.79z"/>
			<path class="st0" d="M294.74,41.21h-2c-0.15,0.93-0.51,1.68-1.1,2.27c-0.64,0.66-1.46,0.98-2.45,0.98
				c-0.86,0-1.52-0.15-1.98-0.44l-0.71-1.56c0.95,0.42,1.83,0.63,2.66,0.59c1.07-0.02,1.84-0.85,1.98-1.84h-1.32
				c-1.13-0.02-2.01-0.36-2.62-1.02c-0.58-0.61-0.86-1.42-0.86-2.44c0-1.12,0.25-2.01,0.75-2.71c0.59-0.83,1.47-1.25,2.62-1.25
				c2.15,0,3.23,1.32,3.23,3.96c0,0.52-0.02,1.22-0.03,2.06h1.84v1.4H294.74z M291.32,37.76c0-0.8-0.07-1.35-0.22-1.71
				c-0.24-0.56-0.71-0.85-1.41-0.85c-1.17,0-1.76,0.85-1.76,2.56c0,1.37,0.63,2.06,1.88,2.06h1.49L291.32,37.76z"/>
			<path class="st0" d="M298.6,38.21c0,0.86-0.29,1.57-0.86,2.15c-0.58,0.56-1.35,0.85-2.32,0.85h-1.08v-1.42h1
				c1.1,0,1.66-0.58,1.66-1.73V30.8l1.61-0.47v7.88H298.6z"/>
			<path class="st0" d="M301.66,41.21h-1.61V30.8l1.61-0.51V41.21z"/>
			<path class="st0" d="M313.37,41.21h-2.4c-0.22,1.96-1.61,3.25-3.79,3.25c-0.73,0-1.32-0.15-1.81-0.46l-0.76-1.59
				c0.76,0.42,1.61,0.64,2.57,0.64c1.37,0,2.2-0.88,2.2-2.3v-6.7l1.61-0.47v6.21h2.39v1.42H313.37z M310.93,31.19
				c0,0.47-0.39,0.88-0.86,0.88s-0.88-0.41-0.88-0.88c0-0.49,0.41-0.9,0.88-0.9S310.93,30.7,310.93,31.19z"/>
			<path class="st0" d="M322.56,41.21h-9.59v-1.39h7.95c0.02-0.86-0.02-1.49-0.07-1.84c-0.12-0.69-0.39-1.25-0.81-1.64
				c-0.58-0.54-1.34-0.81-2.27-0.81c-1.22,0-2.2,0.44-2.96,1.32l-1.1-1.03l5.26-5.48h2.1l-3.66,3.84c0.25-0.03,0.49-0.05,0.75-0.05
				c1.17,0,2.15,0.36,2.94,1.07c0.79,0.69,1.27,1.62,1.4,2.79C322.54,38.21,322.56,39.3,322.56,41.21z"/>
			<path class="st0" d="M331.53,41.21h-2.4c-0.22,1.96-1.61,3.25-3.79,3.25c-0.73,0-1.32-0.15-1.81-0.46l-0.76-1.59
				c0.76,0.42,1.61,0.64,2.57,0.64c1.37,0,2.2-0.88,2.2-2.3v-6.7l1.61-0.47v6.21h2.39v1.42H331.53z"/>
			<path class="st0" d="M342.73,41.21h-0.22c-1,0-1.78-0.36-2.32-1.07c-0.41,1.42-1.66,2.25-3.28,2.25c-1.54,0-2.78-0.74-3.23-2.03
				c-0.49,0.56-1.18,0.85-2.1,0.85h-0.54v-1.42h0.44c1.2,0,1.88-0.54,2.01-1.62c0.29-1.98,1.42-2.96,3.42-2.96
				c1.1,0,1.91,0.25,2.45,0.76c0.49,0.46,0.79,1.2,0.95,2.2c0.19,1.1,0.88,1.66,2.08,1.66l0.34-0.03V41.21z M338.68,38.79
				c0-1.51-0.59-2.25-1.78-2.25c-1.2,0-1.79,0.74-1.79,2.25s0.59,2.25,1.79,2.25C338.09,41.04,338.68,40.29,338.68,38.79z"/>
			<path class="st0" d="M346.64,38.21c0,0.86-0.29,1.57-0.86,2.15c-0.58,0.56-1.35,0.85-2.32,0.85h-1.08v-1.42h1
				c1.1,0,1.66-0.58,1.66-1.73V30.8l1.61-0.47v7.88H346.64z"/>
			<path class="st0" d="M349.7,41.21h-1.61V30.8l1.61-0.51V41.21z"/>
			<path class="st0" d="M106.78,61.51h-2.4c-0.22,1.96-1.61,3.25-3.79,3.25c-0.73,0-1.32-0.15-1.81-0.46l-0.76-1.59
				c0.76,0.42,1.61,0.64,2.57,0.64c1.37,0,2.2-0.88,2.2-2.3v-6.7l1.61-0.47v6.21h2.39L106.78,61.51L106.78,61.51z"/>
			<path class="st0" d="M117.72,61.51h-11.34v-1.39h7.6v-0.61c0-1.29-0.12-2.22-0.36-2.79c-0.37-0.95-1.12-1.42-2.23-1.42
				c-0.93,0-1.78,0.44-2.57,1.3l-1.15-1.07c1.13-1.1,2.37-1.66,3.72-1.66c1.71,0,2.89,0.63,3.55,1.86c0.46,0.86,0.68,2.13,0.68,3.77
				v0.58h2.1V61.51z"/>
			<path class="st0" d="M132.37,61.51h-15.03v-1.42h2v-4.28l1.61-0.46v3.49c0.22-0.85,0.59-1.64,1.08-2.37
				c1.07-1.62,2.54-2.45,4.42-2.5c1.64-0.05,2.89,0.61,3.72,1.95c0.58,0.96,0.83,2.35,0.76,4.18h1.44V61.51z M129.31,60.09
				c0.03-0.27,0.05-0.54,0.05-0.83c0-1.05-0.2-1.91-0.63-2.61c-0.52-0.81-1.27-1.22-2.25-1.22c-1.2,0-2.28,0.58-3.28,1.73
				c-0.9,1-1.37,1.96-1.44,2.93C121.76,60.09,129.31,60.09,129.31,60.09z"/>
			<path class="st0" d="M139,61.51h-1.02c-1,0-1.78-0.3-2.35-0.9c-0.58,0.59-1.37,0.9-2.4,0.9h-1.22v-1.39h1.12
				c1.13,0,1.69-0.58,1.69-1.73v-4.04l1.59-0.47v4.57c0,1.12,0.56,1.68,1.68,1.68H139V61.51z M135.3,51.5
				c0,0.47-0.41,0.88-0.88,0.88c-0.49,0-0.86-0.41-0.86-0.88s0.37-0.86,0.86-0.86C134.89,50.63,135.3,51.02,135.3,51.5z
				 M137.56,51.5c0,0.47-0.41,0.88-0.88,0.88c-0.46,0-0.86-0.41-0.86-0.88s0.41-0.86,0.86-0.86
				C137.16,50.63,137.56,51.02,137.56,51.5z"/>
			<path class="st0" d="M142.86,58.52c0,0.86-0.29,1.57-0.86,2.15c-0.58,0.56-1.35,0.85-2.32,0.85h-1.08V60.1h1
				c1.1,0,1.66-0.58,1.66-1.73v-7.26l1.61-0.47L142.86,58.52L142.86,58.52z"/>
			<path class="st0" d="M145.92,61.51h-1.61v-10.4l1.61-0.51V61.51z"/>
			<path class="st0" d="M159.46,61.51h-1.1c-1.32,0-2.17-0.39-2.52-1.18c-0.39,0.8-1.22,1.18-2.49,1.18c-2.15,0-3.23-1.29-3.23-3.88
				c0-2.5,1.08-3.76,3.23-3.76h3.44v4.52c0,1.15,0.56,1.73,1.66,1.73h1.02L159.46,61.51L159.46,61.51z M155.18,55.19h-1.73
				c-0.66,0-1.13,0.22-1.39,0.66c-0.22,0.36-0.34,0.96-0.34,1.79s0.12,1.44,0.34,1.81c0.25,0.46,0.73,0.68,1.39,0.68
				s1.13-0.22,1.39-0.68c0.22-0.37,0.34-0.98,0.34-1.81V55.19z M153.71,51.5c0,0.47-0.41,0.88-0.9,0.88c-0.47,0-0.88-0.41-0.88-0.88
				s0.41-0.86,0.88-0.86C153.3,50.63,153.71,51.02,153.71,51.5z M155.98,51.5c0,0.47-0.41,0.88-0.88,0.88s-0.86-0.41-0.86-0.88
				s0.39-0.86,0.86-0.86S155.98,51.02,155.98,51.5z"/>
			<path class="st0" d="M170.39,61.51h-11.34v-1.39h7.6v-0.61c0-1.29-0.12-2.22-0.36-2.79c-0.37-0.95-1.12-1.42-2.23-1.42
				c-0.93,0-1.78,0.44-2.57,1.3l-1.15-1.07c1.13-1.1,2.37-1.66,3.72-1.66c1.71,0,2.89,0.63,3.55,1.86c0.46,0.86,0.68,2.13,0.68,3.77
				v0.58h2.1L170.39,61.51L170.39,61.51z"/>
			<path class="st0" d="M177.94,58.86c0,1-0.3,1.71-0.9,2.13c-0.47,0.35-1.22,0.52-2.23,0.52h-4.82v-1.42h4.62
				c0.59,0,1-0.03,1.18-0.1c0.36-0.15,0.54-0.49,0.54-1.02h-2.28c-1.08,0-1.83-0.24-2.25-0.73c-0.35-0.41-0.54-1.07-0.54-1.98
				c0-1.64,1.25-2.71,3.28-2.71c1.13,0,2.01,0.29,2.61,0.86c0.52,0.49,0.8,1.1,0.8,1.84L177.94,58.86L177.94,58.86z M176.33,56.32
				c0-0.9-0.59-1.34-1.79-1.34c-1.13,0-1.69,0.44-1.69,1.34c0,0.59,0.08,0.95,0.25,1.1c0.17,0.14,0.59,0.2,1.27,0.2h1.96
				L176.33,56.32L176.33,56.32z M175.42,51.5c0,0.47-0.41,0.88-0.88,0.88s-0.88-0.41-0.88-0.88s0.41-0.86,0.88-0.86
				C175.01,50.63,175.42,51.02,175.42,51.5z"/>
			<path class="st0" d="M183.41,61.51h-1.79c-1.44,0-2.23-0.88-2.23-2.18v-8.22L181,50.6v8.68c0,0.54,0.27,0.81,0.83,0.81h1.59v1.42
				H183.41z"/>
			<path class="st0" d="M194.66,61.51h-11.68v-1.39h7.95c0.02-0.86-0.02-1.49-0.07-1.84c-0.12-0.69-0.39-1.25-0.81-1.64
				c-0.58-0.54-1.34-0.81-2.27-0.81c-1.22,0-2.2,0.44-2.96,1.32l-1.1-1.03l5.26-5.48h2.1l-3.65,3.84c0.25-0.03,0.49-0.05,0.74-0.05
				c1.27,0,2.3,0.39,3.1,1.18c0.76,0.78,1.2,1.79,1.3,3.05c0.02,0.36,0.03,0.83,0.02,1.44h2.06L194.66,61.51L194.66,61.51z"/>
			<path class="st0" d="M203.1,57.89c0,1.02-0.24,1.84-0.69,2.47c-0.56,0.76-1.42,1.15-2.57,1.15c-0.98,0-1.76-0.3-2.35-0.9
				c-0.54,0.59-1.37,0.9-2.49,0.9h-0.76v-1.39h0.66c1.1,0,1.66-0.56,1.66-1.69v-0.54c0-1.03,0.24-1.86,0.69-2.5
				c0.56-0.76,1.42-1.13,2.59-1.13c1.15,0,2.01,0.37,2.57,1.13C202.87,56.03,203.1,56.86,203.1,57.89z M201.5,57.89
				c0-1.51-0.56-2.27-1.66-2.27c-1.12,0-1.68,0.76-1.68,2.27c0,1.51,0.56,2.25,1.68,2.25C200.94,60.14,201.5,59.4,201.5,57.89z"/>
			<path class="st0" d="M211.08,60.85c-0.02,1.17-0.3,2.08-0.9,2.76c-0.63,0.76-1.54,1.15-2.74,1.15c-0.85,0-1.51-0.15-1.98-0.44
				l-0.71-1.56c0.96,0.46,1.86,0.64,2.69,0.59c1.22-0.07,1.9-0.74,2.03-2.01c-0.49,0.27-1.02,0.41-1.61,0.41
				c-1.17,0-2.05-0.41-2.61-1.22c-0.46-0.66-0.69-1.51-0.69-2.57c0-1.07,0.24-1.93,0.69-2.59c0.56-0.8,1.44-1.2,2.61-1.2
				c1.29,0,2.2,0.46,2.72,1.39c0.37,0.69,0.56,1.69,0.56,3c0,0.32,0,0.74-0.02,1.24C211.09,60.33,211.08,60.69,211.08,60.85z
				 M209.55,57.96c0-1.61-0.56-2.4-1.69-2.4s-1.71,0.8-1.71,2.4c0,1.59,0.58,2.39,1.71,2.39S209.55,59.55,209.55,57.96z"/>
			<path class="st0" d="M223.9,61.51c0.07,1.07-0.32,1.9-1.15,2.47c-0.74,0.52-1.74,0.78-3.01,0.78c-1.49,0-2.62-0.42-3.38-1.25
				c-0.68-0.73-1.02-1.73-1.02-2.98c0-1.02,0.22-2.06,0.68-3.15l1.84-1.12c-0.66,1.47-1,2.79-1,3.96c0,1.95,1,3.1,2.88,3.08
				c0.81,0,1.39-0.07,1.74-0.22c0.68-0.25,1.05-0.78,1.12-1.57c-1.05-0.08-1.74-0.51-2.08-1.29l0.74-1.52
				c0.42,1.07,0.86,1.42,1.95,1.42h0.69V61.51z M219.45,66.98c0,0.47-0.39,0.88-0.88,0.88c-0.47,0-0.88-0.41-0.88-0.88
				c0-0.46,0.41-0.86,0.88-0.86C219.06,66.12,219.45,66.52,219.45,66.98z M221.74,66.98c0,0.47-0.41,0.88-0.88,0.88
				c-0.49,0-0.88-0.41-0.88-0.88c0-0.46,0.39-0.86,0.88-0.86C221.33,66.12,221.74,66.52,221.74,66.98z"/>
			<path class="st0" d="M228.18,58.52c0,0.86-0.29,1.59-0.86,2.15c-0.58,0.56-1.35,0.85-2.32,0.85h-1.3v-1.39h1.22
				c1.12,0,1.68-0.58,1.68-1.73v-4.04l1.59-0.47L228.18,58.52L228.18,58.52z M226.02,51.5c0,0.47-0.39,0.88-0.86,0.88
				s-0.88-0.41-0.88-0.88s0.41-0.86,0.88-0.86C225.63,50.63,226.02,51.02,226.02,51.5z M228.3,51.5c0,0.47-0.39,0.88-0.88,0.88
				c-0.47,0-0.88-0.41-0.88-0.88s0.41-0.86,0.88-0.86C227.91,50.63,228.3,51.02,228.3,51.5z"/>
			<path class="st0" d="M233.67,61.51h-1.79c-1.44,0-2.23-0.88-2.23-2.18v-8.22l1.61-0.51v8.68c0,0.54,0.27,0.81,0.83,0.81h1.59
				v1.42H233.67z"/>
			<path class="st0" d="M240.23,61.51h-1.02c-1,0-1.78-0.3-2.35-0.9c-0.58,0.59-1.37,0.9-2.4,0.9h-1.22v-1.39h1.12
				c1.13,0,1.69-0.58,1.69-1.73v-4.04l1.59-0.47v4.57c0,1.12,0.56,1.68,1.68,1.68h0.91L240.23,61.51L240.23,61.51z M237.81,63.9
				c0,0.47-0.39,0.88-0.86,0.88s-0.88-0.41-0.88-0.88c0-0.46,0.41-0.86,0.88-0.86C237.42,63.04,237.81,63.44,237.81,63.9z"/>
			<path class="st0" d="M246.81,61.51h-1.02c-1,0-1.78-0.3-2.35-0.9c-0.58,0.59-1.37,0.9-2.4,0.9h-1.22v-1.39h1.12
				c1.13,0,1.69-0.58,1.69-1.73v-4.04l1.59-0.47v4.57c0,1.12,0.56,1.68,1.68,1.68h0.91L246.81,61.51L246.81,61.51z M244.26,51.5
				c0,0.47-0.41,0.88-0.88,0.88s-0.88-0.41-0.88-0.88s0.41-0.86,0.88-0.86S244.26,51.02,244.26,51.5z"/>
			<path class="st0" d="M250.67,58.52c0,0.86-0.29,1.57-0.86,2.15c-0.58,0.56-1.35,0.85-2.32,0.85h-1.08V60.1h1
				c1.1,0,1.66-0.58,1.66-1.73v-7.26l1.61-0.47L250.67,58.52L250.67,58.52z"/>
			<path class="st0" d="M253.74,61.51h-1.61v-10.4l1.61-0.51V61.51z"/>
			<path class="st0" d="M265.72,61.51h-7.94l1.22-1.44h1.17v-0.46c0-0.95,0.27-1.73,0.8-2.33c0.56-0.68,1.32-1.02,2.28-1.02
				c0.8,0,1.54,0.35,2.2,1.07l-1.08,1.07c-0.36-0.46-0.78-0.69-1.29-0.69c-0.83,0-1.4,0.69-1.4,1.66v0.71h4.04L265.72,61.51
				L265.72,61.51z"/>
			<path class="st0" d="M271.5,61.51h-1.79c-1.44,0-2.23-0.88-2.23-2.18v-8.22l1.61-0.51v8.68c0,0.54,0.27,0.81,0.83,0.81h1.59
				L271.5,61.51L271.5,61.51z"/>
			<path class="st0" d="M285.41,61.51h-14.4v-1.42h2.08v-8.7l1.61-0.49v5.79c1.08-1.78,2.62-2.67,4.6-2.72
				c1.64-0.05,2.88,0.61,3.69,1.95c0.58,0.91,0.83,2.3,0.76,4.18h1.66V61.51z M282.16,60.09c0.05-0.25,0.07-0.51,0.07-0.76
				c0-1.07-0.22-1.98-0.66-2.77c-0.51-0.69-1.23-1.08-2.2-1.13c-1.13-0.05-2.18,0.51-3.15,1.64c-0.83,0.93-1.35,1.95-1.59,3.03
				L282.16,60.09L282.16,60.09z"/>
			<path class="st0" d="M294.38,61.51H285v-1.42h1.93V57.2c0-0.95,0.3-1.74,0.9-2.37c0.61-0.63,1.46-0.95,2.52-0.95
				c0.91,0,1.71,0.34,2.39,1l-1.18,1.08c-0.41-0.49-0.86-0.73-1.39-0.73c-0.96,0-1.62,0.73-1.62,1.69v3.16h5.84L294.38,61.51
				L294.38,61.51z M291.1,51.5c0,0.47-0.41,0.88-0.88,0.88c-0.46,0-0.86-0.41-0.86-0.88c0-0.49,0.41-0.9,0.86-0.9
				C290.69,50.6,291.1,51.01,291.1,51.5z"/>
			<path class="st0" d="M298.24,58.52c0,0.86-0.29,1.57-0.86,2.15c-0.58,0.56-1.35,0.85-2.32,0.85h-1.08V60.1h1
				c1.1,0,1.66-0.58,1.66-1.73v-7.26l1.61-0.47v7.88H298.24z"/>
			<path class="st0" d="M301.3,61.51h-1.61v-10.4l1.61-0.51V61.51z"/>
			<path class="st0" d="M314.84,61.51h-1.1c-1.32,0-2.17-0.39-2.52-1.18c-0.39,0.8-1.22,1.18-2.49,1.18c-2.15,0-3.23-1.29-3.23-3.88
				c0-2.5,1.08-3.76,3.23-3.76h3.43v4.52c0,1.15,0.56,1.73,1.66,1.73h1.01L314.84,61.51L314.84,61.51z M310.56,55.19h-1.73
				c-0.66,0-1.13,0.22-1.39,0.66c-0.22,0.36-0.34,0.96-0.34,1.79s0.12,1.44,0.34,1.81c0.25,0.46,0.73,0.68,1.39,0.68
				s1.13-0.22,1.39-0.68c0.22-0.37,0.34-0.98,0.34-1.81V55.19z M309.09,51.5c0,0.47-0.41,0.88-0.9,0.88c-0.47,0-0.88-0.41-0.88-0.88
				s0.41-0.86,0.88-0.86C308.68,50.63,309.09,51.02,309.09,51.5z M311.36,51.5c0,0.47-0.41,0.88-0.88,0.88s-0.86-0.41-0.86-0.88
				s0.39-0.86,0.86-0.86C310.95,50.63,311.36,51.02,311.36,51.5z"/>
			<path class="st0" d="M321.42,61.51h-1.02c-1,0-1.78-0.3-2.35-0.9c-0.58,0.59-1.37,0.9-2.4,0.9h-1.22v-1.39h1.12
				c1.13,0,1.69-0.58,1.69-1.73v-4.04l1.59-0.47v4.57c0,1.12,0.56,1.68,1.68,1.68h0.91V61.51z M317.8,63.88
				c0,0.47-0.41,0.88-0.88,0.88c-0.49,0-0.86-0.41-0.86-0.88s0.37-0.86,0.86-0.86C317.4,63.02,317.8,63.41,317.8,63.88z
				 M320.07,63.88c0,0.47-0.41,0.88-0.88,0.88s-0.86-0.41-0.86-0.88s0.39-0.86,0.86-0.86S320.07,63.41,320.07,63.88z"/>
			<path class="st0" d="M332.63,61.51h-0.22c-1,0-1.78-0.36-2.32-1.07c-0.41,1.42-1.66,2.25-3.28,2.25c-1.54,0-2.78-0.74-3.23-2.03
				c-0.49,0.56-1.18,0.85-2.1,0.85h-0.54v-1.42h0.44c1.2,0,1.88-0.54,2.01-1.62c0.29-1.98,1.42-2.96,3.42-2.96
				c1.1,0,1.91,0.25,2.45,0.76c0.49,0.46,0.79,1.2,0.95,2.2c0.19,1.1,0.88,1.66,2.08,1.66l0.34-0.03V61.51z M328.58,59.09
				c0-1.51-0.59-2.25-1.78-2.25c-1.2,0-1.79,0.74-1.79,2.25s0.59,2.25,1.79,2.25C327.99,61.35,328.58,60.6,328.58,59.09z"/>
			<path class="st0" d="M339.26,61.51h-1.02c-1,0-1.78-0.3-2.35-0.9c-0.58,0.59-1.37,0.9-2.4,0.9h-1.22v-1.39h1.12
				c1.13,0,1.69-0.58,1.69-1.73v-4.04l1.59-0.47v4.57c0,1.12,0.56,1.68,1.68,1.68h0.91V61.51z M336.7,51.5
				c0,0.47-0.41,0.88-0.88,0.88s-0.88-0.41-0.88-0.88s0.41-0.86,0.88-0.86S336.7,51.02,336.7,51.5z"/>
			<path class="st0" d="M345.84,61.51h-1.02c-1,0-1.78-0.3-2.35-0.9c-0.58,0.59-1.37,0.9-2.4,0.9h-1.22v-1.39h1.12
				c1.13,0,1.69-0.58,1.69-1.73v-4.04l1.59-0.47v4.57c0,1.12,0.56,1.68,1.68,1.68h0.91V61.51z M342.14,51.5
				c0,0.47-0.41,0.88-0.88,0.88c-0.49,0-0.86-0.41-0.86-0.88s0.37-0.86,0.86-0.86C341.73,50.63,342.14,51.02,342.14,51.5z
				 M344.41,51.5c0,0.47-0.41,0.88-0.88,0.88c-0.46,0-0.86-0.41-0.86-0.88s0.41-0.86,0.86-0.86C344,50.63,344.41,51.02,344.41,51.5z
				"/>
			<path class="st0" d="M349.7,58.52c0,0.86-0.29,1.57-0.86,2.15c-0.58,0.56-1.35,0.85-2.32,0.85h-1.08V60.1h1
				c1.1,0,1.66-0.58,1.66-1.73v-7.26l1.61-0.47v7.88H349.7z"/>
		</g>
	</g>
	<polygon class="st0" points="350.33,90.22 4.8,88.72 350.33,87.22 	"/>
	<g>
		<g>
			<path class="st0" d="M345.11,99.59c0.48-0.07,1.02-0.16,1.69-0.26c0.06,0.44,0.13,0.78,0.13,1.12c0.01,2.41,0.02,4.82,0,7.23
				c-0.01,1.56-0.86,2.38-2.43,2.51c-1.32,0.11-2.54-0.11-3.66-1.02c-0.82,0.87-1.64,1.63-2.89,1.68c-1.22,0.05-2.19-0.46-3.05-1.25
				c-1.69,0.89-3.26,0.78-4.76-0.4c-0.82,0.85-1.66,1.57-2.89,1.65s-2.2-0.39-3.05-1.29c-1.65,0.88-3.18,0.87-4.54-0.5
				c-0.47,0.29-0.88,0.67-1.36,0.81c-0.63,0.2-1.32,0.29-1.98,0.3c-3.51,0.03-7.02,0.01-10.53,0.01c-0.35,0-0.71-0.01-1.06-0.07
				c-1.09-0.17-1.25-0.28-1.92-1.22c-0.2,0.19-0.39,0.39-0.6,0.57c-0.98,0.84-2.32,0.86-3.32,0.06c-1.85-1.46-2.1-4.46-0.49-6.18
				c0.87-0.92,1.96-1.25,3.21-0.9c0.44,0.12,0.85,0.33,1.29,0.51c0.32-0.14,0.64-0.28,1.14-0.5c0.05,0.56,0.11,0.93,0.11,1.3
				c0.01,1.38-0.01,2.77,0.01,4.15c0.01,1.21,0.24,1.44,1.43,1.45c1.63,0.02,3.26,0.01,4.89,0c0.31,0,0.61-0.07,1.05-0.12
				c0.01-1.4,0.24-2.72-0.31-4.02c-0.44-1.03-1.2-1.54-2.3-1.58c-0.44-0.02-0.89-0.03-1.5-0.05c0.63-0.87,1.57-0.65,2.16-1.13
				c0.57-0.47,1.19-0.89,1.71-1.42c0.54-0.55,0.98-1.19,1.54-1.89c0.29,0.42,0.6,0.86,0.96,1.37c-0.86,1.41-2.32,1.85-3.7,2.52
				c0.55,0.31,1.05,0.56,1.51,0.86c0.98,0.65,1.53,1.54,1.51,2.76c-0.01,0.84,0.02,1.68,0.04,2.6c0.47,0.04,0.81,0.08,1.15,0.1
				c0.63,0.05,1.27,0.07,1.9,0.13c1.12,0.1,1.72-0.35,1.74-1.47c0.03-2.41,0.03-4.82,0-7.23c0-0.36-0.21-0.72-0.34-1.16
				c0.53-0.08,1.07-0.17,1.74-0.28c0.05,0.52,0.13,0.93,0.13,1.33c0.01,1.81-0.01,3.62,0.02,5.42c0.01,0.59,0.09,1.21,0.26,1.78
				c0.34,1.15,1.4,1.8,2.56,1.55c0.34-0.07,0.71-0.36,0.9-0.66c0.28-0.44,0.44-0.96,0.62-1.46c0.12-0.33,0.18-0.69,0.27-1.03
				c0.68-2.54,2.24-2.68,3.93-2.4c1.23,0.21,1.88,1.2,2.22,2.35c0.13,0.43,0.15,0.9,0.18,1.36c0.05,0.93,0.61,1.59,1.52,1.76
				c0.21,0.04,0.42,0.06,0.63,0.09c0.8,0.1,1.28-0.13,1.61-0.89c0.24-0.55,0.38-1.14,0.57-1.71c0.14-0.44,0.27-0.88,0.44-1.31
				c0.86-2.24,3.84-2.06,4.91-0.93c0.68,0.73,0.98,1.61,1.09,2.6c0.06,0.51,0.21,1.03,0.43,1.5c0.12,0.25,0.44,0.54,0.7,0.57
				c0.7,0.08,1.41,0.07,2.11,0.02c0.44-0.03,0.67-0.38,0.72-0.81c0.04-0.32,0.04-0.64,0.04-0.95c0-1.91,0.01-3.83,0-5.74
				C345.22,101.08,345.15,100.38,345.11,99.59z M302.63,106.1c0.05-0.01,0.1-0.01,0.15-0.02c-0.13-0.72-0.2-1.46-0.42-2.16
				c-0.21-0.69-0.77-0.97-1.48-0.94c-0.89,0.04-1.34,0.63-1.56,1.36c-0.41,1.34-0.4,2.71,0.06,4.05c0.05,0.13,0.12,0.26,0.19,0.38
				c0.52,0.79,1.32,0.94,2.09,0.39c0.58-0.42,0.9-0.99,0.97-1.69C302.67,107.02,302.63,106.56,302.63,106.1z M335.47,108.89
				c0.52,0.37,0.97,0.77,1.49,1.03c0.85,0.43,1.57,0.2,2.14-0.57c0.83-1.11,0.78-3.34-0.1-4.41c-0.75-0.92-1.72-0.83-2.3,0.23
				c-0.1,0.19-0.18,0.39-0.24,0.59C336.15,106.74,335.84,107.71,335.47,108.89z M324.78,108.69c0.28,0.32,0.45,0.55,0.65,0.74
				c1.23,1.17,2.86,0.78,3.29-0.85c0.28-1.06,0.25-2.17-0.19-3.22c-0.25-0.58-0.64-1.05-1.33-1.04c-0.67,0-1.13,0.39-1.34,1.02
				C325.49,106.44,325.15,107.55,324.78,108.69z"/>
			<path class="st0" d="M228.95,103.51c0.26-0.06,0.56-0.14,0.87-0.2c0.24-0.04,0.48-0.05,0.84-0.08c0.05,0.34,0.13,0.64,0.14,0.94
				c0.02,0.89,0,1.77,0.01,2.66c0.02,0.84,0.24,1.62,0.87,2.21c0.79,0.74,1.72,0.51,2.09-0.52c0.09-0.26,0.16-0.55,0.16-0.83
				c0.02-1.2,0.03-2.41,0-3.61c-0.01-0.36-0.2-0.72-0.34-1.17c0.54-0.11,1.08-0.21,1.75-0.35c0.05,0.43,0.12,0.77,0.12,1.1
				c0.01,1.06-0.01,2.13,0.01,3.19c0.01,0.38,0.04,0.79,0.16,1.15c0.44,1.31,1.51,1.52,2.65,1.33c0.42-0.07,0.67-0.38,0.75-0.81
				c0.02-0.1,0.04-0.21,0.04-0.32c0-2.52,0.01-5.03,0-7.55c0-0.3-0.11-0.61-0.19-1c0.57-0.1,1.11-0.19,1.77-0.31
				c0.05,0.44,0.13,0.78,0.13,1.12c0.01,2.2,0.01,4.39,0,6.59c0,0.11,0.01,0.21-0.01,0.32c-0.13,0.99-0.17,2.02-1.28,2.5
				c-1.23,0.52-2.42,0.43-3.53-0.35c-0.2-0.14-0.38-0.32-0.62-0.52c-0.66,0.62-1.38,1.12-2.3,1.17c-0.97,0.06-1.66-0.5-2.36-1.16
				c-1.53,1.46-3.13,1.55-4.8,0.13c-1,1.06-2.28,1.07-3.57,1.05c-0.71-0.01-1.42,0.04-2.13-0.01c-0.95-0.06-1.89-0.28-2.84-0.28
				c-0.94,0-1.88,0.23-2.83,0.27c-0.99,0.05-1.98,0.01-2.98,0c-0.39,0-0.77,0-1.2,0c-0.68,1.08-1.09,2.37-2.42,2.74
				c-0.73,0.2-1.51,0.23-2.27,0.34c-0.03-0.08-0.05-0.16-0.08-0.25c0.38-0.16,0.79-0.29,1.15-0.5c0.42-0.25,0.85-0.53,1.18-0.88
				c0.3-0.32,0.46-0.76,0.79-1.33c-0.56-0.06-0.92-0.09-1.29-0.13c-0.81-0.09-1.61-0.21-2.25-0.81c-1.04-0.97-0.9-2.2-0.65-3.37
				c0.41-1.94,2.06-3.23,4.23-3.44c0.52-0.05,1.05-0.01,1.69-0.01c0.06,0.46,0.14,0.83,0.14,1.2c0.01,1.42,0,2.83,0,4.25
				c0,0.38,0.04,0.76,0.07,1.23c1.95,0.14,3.81,0.65,5.8-0.15c-1-1.67-1.95-3.27-2.95-4.94c0.2-0.17,0.39-0.37,0.62-0.5
				c1.3-0.73,2.71-1.08,4.19-0.88c1.24,0.16,2.2,0.79,2.6,2.05c0.36,1.13-0.1,2.41-1.13,3.2c-0.5,0.38-1.04,0.72-1.73,1.2
				c0.39,0.14,0.63,0.29,0.87,0.29c1.49-0.01,2.97-0.02,4.46-0.09c0.78-0.04,1.14-0.36,1.18-1.11c0.06-1.33,0.2-2.68-0.17-4.14
				c0.5-0.08,1-0.17,1.63-0.28c0.04,0.53,0.07,0.98,0.1,1.42c0.07,0.88,0.11,1.76,0.23,2.63c0.09,0.62,0.48,1.1,1.04,1.4
				c0.72,0.38,1.45,0.11,1.7-0.67c0.11-0.33,0.15-0.69,0.16-1.04c0.02-0.89,0.04-1.77,0-2.66
				C229.24,104.53,229.08,104.1,228.95,103.51z M208.69,109.32c0.28-1.34,0.24-5.2-0.04-6.02c-0.16,0.01-0.34-0.02-0.49,0.03
				c-1.89,0.57-3.07,3.77-1.98,5.42c0.17,0.26,0.53,0.5,0.83,0.55C207.55,109.38,208.12,109.32,208.69,109.32z M217.23,108.49
				c1.82-0.75,2.55-2.49,1.79-3.99c-0.16-0.32-0.47-0.64-0.79-0.8c-0.89-0.45-2.43-0.09-3.21,0.67
				C215.74,105.73,216.47,107.09,217.23,108.49z"/>
			<path class="st0" d="M271.42,102.91c0.58-0.11,1.11-0.21,1.78-0.34c0.25,2.26,0.11,4.42-0.02,6.69c2.09,0.1,4.07,0.63,6.2-0.12
				c-1-1.67-1.98-3.29-2.98-4.97c0.2-0.17,0.36-0.35,0.56-0.46c1.23-0.68,2.53-1.09,3.97-0.96c0.96,0.08,1.78,0.43,2.42,1.17
				c0.8,0.94,0.86,2.39,0.06,3.32c-0.44,0.5-0.98,0.91-1.49,1.35c-0.23,0.2-0.49,0.37-0.92,0.69c0.49,0.11,0.78,0.23,1.07,0.23
				c1.35,0,2.69,0,4.04-0.06c1.1-0.05,1.45-0.42,1.47-1.53c0.03-2.37,0.02-4.75,0-7.12c0-0.34-0.12-0.68-0.22-1.16
				c0.48-0.09,0.98-0.19,1.59-0.31c0.06,0.39,0.15,0.69,0.15,0.99c0.01,2.48,0.02,4.96,0,7.44c-0.01,1.4-0.8,2.35-2.18,2.38
				c-2.15,0.04-4.32,0.31-6.45-0.22c-0.17-0.04-0.37-0.08-0.52-0.03c-1.35,0.48-2.74,0.25-4.11,0.29c-0.91,0.03-1.83,0.01-2.79,0.01
				c-0.73,2.26-2.23,3.18-4.69,2.91c0.37-0.23,0.58-0.4,0.81-0.5c1.53-0.66,2.3-1.93,2.42-3.49c0.14-1.8,0.05-3.61,0.04-5.42
				C271.59,103.48,271.49,103.24,271.42,102.91z M280.24,108.43c1.35-0.56,2.04-1.58,1.98-2.82c-0.07-1.52-0.92-2.24-2.43-2.03
				c-0.42,0.06-0.84,0.14-1.23,0.27c-0.24,0.08-0.44,0.29-0.76,0.51C278.83,105.64,279.16,107.23,280.24,108.43z"/>
			<path class="st0" d="M261.83,109.02c-0.96,1.05-2.18,1.18-3.44,1.17c-0.74,0-1.49,0-2.22-0.1c-1.02-0.14-1.18-0.31-1.68-1.34
				c-0.25,0.25-0.48,0.49-0.74,0.71c-0.97,0.84-2.32,0.86-3.32,0.06c-1.68-1.34-1.94-4.46-0.5-6.05c1.11-1.22,2.45-1.49,3.94-0.79
				c0.22,0.1,0.45,0.21,0.65,0.3c0.56-0.38,0.56-0.38,1.17-0.31c0,1.55-0.01,3.1,0.01,4.65c0,0.42,0.05,0.85,0.13,1.26
				c0.09,0.47,0.4,0.72,0.89,0.75c0.67,0.04,1.34,0.11,2.01,0.15s1.17-0.28,1.39-0.92c0.11-0.33,0.18-0.69,0.18-1.04
				c0.02-1.03,0.04-2.06,0-3.08c-0.02-0.48-0.18-0.95-0.3-1.53c0.47-0.1,1.01-0.21,1.69-0.36c0.05,0.46,0.13,0.83,0.13,1.19
				c0.02,1.06,0.02,2.13,0.01,3.19c-0.01,0.67,0.2,1.26,0.59,1.78c0.38,0.51,0.88,0.82,1.54,0.79c0.14-0.01,0.28-0.02,0.42-0.03
				c1.59-0.03,2-0.39,2.08-1.99c0.05-1.06,0.04-2.13,0-3.19c-0.02-0.4-0.21-0.8-0.35-1.31c0.51-0.09,1.04-0.18,1.69-0.3
				c0.08,0.43,0.18,0.72,0.18,1.02c0.02,1.31,0.03,2.62,0,3.93c-0.04,1.59-0.94,2.48-2.53,2.56
				C264.12,110.27,262.85,110.1,261.83,109.02z M254.16,106.2L254.16,106.2c0.01-0.42,0.06-0.85,0-1.27
				c-0.06-0.41-0.16-0.84-0.36-1.2c-0.47-0.85-1.56-1.03-2.24-0.35c-0.31,0.31-0.59,0.72-0.73,1.14c-0.38,1.13-0.36,2.29-0.03,3.44
				c0.08,0.27,0.21,0.53,0.36,0.76c0.73,1.04,1.91,1.03,2.59-0.06c0.22-0.35,0.33-0.78,0.4-1.19
				C254.21,107.05,254.16,106.62,254.16,106.2z"/>
			<path class="st0" d="M192.6,102.97c0.51-0.1,1.05-0.2,1.69-0.32c0.05,0.36,0.12,0.62,0.13,0.88c0.01,1.38,0.02,2.76,0,4.14
				c-0.02,1.56-0.85,2.44-2.41,2.51c-1.13,0.05-2.27,0.02-3.4-0.02c-0.93-0.03-1.72-0.38-2.15-1.26c-0.44,0.32-0.81,0.66-1.24,0.88
				c-1.11,0.57-2.36,0.3-3.18-0.62c-1.33-1.48-1.43-4.04-0.21-5.62c0.81-1.05,2.1-1.49,3.41-1.13c0.44,0.12,0.85,0.33,1.3,0.51
				c0.3-0.13,0.63-0.28,1.13-0.5c0.06,0.54,0.14,0.9,0.14,1.27c0.01,1.38,0,2.76,0.01,4.14c0.01,1.26,0.22,1.45,1.5,1.5
				c0.49,0.02,0.99,0.08,1.48,0.14c1.33,0.16,2.05-0.42,2.09-1.74c0.03-1.17,0.03-2.34,0-3.51
				C192.87,103.84,192.71,103.45,192.6,102.97z M182.6,106.13c0.13,0.77,0.2,1.47,0.38,2.15c0.17,0.65,0.61,1.15,1.32,1.21
				c0.76,0.06,1.24-0.42,1.6-1.03c0.09-0.15,0.15-0.32,0.2-0.49c0.33-1.26,0.33-2.52-0.02-3.77c-0.21-0.75-0.78-1.19-1.44-1.21
				c-0.76-0.02-1.33,0.33-1.57,1.03C182.84,104.71,182.75,105.45,182.6,106.13z"/>
			<path class="st0" d="M348.91,99.64c0.5-0.09,1.01-0.19,1.62-0.3c0.08,0.33,0.21,0.58,0.21,0.84c0.01,3.04,0.01,6.08,0,9.12
				c0,0.2-0.08,0.41-0.15,0.75c-0.42,0.03-0.84,0.06-1.38,0.09c-0.06-0.57-0.14-1.01-0.14-1.45c-0.01-2.44,0-4.88-0.01-7.32
				C349.05,100.85,348.97,100.33,348.91,99.64z"/>
			<path class="st0" d="M196.01,109.58c1.59-0.03,3.05-0.06,4.47-0.09c0.46-0.83,0.27-1.62,0.27-2.38c-0.01-0.85-0.12-1.69-0.2-2.53
				c-0.06-0.58-0.23-1.11-0.86-1.33c-0.65,0.1-0.95,0.62-1.34,1.01c-0.36,0.36-0.68,0.77-1.07,1.23c-0.13-0.23-0.23-0.34-0.26-0.47
				c-0.03-0.17-0.01-0.34-0.01-0.45c0.55-0.5,1.05-0.95,1.54-1.39c1.02-0.9,2.04-0.78,2.76,0.36c0.19,0.3,0.33,0.62,0.45,0.95
				c0.56,1.55,0.64,3.18,0.71,4.8c0.01,0.23-0.07,0.47-0.12,0.77c-0.3,0.05-0.57,0.13-0.84,0.13c-1.45,0.01-2.9,0.01-4.35,0
				C196.76,110.19,196.33,110.2,196.01,109.58z"/>
			<path class="st0" d="M292.72,110.09c-0.43,0-0.76,0-1.22,0c-0.05-0.44-0.12-0.84-0.12-1.25c-0.01-2.44,0.01-4.89-0.02-7.33
				c-0.01-0.57-0.16-1.15-0.26-1.86c0.42-0.08,0.95-0.18,1.58-0.31c0.08,0.34,0.2,0.6,0.2,0.85c0.01,3.01,0.01,6.02,0,9.03
				C292.88,109.47,292.8,109.71,292.72,110.09z"/>
			<path class="st0" d="M242.95,110.06c-0.02-0.54-0.06-0.96-0.06-1.38c-0.01-2.34,0.01-4.68-0.01-7.01
				c-0.01-0.62-0.11-1.25-0.18-2.02c0.41-0.08,0.91-0.18,1.47-0.29c0.09,0.3,0.22,0.52,0.22,0.75c0.01,3.12,0.01,6.23,0,9.35
				c0,0.17-0.06,0.34-0.12,0.62C243.87,110.06,243.48,110.06,242.95,110.06z"/>
			<g>
				<circle class="st0" cx="183.51" cy="100.1" r="0.96"/>
				<circle class="st0" cx="186.22" cy="100.1" r="0.96"/>
			</g>
			<g>
				<circle class="st0" cx="190.75" cy="112.57" r="0.96"/>
				<circle class="st0" cx="193.46" cy="112.57" r="0.96"/>
			</g>
			<g>
				<circle class="st0" cx="251.51" cy="100.33" r="0.96"/>
				<circle class="st0" cx="254.22" cy="100.33" r="0.96"/>
			</g>
			<g>
				<circle class="st0" cx="299.98" cy="100.33" r="0.96"/>
				<circle class="st0" cx="302.7" cy="100.33" r="0.96"/>
			</g>
			<g>
				<circle class="st0" cx="258.63" cy="112.42" r="0.96"/>
				<circle class="st0" cx="261.34" cy="112.42" r="0.96"/>
			</g>
			<g>
				<circle class="st0" cx="265.98" cy="112.42" r="0.96"/>
			</g>
		</g>
	</g>
	<g>
		<g>
			<g>
				<g>
					<g>
						<path class="st0" d="M7.09,78.58H6.45H5.8v-7.06h0.72h0.72l2.64,4.96v-4.96h0.64h0.64v7.06h-0.68H9.8l-2.71-5.09V78.58z"/>
						<path class="st0" d="M13.55,78.72c-0.45,0-0.81-0.14-1.09-0.41c-0.27-0.28-0.41-0.65-0.41-1.1c0-0.97,0.48-1.54,1.45-1.69
							l0.85-0.13c0.22-0.03,0.4-0.08,0.54-0.16c0.06-0.03,0.11-0.09,0.15-0.17s0.05-0.17,0.04-0.25c-0.01-0.16-0.08-0.27-0.21-0.35
							c-0.15-0.1-0.36-0.15-0.64-0.15c-0.25,0-0.44,0.06-0.58,0.19c-0.13,0.13-0.2,0.31-0.21,0.55h-1.23
							c0.05-1.23,0.78-1.84,2.17-1.84c0.6,0,1.08,0.14,1.43,0.41c0.35,0.27,0.52,0.65,0.52,1.12v2.92c0,0.23,0.02,0.4,0.06,0.5
							c0.03,0.09,0.1,0.16,0.21,0.21v0.01v0.19h-0.7h-0.69c-0.06-0.2-0.1-0.41-0.12-0.62v-0.01C14.71,78.46,14.19,78.72,13.55,78.72
							z M15.09,76.65v-0.6c-0.15,0.09-0.35,0.16-0.6,0.21l-0.47,0.09c-0.46,0.09-0.68,0.33-0.68,0.71c0,0.21,0.05,0.38,0.16,0.5
							c0.1,0.12,0.25,0.17,0.44,0.17c0.41,0,0.73-0.16,0.98-0.47c0.04-0.06,0.08-0.15,0.12-0.27
							C15.07,76.87,15.09,76.75,15.09,76.65z"/>
						<path class="st0" d="M19.71,78.61c-0.11,0.01-0.23,0.02-0.36,0.02c-0.13,0-0.28,0.01-0.44,0.01c-0.45,0-0.77-0.09-0.97-0.26
							c-0.2-0.17-0.3-0.46-0.3-0.86v-3.2h-0.68v-0.97h0.68v-1.41h1.29v1.41h0.78v0.97h-0.78v2.97c0,0.12,0.03,0.2,0.1,0.24
							s0.21,0.06,0.42,0.06h0.26C19.71,77.59,19.71,78.61,19.71,78.61z"/>
						<path class="st0" d="M20.56,71.46h1.31v1.28h-1.31V71.46z M20.57,78.58v-5.23h0.64h0.65v5.23h-0.64H20.57z"/>
						<path class="st0" d="M25.27,78.72c-0.39,0-0.73-0.06-1.03-0.19s-0.56-0.31-0.79-0.55c-0.45-0.49-0.67-1.16-0.67-1.99
							c0-0.85,0.22-1.52,0.67-2.03c0.46-0.5,1.06-0.75,1.82-0.75c0.77,0,1.38,0.25,1.82,0.75c0.45,0.5,0.68,1.17,0.68,2.03
							c0,0.84-0.23,1.5-0.68,1.99C26.65,78.47,26.04,78.72,25.27,78.72z M25.27,77.56c0.39,0,0.68-0.13,0.88-0.4
							c0.2-0.27,0.29-0.66,0.29-1.18c0-0.53-0.1-0.93-0.29-1.21c-0.2-0.27-0.49-0.41-0.88-0.41s-0.68,0.14-0.87,0.41
							c-0.19,0.27-0.29,0.68-0.29,1.21c0,0.52,0.1,0.91,0.29,1.18C24.59,77.43,24.88,77.56,25.27,77.56z"/>
						<path class="st0" d="M28.66,78.58v-5.23h0.6h0.62v0.78c0.03-0.05,0.05-0.09,0.08-0.14c0.03-0.04,0.06-0.09,0.09-0.13
							c0.31-0.43,0.77-0.65,1.38-0.65c0.51,0,0.91,0.16,1.2,0.49c0.29,0.32,0.44,0.78,0.44,1.36v3.52h-0.64h-0.64v-3.27
							c0-0.33-0.06-0.57-0.19-0.72c-0.13-0.15-0.33-0.23-0.6-0.23c-0.34,0-0.61,0.11-0.79,0.32s-0.27,0.53-0.27,0.94v2.96H29.3
							C29.3,78.58,28.66,78.58,28.66,78.58z"/>
						<path class="st0" d="M35.42,78.72c-0.45,0-0.81-0.14-1.09-0.41c-0.27-0.28-0.41-0.65-0.41-1.1c0-0.97,0.48-1.54,1.45-1.69
							l0.85-0.13c0.22-0.03,0.4-0.08,0.54-0.16c0.06-0.03,0.11-0.09,0.15-0.17s0.05-0.17,0.04-0.25c-0.01-0.16-0.08-0.27-0.21-0.35
							c-0.15-0.1-0.36-0.15-0.64-0.15c-0.25,0-0.44,0.06-0.58,0.19c-0.13,0.13-0.2,0.31-0.21,0.55h-1.23
							c0.05-1.23,0.78-1.84,2.17-1.84c0.6,0,1.08,0.14,1.43,0.41c0.35,0.27,0.52,0.65,0.52,1.12v2.92c0,0.23,0.02,0.4,0.06,0.5
							c0.03,0.09,0.1,0.16,0.21,0.21v0.01v0.19h-0.7H37.1c-0.06-0.2-0.1-0.41-0.12-0.62v-0.01C36.59,78.46,36.07,78.72,35.42,78.72z
							 M36.96,76.65v-0.6c-0.15,0.09-0.35,0.16-0.6,0.21l-0.47,0.09c-0.46,0.09-0.68,0.33-0.68,0.71c0,0.21,0.05,0.38,0.16,0.5
							c0.1,0.12,0.25,0.17,0.44,0.17c0.41,0,0.73-0.16,0.98-0.47c0.04-0.06,0.08-0.15,0.12-0.27
							C36.95,76.87,36.96,76.75,36.96,76.65z"/>
						<path class="st0" d="M39.38,78.58v-7.06h0.64h0.64v7.06h-0.64H39.38z"/>
						<path class="st0" d="M50.05,76.11c-0.09,0.81-0.39,1.46-0.89,1.94c-0.53,0.48-1.18,0.72-1.95,0.72c-0.93,0-1.67-0.33-2.2-0.99
							c-0.54-0.67-0.81-1.57-0.81-2.69c0-1.15,0.27-2.07,0.81-2.75s1.27-1.02,2.2-1.02c0.78,0,1.43,0.23,1.94,0.68
							c0.51,0.47,0.81,1.08,0.91,1.84h-1.38c-0.04-0.38-0.2-0.69-0.46-0.92c-0.26-0.22-0.59-0.33-0.99-0.33
							c-0.51,0-0.91,0.22-1.2,0.66c-0.29,0.45-0.43,1.06-0.43,1.82c0,0.75,0.14,1.34,0.43,1.78c0.28,0.43,0.68,0.64,1.2,0.64
							c0.41,0,0.74-0.13,0.99-0.38c0.26-0.26,0.42-0.59,0.46-1.01L50.05,76.11L50.05,76.11z"/>
						<path class="st0" d="M52.92,78.72c-0.74,0-1.31-0.24-1.72-0.73c-0.4-0.49-0.6-1.19-0.6-2.1c0-0.84,0.21-1.49,0.62-1.96
							c0.41-0.48,0.98-0.71,1.7-0.71c0.74,0,1.31,0.24,1.72,0.73c0.4,0.48,0.6,1.17,0.6,2.06c0.01,0.1,0,0.2-0.02,0.31H51.9
							c0.03,0.41,0.12,0.72,0.26,0.93c0.18,0.26,0.47,0.38,0.89,0.38c0.21,0,0.39-0.06,0.54-0.18c0.16-0.12,0.26-0.26,0.3-0.43h1.31
							c-0.12,0.54-0.38,0.95-0.78,1.25S53.52,78.72,52.92,78.72z M53.9,75.43c-0.04-0.32-0.11-0.56-0.24-0.74
							c-0.16-0.23-0.41-0.35-0.76-0.35c-0.33,0-0.58,0.14-0.76,0.41c-0.11,0.18-0.19,0.41-0.23,0.68
							C51.91,75.43,53.9,75.43,53.9,75.43z"/>
						<path class="st0" d="M56.09,78.58v-5.23h0.6h0.62v0.78c0.03-0.05,0.05-0.09,0.08-0.14c0.03-0.04,0.06-0.09,0.09-0.13
							c0.31-0.43,0.77-0.65,1.38-0.65c0.51,0,0.91,0.16,1.2,0.49c0.29,0.32,0.44,0.78,0.44,1.36v3.52h-0.64h-0.64v-3.27
							c0-0.33-0.06-0.57-0.19-0.72c-0.13-0.15-0.33-0.23-0.6-0.23c-0.34,0-0.61,0.11-0.79,0.32s-0.27,0.53-0.27,0.94v2.96h-0.64
							C56.73,78.58,56.09,78.58,56.09,78.58z"/>
						<path class="st0" d="M63.91,78.61c-0.11,0.01-0.23,0.02-0.36,0.02s-0.28,0.01-0.44,0.01c-0.45,0-0.77-0.09-0.97-0.26
							c-0.2-0.17-0.3-0.46-0.3-0.86v-3.2h-0.68v-0.97h0.68v-1.41h1.29v1.41h0.78v0.97h-0.78v2.97c0,0.12,0.03,0.2,0.1,0.24
							s0.21,0.06,0.42,0.06h0.26C63.91,77.59,63.91,78.61,63.91,78.61z"/>
						<path class="st0" d="M66.65,78.72c-0.74,0-1.31-0.24-1.72-0.73c-0.4-0.49-0.6-1.19-0.6-2.1c0-0.84,0.21-1.49,0.62-1.96
							c0.41-0.48,0.98-0.71,1.7-0.71c0.74,0,1.31,0.24,1.72,0.73c0.4,0.48,0.6,1.17,0.6,2.06c0.01,0.1,0,0.2-0.02,0.31h-3.32
							c0.03,0.41,0.12,0.72,0.26,0.93c0.18,0.26,0.47,0.38,0.89,0.38c0.21,0,0.39-0.06,0.54-0.18c0.16-0.12,0.26-0.26,0.3-0.43h1.31
							c-0.12,0.54-0.38,0.95-0.78,1.25S67.26,78.72,66.65,78.72z M67.64,75.43c-0.04-0.32-0.11-0.56-0.24-0.74
							c-0.16-0.23-0.41-0.35-0.76-0.35c-0.33,0-0.58,0.14-0.76,0.41c-0.11,0.18-0.19,0.41-0.23,0.68
							C65.65,75.43,67.64,75.43,67.64,75.43z"/>
						<path class="st0" d="M69.81,78.58v-5.23h0.61h0.62v0.93c0.04-0.1,0.09-0.2,0.15-0.29c0.3-0.52,0.7-0.78,1.17-0.78l0.29,0.01
							v1.4c-0.06,0-0.12-0.01-0.18-0.01s-0.13,0-0.21,0c-0.77,0-1.16,0.42-1.16,1.26v2.71h-0.64H69.81z"/>
						<path class="st0" d="M77.36,74.32v4.26h-0.64h-0.64v-4.26h-0.72v-0.97h0.72v-0.44c0-1,0.5-1.5,1.5-1.5
							c0.11,0,0.22,0,0.32,0.01c0.1,0,0.19,0.01,0.28,0.03v1.1h-0.4c-0.17,0-0.28,0.04-0.34,0.11c-0.06,0.08-0.09,0.23-0.09,0.46
							v0.23h0.83v0.97H77.36z"/>
						<path class="st0" d="M81.12,78.72c-0.39,0-0.73-0.06-1.03-0.19s-0.56-0.31-0.79-0.55c-0.45-0.49-0.67-1.16-0.67-1.99
							c0-0.85,0.22-1.52,0.67-2.03c0.46-0.5,1.06-0.75,1.82-0.75c0.77,0,1.38,0.25,1.82,0.75c0.45,0.5,0.68,1.17,0.68,2.03
							c0,0.84-0.23,1.5-0.68,1.99C82.5,78.47,81.89,78.72,81.12,78.72z M81.12,77.56c0.39,0,0.68-0.13,0.88-0.4
							c0.2-0.27,0.29-0.66,0.29-1.18c0-0.53-0.1-0.93-0.29-1.21c-0.2-0.27-0.49-0.41-0.88-0.41s-0.68,0.14-0.87,0.41
							c-0.19,0.27-0.29,0.68-0.29,1.21c0,0.52,0.1,0.91,0.29,1.18C80.44,77.43,80.73,77.56,81.12,77.56z"/>
						<path class="st0" d="M84.5,78.58v-5.23h0.61h0.62v0.93c0.04-0.1,0.09-0.2,0.15-0.29c0.3-0.52,0.7-0.78,1.17-0.78l0.29,0.01
							v1.4c-0.06,0-0.12-0.01-0.18-0.01s-0.13,0-0.21,0c-0.77,0-1.16,0.42-1.16,1.26v2.71h-0.64H84.5z"/>
						<path class="st0" d="M90.14,71.52h0.73h0.73l1.44,5.4l1.44-5.4h0.7h0.71l-2.23,7.06h-0.65h-0.66L90.14,71.52z"/>
						<path class="st0" d="M98.6,78.72c-0.74,0-1.31-0.24-1.72-0.73c-0.4-0.49-0.6-1.19-0.6-2.1c0-0.84,0.21-1.49,0.62-1.96
							c0.41-0.48,0.98-0.71,1.7-0.71c0.74,0,1.31,0.24,1.72,0.73c0.4,0.48,0.6,1.17,0.6,2.06c0.01,0.1,0,0.2-0.02,0.31h-3.32
							c0.03,0.41,0.12,0.72,0.26,0.93c0.18,0.26,0.47,0.38,0.89,0.38c0.21,0,0.39-0.06,0.54-0.18c0.16-0.12,0.26-0.26,0.3-0.43h1.31
							c-0.12,0.54-0.38,0.95-0.78,1.25S99.2,78.72,98.6,78.72z M99.58,75.43c-0.04-0.32-0.11-0.56-0.24-0.74
							c-0.16-0.23-0.41-0.35-0.76-0.35c-0.33,0-0.58,0.14-0.76,0.41c-0.11,0.18-0.19,0.41-0.23,0.68
							C97.59,75.43,99.58,75.43,99.58,75.43z"/>
						<path class="st0" d="M103.96,79.66c0.36,0,0.62-0.09,0.78-0.28c0.16-0.19,0.24-0.49,0.24-0.93V77.8l-0.1,0.17
							c-0.28,0.42-0.69,0.63-1.23,0.63c-0.63,0-1.14-0.24-1.53-0.73s-0.58-1.13-0.58-1.93c0-0.81,0.19-1.47,0.57-1.98
							c0.38-0.5,0.88-0.75,1.5-0.75c0.54,0,0.96,0.21,1.27,0.64c0.03,0.04,0.05,0.08,0.08,0.12s0.05,0.09,0.08,0.14v-0.76h1.21v4.95
							c0,0.83-0.19,1.44-0.57,1.83s-0.97,0.59-1.78,0.59c-0.66,0-1.18-0.14-1.58-0.42c-0.39-0.28-0.6-0.66-0.62-1.15h1.39
							c0.01,0.18,0.09,0.31,0.23,0.39C103.43,79.62,103.65,79.66,103.96,79.66z M103.92,74.41c-0.33,0-0.59,0.14-0.78,0.41
							s-0.28,0.65-0.28,1.14c0,0.48,0.09,0.86,0.28,1.12s0.45,0.4,0.78,0.4c0.34,0,0.6-0.13,0.79-0.4c0.19-0.27,0.29-0.65,0.29-1.14
							s-0.1-0.87-0.29-1.13C104.52,74.54,104.25,74.41,103.92,74.41z"/>
						<path class="st0" d="M109.29,78.72c-0.74,0-1.31-0.24-1.72-0.73c-0.4-0.49-0.6-1.19-0.6-2.1c0-0.84,0.21-1.49,0.62-1.96
							c0.41-0.48,0.98-0.71,1.7-0.71c0.74,0,1.31,0.24,1.72,0.73c0.4,0.48,0.6,1.17,0.6,2.06c0.01,0.1,0,0.2-0.02,0.31h-3.32
							c0.03,0.41,0.12,0.72,0.26,0.93c0.18,0.26,0.47,0.38,0.89,0.38c0.21,0,0.39-0.06,0.54-0.18c0.16-0.12,0.26-0.26,0.3-0.43h1.31
							c-0.12,0.54-0.38,0.95-0.78,1.25S109.89,78.72,109.29,78.72z M110.27,75.43c-0.04-0.32-0.11-0.56-0.24-0.74
							c-0.16-0.23-0.41-0.35-0.76-0.35c-0.33,0-0.58,0.14-0.76,0.41c-0.11,0.18-0.19,0.41-0.23,0.68
							C108.28,75.43,110.27,75.43,110.27,75.43z"/>
						<path class="st0" d="M114.69,78.61c-0.11,0.01-0.23,0.02-0.36,0.02s-0.28,0.01-0.44,0.01c-0.45,0-0.77-0.09-0.97-0.26
							c-0.2-0.17-0.3-0.46-0.3-0.86v-3.2h-0.68v-0.97h0.68v-1.41h1.29v1.41h0.78v0.97h-0.78v2.97c0,0.12,0.03,0.2,0.1,0.24
							s0.21,0.06,0.42,0.06h0.26C114.69,77.59,114.69,78.61,114.69,78.61z"/>
						<path class="st0" d="M116.67,78.72c-0.45,0-0.81-0.14-1.09-0.41c-0.27-0.28-0.41-0.65-0.41-1.1c0-0.97,0.48-1.54,1.45-1.69
							l0.85-0.13c0.22-0.03,0.4-0.08,0.54-0.16c0.06-0.03,0.11-0.09,0.15-0.17s0.05-0.17,0.04-0.25c-0.01-0.16-0.08-0.27-0.21-0.35
							c-0.15-0.1-0.36-0.15-0.64-0.15c-0.25,0-0.44,0.06-0.58,0.19c-0.13,0.13-0.2,0.31-0.21,0.55h-1.23
							c0.05-1.23,0.78-1.84,2.17-1.84c0.6,0,1.08,0.14,1.43,0.41c0.35,0.27,0.52,0.65,0.52,1.12v2.92c0,0.23,0.02,0.4,0.06,0.5
							c0.03,0.09,0.1,0.16,0.21,0.21v0.01v0.19h-0.7h-0.69c-0.06-0.2-0.1-0.41-0.12-0.62v-0.01
							C117.83,78.46,117.31,78.72,116.67,78.72z M118.21,76.65v-0.6c-0.15,0.09-0.35,0.16-0.6,0.21l-0.47,0.09
							c-0.46,0.09-0.68,0.33-0.68,0.71c0,0.21,0.05,0.38,0.16,0.5c0.1,0.12,0.25,0.17,0.44,0.17c0.41,0,0.73-0.16,0.98-0.47
							c0.04-0.06,0.08-0.15,0.12-0.27C118.19,76.87,118.21,76.75,118.21,76.65z"/>
						<path class="st0" d="M122.83,78.61c-0.11,0.01-0.23,0.02-0.36,0.02s-0.28,0.01-0.44,0.01c-0.45,0-0.77-0.09-0.97-0.26
							c-0.2-0.17-0.3-0.46-0.3-0.86v-3.2h-0.68v-0.97h0.68v-1.41h1.29v1.41h0.78v0.97h-0.78v2.97c0,0.12,0.03,0.2,0.1,0.24
							s0.21,0.06,0.42,0.06h0.26C122.83,77.59,122.83,78.61,122.83,78.61z"/>
						<path class="st0" d="M123.68,71.46h1.31v1.28h-1.31V71.46z M123.69,78.58v-5.23h0.64h0.65v5.23h-0.64H123.69z"/>
						<path class="st0" d="M128.39,78.72c-0.39,0-0.73-0.06-1.03-0.19s-0.56-0.31-0.79-0.55c-0.45-0.49-0.67-1.16-0.67-1.99
							c0-0.85,0.22-1.52,0.67-2.03c0.46-0.5,1.06-0.75,1.82-0.75c0.77,0,1.38,0.25,1.82,0.75c0.45,0.5,0.68,1.17,0.68,2.03
							c0,0.84-0.23,1.5-0.68,1.99C129.77,78.47,129.16,78.72,128.39,78.72z M128.39,77.56c0.39,0,0.68-0.13,0.88-0.4
							c0.2-0.27,0.29-0.66,0.29-1.18c0-0.53-0.1-0.93-0.29-1.21c-0.2-0.27-0.49-0.41-0.88-0.41s-0.68,0.14-0.87,0.41
							c-0.19,0.27-0.29,0.68-0.29,1.21c0,0.52,0.1,0.91,0.29,1.18C127.71,77.43,128,77.56,128.39,77.56z"/>
						<path class="st0" d="M131.78,78.58v-5.23h0.6H133v0.78c0.03-0.05,0.05-0.09,0.08-0.14c0.03-0.04,0.06-0.09,0.09-0.13
							c0.31-0.43,0.77-0.65,1.38-0.65c0.51,0,0.91,0.16,1.2,0.49c0.29,0.32,0.44,0.78,0.44,1.36v3.52h-0.64h-0.64v-3.27
							c0-0.33-0.06-0.57-0.19-0.72s-0.33-0.23-0.6-0.23c-0.34,0-0.61,0.11-0.79,0.32s-0.27,0.53-0.27,0.94v2.96h-0.64
							C132.42,78.58,131.78,78.58,131.78,78.58z"/>
						<path class="st0" d="M145.53,76.11c-0.09,0.81-0.39,1.46-0.89,1.94c-0.53,0.48-1.18,0.72-1.95,0.72
							c-0.93,0-1.67-0.33-2.2-0.99c-0.54-0.67-0.81-1.57-0.81-2.69c0-1.15,0.27-2.07,0.81-2.75s1.27-1.02,2.2-1.02
							c0.78,0,1.43,0.23,1.94,0.68c0.51,0.47,0.81,1.08,0.91,1.84h-1.38c-0.04-0.38-0.2-0.69-0.46-0.92
							c-0.26-0.22-0.59-0.33-0.99-0.33c-0.51,0-0.91,0.22-1.2,0.66c-0.29,0.45-0.43,1.06-0.43,1.82c0,0.75,0.14,1.34,0.43,1.78
							c0.28,0.43,0.68,0.64,1.2,0.64c0.41,0,0.74-0.13,0.99-0.38c0.26-0.26,0.42-0.59,0.46-1.01L145.53,76.11L145.53,76.11z"/>
						<path class="st0" d="M148.67,78.72c-0.39,0-0.73-0.06-1.03-0.19s-0.56-0.31-0.79-0.55c-0.45-0.49-0.67-1.16-0.67-1.99
							c0-0.85,0.22-1.52,0.67-2.03c0.46-0.5,1.06-0.75,1.82-0.75c0.77,0,1.38,0.25,1.82,0.75c0.45,0.5,0.68,1.17,0.68,2.03
							c0,0.84-0.23,1.5-0.68,1.99C150.05,78.47,149.44,78.72,148.67,78.72z M148.67,77.56c0.39,0,0.68-0.13,0.88-0.4
							c0.2-0.27,0.29-0.66,0.29-1.18c0-0.53-0.1-0.93-0.29-1.21c-0.2-0.27-0.49-0.41-0.88-0.41s-0.68,0.14-0.87,0.41
							c-0.19,0.27-0.29,0.68-0.29,1.21c0,0.52,0.1,0.91,0.29,1.18C147.99,77.43,148.28,77.56,148.67,77.56z"/>
						<path class="st0" d="M151.58,73.35h0.7H153l1.03,3.9l1.05-3.9h0.68h0.68l-1.76,5.23h-0.66h-0.68L151.58,73.35z"/>
						<path class="st0" d="M159.09,78.72c-0.74,0-1.31-0.24-1.72-0.73c-0.4-0.49-0.6-1.19-0.6-2.1c0-0.84,0.21-1.49,0.62-1.96
							c0.41-0.48,0.98-0.71,1.7-0.71c0.74,0,1.31,0.24,1.72,0.73c0.4,0.48,0.6,1.17,0.6,2.06c0.01,0.1,0,0.2-0.02,0.31h-3.32
							c0.03,0.41,0.12,0.72,0.26,0.93c0.18,0.26,0.47,0.38,0.89,0.38c0.21,0,0.39-0.06,0.54-0.18c0.16-0.12,0.26-0.26,0.3-0.43h1.31
							c-0.12,0.54-0.38,0.95-0.78,1.25S159.69,78.72,159.09,78.72z M160.07,75.43c-0.04-0.32-0.11-0.56-0.24-0.74
							c-0.16-0.23-0.41-0.35-0.76-0.35c-0.33,0-0.58,0.14-0.76,0.41c-0.11,0.18-0.19,0.41-0.23,0.68
							C158.08,75.43,160.07,75.43,160.07,75.43z"/>
						<path class="st0" d="M162.24,78.58v-5.23h0.61h0.62v0.93c0.04-0.1,0.09-0.2,0.15-0.29c0.3-0.52,0.7-0.78,1.17-0.78l0.29,0.01
							v1.4c-0.06,0-0.12-0.01-0.18-0.01s-0.13,0-0.21,0c-0.77,0-1.16,0.42-1.16,1.26v2.71h-0.64H162.24z"/>
						<path class="st0" d="M168.4,78.58v-7.06h0.68h2.13c0.92,0,1.61,0.28,2.07,0.84s0.7,1.4,0.7,2.52c0,1.22-0.24,2.14-0.73,2.77
							c-0.48,0.62-1.2,0.94-2.15,0.94h-2.02L168.4,78.58L168.4,78.58z M169.78,77.36h1.15c1.11,0,1.67-0.81,1.67-2.43
							c0-1.47-0.52-2.2-1.56-2.2h-1.27v4.63H169.78z"/>
						<path class="st0" d="M176.84,78.72c-0.74,0-1.31-0.24-1.72-0.73c-0.4-0.49-0.6-1.19-0.6-2.1c0-0.84,0.21-1.49,0.62-1.96
							c0.41-0.48,0.98-0.71,1.7-0.71c0.74,0,1.31,0.24,1.72,0.73c0.4,0.48,0.6,1.17,0.6,2.06c0.01,0.1,0,0.2-0.02,0.31h-3.32
							c0.03,0.41,0.12,0.72,0.26,0.93c0.18,0.26,0.47,0.38,0.89,0.38c0.21,0,0.39-0.06,0.54-0.18c0.16-0.12,0.26-0.26,0.3-0.43h1.31
							c-0.12,0.54-0.38,0.95-0.78,1.25S177.44,78.72,176.84,78.72z M177.82,75.43c-0.04-0.32-0.11-0.56-0.24-0.74
							c-0.16-0.23-0.41-0.35-0.76-0.35c-0.33,0-0.58,0.14-0.76,0.41c-0.11,0.18-0.19,0.41-0.23,0.68
							C175.83,75.43,177.82,75.43,177.82,75.43z"/>
						<path class="st0" d="M179.53,73.35h0.7h0.72l1.03,3.9l1.05-3.9h0.68h0.68l-1.76,5.23h-0.66h-0.68L179.53,73.35z"/>
						<path class="st0" d="M187.03,78.72c-0.74,0-1.31-0.24-1.72-0.73c-0.4-0.49-0.6-1.19-0.6-2.1c0-0.84,0.21-1.49,0.62-1.96
							c0.41-0.48,0.98-0.71,1.7-0.71c0.74,0,1.31,0.24,1.72,0.73c0.4,0.48,0.6,1.17,0.6,2.06c0.01,0.1,0,0.2-0.02,0.31h-3.32
							c0.03,0.41,0.12,0.72,0.26,0.93c0.18,0.26,0.47,0.38,0.89,0.38c0.21,0,0.39-0.06,0.54-0.18c0.16-0.12,0.26-0.26,0.3-0.43h1.31
							c-0.12,0.54-0.38,0.95-0.78,1.25S187.63,78.72,187.03,78.72z M188.01,75.43c-0.04-0.32-0.11-0.56-0.24-0.74
							c-0.16-0.23-0.41-0.35-0.76-0.35c-0.33,0-0.58,0.14-0.76,0.41c-0.11,0.18-0.19,0.41-0.23,0.68
							C186.02,75.43,188.01,75.43,188.01,75.43z"/>
						<path class="st0" d="M190.23,78.58v-7.06h0.64h0.64v7.06h-0.64H190.23z"/>
						<path class="st0" d="M194.94,78.72c-0.39,0-0.73-0.06-1.03-0.19s-0.56-0.31-0.79-0.55c-0.45-0.49-0.67-1.16-0.67-1.99
							c0-0.85,0.22-1.52,0.67-2.03c0.46-0.5,1.06-0.75,1.82-0.75c0.77,0,1.38,0.25,1.82,0.75c0.45,0.5,0.68,1.17,0.68,2.03
							c0,0.84-0.23,1.5-0.68,1.99C196.33,78.47,195.72,78.72,194.94,78.72z M194.94,77.56c0.39,0,0.68-0.13,0.88-0.4
							c0.2-0.27,0.29-0.66,0.29-1.18c0-0.53-0.1-0.93-0.29-1.21c-0.2-0.27-0.49-0.41-0.88-0.41s-0.68,0.14-0.87,0.41
							c-0.19,0.27-0.29,0.68-0.29,1.21c0,0.52,0.1,0.91,0.29,1.18C194.26,77.43,194.56,77.56,194.94,77.56z"/>
						<path class="st0" d="M198.3,73.35h0.62h0.61v0.78l0.09-0.14c0.34-0.52,0.8-0.78,1.37-0.78c0.62,0,1.12,0.25,1.49,0.74
							c0.38,0.49,0.56,1.13,0.56,1.93c0,0.85-0.19,1.54-0.56,2.06s-0.87,0.78-1.49,0.78c-0.56,0-1.02-0.24-1.37-0.73l-0.02-0.04
							v2.68h-0.64h-0.65L198.3,73.35L198.3,73.35z M200.62,77.58c0.34,0,0.61-0.14,0.81-0.41s0.29-0.66,0.29-1.16
							s-0.09-0.9-0.28-1.18s-0.46-0.42-0.8-0.42s-0.61,0.14-0.81,0.43c-0.19,0.29-0.29,0.69-0.29,1.22c0,0.48,0.09,0.86,0.28,1.12
							C200,77.45,200.27,77.58,200.62,77.58z"/>
						<path class="st0" d="M203.92,78.58v-5.23h0.61h0.62v0.84c0.05-0.14,0.12-0.27,0.21-0.39c0.29-0.39,0.7-0.59,1.23-0.59
							c0.43,0,0.79,0.16,1.06,0.47c0.05,0.06,0.1,0.12,0.14,0.19s0.08,0.14,0.11,0.21l0.15-0.27c0.26-0.39,0.65-0.59,1.16-0.59
							c0.53,0,0.95,0.17,1.25,0.51c0.3,0.33,0.44,0.8,0.44,1.39v3.47h-0.64h-0.64v-3.07c0-0.4-0.06-0.69-0.18-0.87
							s-0.3-0.27-0.55-0.27c-0.27,0-0.48,0.09-0.62,0.26c-0.14,0.18-0.22,0.43-0.22,0.76v3.19h-0.64h-0.64v-3.3
							c0-0.32-0.06-0.55-0.19-0.7c-0.12-0.15-0.32-0.22-0.58-0.22c-0.27,0-0.47,0.09-0.6,0.26c-0.14,0.18-0.2,0.43-0.2,0.76v3.19
							h-0.64L203.92,78.58L203.92,78.58z"/>
						<path class="st0" d="M214,78.72c-0.74,0-1.31-0.24-1.72-0.73c-0.4-0.49-0.6-1.19-0.6-2.1c0-0.84,0.21-1.49,0.62-1.96
							c0.41-0.48,0.98-0.71,1.7-0.71c0.74,0,1.31,0.24,1.72,0.73c0.4,0.48,0.6,1.17,0.6,2.06c0.01,0.1,0,0.2-0.02,0.31h-3.32
							c0.03,0.41,0.12,0.72,0.26,0.93c0.18,0.26,0.47,0.38,0.89,0.38c0.21,0,0.39-0.06,0.54-0.18c0.16-0.12,0.26-0.26,0.3-0.43h1.31
							c-0.12,0.54-0.38,0.95-0.78,1.25S214.6,78.72,214,78.72z M214.98,75.43c-0.04-0.32-0.11-0.56-0.24-0.74
							c-0.16-0.23-0.41-0.35-0.76-0.35c-0.33,0-0.58,0.14-0.76,0.41c-0.11,0.18-0.19,0.41-0.23,0.68
							C212.99,75.43,214.98,75.43,214.98,75.43z"/>
						<path class="st0" d="M217.17,78.58v-5.23h0.6h0.62v0.78c0.03-0.05,0.05-0.09,0.08-0.14c0.03-0.04,0.06-0.09,0.09-0.13
							c0.31-0.43,0.77-0.65,1.38-0.65c0.51,0,0.91,0.16,1.2,0.49c0.29,0.32,0.44,0.78,0.44,1.36v3.52h-0.64h-0.64v-3.27
							c0-0.33-0.06-0.57-0.19-0.72s-0.33-0.23-0.6-0.23c-0.34,0-0.61,0.11-0.79,0.32s-0.27,0.53-0.27,0.94v2.96h-0.64
							C217.81,78.58,217.17,78.58,217.17,78.58z"/>
						<path class="st0" d="M224.99,78.61c-0.11,0.01-0.23,0.02-0.36,0.02s-0.28,0.01-0.44,0.01c-0.45,0-0.77-0.09-0.97-0.26
							c-0.2-0.17-0.3-0.46-0.3-0.86v-3.2h-0.68v-0.97h0.68v-1.41h1.29v1.41h0.78v0.97h-0.78v2.97c0,0.12,0.03,0.2,0.1,0.24
							s0.21,0.06,0.42,0.06h0.26L224.99,78.61L224.99,78.61z"/>
						<path class="st0" d="M243.06,76.11c-0.09,0.81-0.39,1.46-0.89,1.94c-0.53,0.48-1.18,0.72-1.95,0.72
							c-0.93,0-1.67-0.33-2.2-0.99c-0.54-0.67-0.81-1.57-0.81-2.69c0-1.15,0.27-2.07,0.81-2.75s1.27-1.02,2.2-1.02
							c0.78,0,1.43,0.23,1.94,0.68c0.51,0.47,0.81,1.08,0.91,1.84h-1.38c-0.04-0.38-0.2-0.69-0.46-0.92
							c-0.26-0.22-0.59-0.33-0.99-0.33c-0.51,0-0.91,0.22-1.2,0.66c-0.29,0.45-0.43,1.06-0.43,1.82c0,0.75,0.14,1.34,0.43,1.78
							c0.28,0.43,0.68,0.64,1.2,0.64c0.41,0,0.74-0.13,0.99-0.38c0.26-0.26,0.42-0.59,0.46-1.01L243.06,76.11L243.06,76.11z"/>
						<path class="st0" d="M246.2,78.72c-0.39,0-0.73-0.06-1.03-0.19s-0.56-0.31-0.79-0.55c-0.45-0.49-0.67-1.16-0.67-1.99
							c0-0.85,0.22-1.52,0.67-2.03c0.46-0.5,1.06-0.75,1.82-0.75c0.77,0,1.38,0.25,1.82,0.75c0.45,0.5,0.68,1.17,0.68,2.03
							c0,0.84-0.23,1.5-0.68,1.99C247.58,78.47,246.98,78.72,246.2,78.72z M246.2,77.56c0.39,0,0.68-0.13,0.88-0.4
							c0.2-0.27,0.29-0.66,0.29-1.18c0-0.53-0.1-0.93-0.29-1.21c-0.2-0.27-0.49-0.41-0.88-0.41s-0.68,0.14-0.87,0.41
							c-0.19,0.27-0.29,0.68-0.29,1.21c0,0.52,0.1,0.91,0.29,1.18C245.52,77.43,245.81,77.56,246.2,77.56z"/>
						<path class="st0" d="M249.58,78.58v-5.23h0.61h0.62v0.84c0.05-0.14,0.12-0.27,0.21-0.39c0.29-0.39,0.7-0.59,1.23-0.59
							c0.43,0,0.79,0.16,1.06,0.47c0.05,0.06,0.1,0.12,0.14,0.19s0.08,0.14,0.11,0.21l0.15-0.27c0.26-0.39,0.65-0.59,1.16-0.59
							c0.53,0,0.95,0.17,1.25,0.51c0.3,0.33,0.44,0.8,0.44,1.39v3.47h-0.64h-0.64v-3.07c0-0.4-0.06-0.69-0.18-0.87
							s-0.3-0.27-0.55-0.27c-0.27,0-0.48,0.09-0.62,0.26c-0.14,0.18-0.21,0.43-0.21,0.76v3.19h-0.64h-0.64v-3.3
							c0-0.32-0.06-0.55-0.19-0.7c-0.12-0.15-0.32-0.22-0.58-0.22s-0.46,0.09-0.6,0.26c-0.13,0.18-0.2,0.43-0.2,0.76v3.19h-0.64
							L249.58,78.58L249.58,78.58z"/>
						<path class="st0" d="M257.7,71.52h0.64h0.64v2.52l0.03-0.04c0.34-0.52,0.8-0.78,1.37-0.78c0.62,0,1.11,0.25,1.48,0.74
							c0.38,0.49,0.57,1.14,0.57,1.93c0,0.85-0.19,1.54-0.57,2.06c-0.37,0.52-0.87,0.78-1.48,0.78c-0.57,0-1.02-0.24-1.37-0.73
							l-0.05-0.07v0.67h-1.26L257.7,71.52L257.7,71.52z M260.01,77.58c0.35,0,0.62-0.14,0.81-0.41s0.29-0.66,0.29-1.16
							s-0.1-0.9-0.29-1.18s-0.46-0.42-0.8-0.42s-0.61,0.14-0.81,0.43c-0.19,0.29-0.29,0.69-0.29,1.22c0,0.47,0.1,0.85,0.3,1.12
							C259.4,77.45,259.67,77.58,260.01,77.58z"/>
						<path class="st0" d="M264.5,78.72c-0.45,0-0.81-0.14-1.09-0.41c-0.27-0.28-0.41-0.65-0.41-1.1c0-0.97,0.48-1.54,1.45-1.69
							l0.85-0.13c0.22-0.03,0.4-0.08,0.54-0.16c0.06-0.03,0.11-0.09,0.15-0.17s0.05-0.17,0.04-0.25c-0.01-0.16-0.08-0.27-0.21-0.35
							c-0.15-0.1-0.36-0.15-0.64-0.15c-0.25,0-0.44,0.06-0.58,0.19c-0.13,0.13-0.2,0.31-0.21,0.55h-1.23
							c0.05-1.23,0.78-1.84,2.17-1.84c0.6,0,1.08,0.14,1.43,0.41c0.35,0.27,0.52,0.65,0.52,1.12v2.92c0,0.23,0.02,0.4,0.06,0.5
							c0.03,0.09,0.1,0.16,0.21,0.21v0.01v0.19h-0.7h-0.69c-0.06-0.2-0.1-0.41-0.12-0.62v-0.01
							C265.66,78.46,265.14,78.72,264.5,78.72z M266.04,76.65v-0.6c-0.16,0.09-0.35,0.16-0.6,0.21l-0.47,0.09
							c-0.46,0.09-0.68,0.33-0.68,0.71c0,0.21,0.05,0.38,0.16,0.5s0.25,0.17,0.44,0.17c0.41,0,0.73-0.16,0.98-0.47
							c0.04-0.06,0.08-0.15,0.12-0.27C266.02,76.87,266.04,76.75,266.04,76.65z"/>
						<path class="st0" d="M270.66,78.61c-0.11,0.01-0.23,0.02-0.36,0.02c-0.13,0-0.28,0.01-0.44,0.01c-0.45,0-0.77-0.09-0.97-0.26
							s-0.3-0.46-0.3-0.86v-3.2h-0.68v-0.97h0.68v-1.41h1.29v1.41h0.78v0.97h-0.78v2.97c0,0.12,0.03,0.2,0.1,0.24
							s0.21,0.06,0.42,0.06h0.26L270.66,78.61L270.66,78.61z"/>
						<path class="st0" d="M271.51,71.46h1.3v1.28h-1.3V71.46z M271.52,78.58v-5.23h0.64h0.65v5.23h-0.64H271.52z"/>
						<path class="st0" d="M274.02,78.58v-5.23h0.6h0.62v0.78c0.03-0.05,0.05-0.09,0.08-0.14c0.03-0.04,0.06-0.09,0.09-0.13
							c0.31-0.43,0.77-0.65,1.38-0.65c0.51,0,0.91,0.16,1.2,0.49c0.29,0.32,0.44,0.78,0.44,1.36v3.52h-0.64h-0.64v-3.27
							c0-0.33-0.06-0.57-0.19-0.72s-0.33-0.23-0.6-0.23c-0.34,0-0.61,0.11-0.79,0.32c-0.18,0.21-0.27,0.53-0.27,0.94v2.96h-0.64
							C274.66,78.58,274.02,78.58,274.02,78.58z"/>
						<path class="st0" d="M281.8,79.66c0.36,0,0.62-0.09,0.78-0.28s0.24-0.49,0.24-0.93V77.8l-0.1,0.17
							c-0.28,0.42-0.69,0.63-1.23,0.63c-0.63,0-1.14-0.24-1.53-0.73s-0.58-1.13-0.58-1.93c0-0.81,0.19-1.47,0.57-1.98
							c0.38-0.5,0.87-0.75,1.5-0.75c0.54,0,0.96,0.21,1.27,0.64c0.03,0.04,0.05,0.08,0.08,0.12s0.05,0.09,0.08,0.14v-0.76h1.21v4.95
							c0,0.83-0.19,1.44-0.57,1.83s-0.97,0.59-1.78,0.59c-0.66,0-1.18-0.14-1.58-0.42c-0.39-0.28-0.6-0.66-0.62-1.15h1.39
							c0.01,0.18,0.09,0.31,0.23,0.39C281.28,79.62,281.5,79.66,281.8,79.66z M281.76,74.41c-0.33,0-0.59,0.14-0.78,0.41
							c-0.19,0.27-0.29,0.65-0.29,1.14c0,0.48,0.1,0.86,0.29,1.12s0.45,0.4,0.78,0.4s0.6-0.13,0.79-0.4
							c0.19-0.27,0.29-0.65,0.29-1.14s-0.09-0.87-0.29-1.13C282.36,74.54,282.1,74.41,281.76,74.41z"/>
						<path class="st0" d="M287.79,78.58v-7.06h0.68h2.13c0.92,0,1.61,0.28,2.07,0.84s0.7,1.4,0.7,2.52c0,1.22-0.24,2.14-0.73,2.77
							c-0.48,0.62-1.2,0.94-2.15,0.94h-2.02L287.79,78.58L287.79,78.58z M289.16,77.36h1.15c1.11,0,1.67-0.81,1.67-2.43
							c0-1.47-0.52-2.2-1.56-2.2h-1.27L289.16,77.36L289.16,77.36z"/>
						<path class="st0" d="M296.23,78.72c-0.74,0-1.31-0.24-1.72-0.73c-0.4-0.49-0.6-1.19-0.6-2.1c0-0.84,0.21-1.49,0.62-1.96
							c0.41-0.48,0.98-0.71,1.7-0.71c0.74,0,1.31,0.24,1.72,0.73c0.4,0.48,0.6,1.17,0.6,2.06c0.01,0.1,0,0.2-0.02,0.31h-3.32
							c0.03,0.41,0.12,0.72,0.26,0.93c0.18,0.26,0.47,0.38,0.89,0.38c0.21,0,0.39-0.06,0.54-0.18c0.16-0.12,0.26-0.26,0.3-0.43h1.31
							c-0.12,0.54-0.38,0.95-0.78,1.25C297.33,78.57,296.83,78.72,296.23,78.72z M297.21,75.43c-0.04-0.32-0.11-0.56-0.24-0.74
							c-0.16-0.23-0.41-0.35-0.76-0.35c-0.33,0-0.58,0.14-0.76,0.41c-0.11,0.18-0.19,0.41-0.23,0.68
							C295.22,75.43,297.21,75.43,297.21,75.43z"/>
						<path class="st0" d="M302.14,74.92c0-0.2-0.08-0.37-0.23-0.49s-0.36-0.18-0.62-0.18c-0.25,0-0.45,0.05-0.58,0.14
							c-0.13,0.09-0.2,0.22-0.2,0.38c0,0.11,0.08,0.21,0.23,0.3c0.08,0.04,0.18,0.08,0.32,0.12s0.31,0.09,0.51,0.14
							c0.4,0.1,0.73,0.19,0.99,0.3c0.26,0.1,0.46,0.21,0.59,0.32c0.27,0.24,0.4,0.59,0.4,1.06c0,0.51-0.2,0.92-0.58,1.24
							c-0.39,0.31-0.9,0.46-1.52,0.46c-0.76,0-1.34-0.15-1.74-0.46c-0.4-0.3-0.61-0.75-0.64-1.35h1.31
							c0.01,0.24,0.11,0.43,0.29,0.57c0.19,0.14,0.45,0.2,0.78,0.2c0.26,0,0.46-0.05,0.6-0.14s0.21-0.22,0.21-0.4
							c0-0.12-0.07-0.22-0.21-0.31c-0.15-0.08-0.4-0.16-0.74-0.25c-0.83-0.19-1.38-0.4-1.65-0.62c-0.28-0.22-0.42-0.56-0.42-1.02
							c0-0.52,0.18-0.94,0.54-1.25c0.37-0.32,0.84-0.48,1.42-0.48c0.66,0,1.19,0.16,1.6,0.47s0.61,0.72,0.61,1.24h-1.27V74.92z"/>
						<path class="st0" d="M306.42,78.72c-0.74,0-1.31-0.24-1.72-0.73c-0.4-0.49-0.6-1.19-0.6-2.1c0-0.84,0.21-1.49,0.62-1.96
							c0.41-0.48,0.98-0.71,1.7-0.71c0.74,0,1.31,0.24,1.72,0.73c0.4,0.48,0.6,1.17,0.6,2.06c0.01,0.1,0,0.2-0.02,0.31h-3.32
							c0.03,0.41,0.12,0.72,0.26,0.93c0.18,0.26,0.47,0.38,0.89,0.38c0.21,0,0.39-0.06,0.54-0.18c0.16-0.12,0.26-0.26,0.3-0.43h1.31
							c-0.12,0.54-0.38,0.95-0.78,1.25C307.52,78.57,307.02,78.72,306.42,78.72z M307.4,75.43c-0.04-0.32-0.11-0.56-0.24-0.74
							c-0.16-0.23-0.41-0.35-0.76-0.35c-0.33,0-0.58,0.14-0.76,0.41c-0.11,0.18-0.19,0.41-0.23,0.68
							C305.41,75.43,307.4,75.43,307.4,75.43z"/>
						<path class="st0" d="M309.57,78.58v-5.23h0.61h0.62v0.93c0.04-0.1,0.09-0.2,0.15-0.29c0.3-0.52,0.7-0.78,1.17-0.78l0.29,0.01
							v1.4c-0.06,0-0.12-0.01-0.18-0.01s-0.13,0-0.21,0c-0.77,0-1.16,0.42-1.16,1.26v2.71h-0.64H309.57z"/>
						<path class="st0" d="M315.38,78.61c-0.11,0.01-0.23,0.02-0.36,0.02c-0.13,0-0.28,0.01-0.44,0.01c-0.45,0-0.77-0.09-0.97-0.26
							s-0.3-0.46-0.3-0.86v-3.2h-0.68v-0.97h0.68v-1.41h1.29v1.41h0.78v0.97h-0.78v2.97c0,0.12,0.03,0.2,0.1,0.24
							s0.21,0.06,0.42,0.06h0.26L315.38,78.61L315.38,78.61z"/>
						<path class="st0" d="M316.23,71.46h1.3v1.28h-1.3V71.46z M316.24,78.58v-5.23h0.64h0.65v5.23h-0.64H316.24z"/>
						<path class="st0" d="M320.23,74.32v4.26h-0.64h-0.64v-4.26h-0.72v-0.97h0.72v-0.44c0-1,0.5-1.5,1.5-1.5
							c0.12,0,0.22,0,0.32,0.01c0.1,0,0.19,0.01,0.28,0.03v1.1h-0.4c-0.17,0-0.28,0.04-0.34,0.11c-0.06,0.08-0.09,0.23-0.09,0.46
							v0.23h0.83v0.97H320.23z"/>
						<path class="st0" d="M321.82,71.46h1.3v1.28h-1.3V71.46z M321.84,78.58v-5.23h0.64h0.65v5.23h-0.64H321.84z"/>
						<path class="st0" d="M328.54,76.64c-0.06,0.65-0.28,1.15-0.68,1.52c-0.38,0.37-0.88,0.55-1.5,0.55c-0.73,0-1.3-0.23-1.7-0.71
							c-0.4-0.46-0.6-1.13-0.6-2.02c0-0.85,0.21-1.53,0.62-2.03c0.42-0.5,0.98-0.75,1.68-0.75c0.62,0,1.14,0.19,1.54,0.56
							c0.41,0.38,0.62,0.87,0.64,1.47h-1.3c-0.01-0.26-0.1-0.47-0.26-0.63c-0.16-0.16-0.36-0.24-0.62-0.24
							c-0.32,0-0.57,0.14-0.74,0.41c-0.17,0.27-0.25,0.68-0.25,1.22c0,0.53,0.08,0.92,0.25,1.19c0.17,0.27,0.41,0.4,0.74,0.4
							c0.24,0,0.44-0.09,0.6-0.26s0.25-0.4,0.28-0.69L328.54,76.64L328.54,76.64z"/>
						<path class="st0" d="M330.6,78.72c-0.45,0-0.81-0.14-1.09-0.41c-0.27-0.28-0.41-0.65-0.41-1.1c0-0.97,0.48-1.54,1.45-1.69
							l0.85-0.13c0.22-0.03,0.4-0.08,0.54-0.16c0.06-0.03,0.11-0.09,0.15-0.17s0.05-0.17,0.04-0.25c-0.01-0.16-0.08-0.27-0.21-0.35
							c-0.15-0.1-0.36-0.15-0.64-0.15c-0.25,0-0.44,0.06-0.58,0.19c-0.13,0.13-0.2,0.31-0.21,0.55h-1.23
							c0.05-1.23,0.78-1.84,2.17-1.84c0.6,0,1.08,0.14,1.43,0.41c0.35,0.27,0.52,0.65,0.52,1.12v2.92c0,0.23,0.02,0.4,0.06,0.5
							c0.03,0.09,0.1,0.16,0.21,0.21v0.01v0.19h-0.7h-0.69c-0.06-0.2-0.1-0.41-0.12-0.62v-0.01
							C331.76,78.46,331.24,78.72,330.6,78.72z M332.14,76.65v-0.6c-0.16,0.09-0.35,0.16-0.6,0.21l-0.47,0.09
							c-0.46,0.09-0.68,0.33-0.68,0.71c0,0.21,0.05,0.38,0.16,0.5s0.25,0.17,0.44,0.17c0.41,0,0.73-0.16,0.98-0.47
							c0.04-0.06,0.08-0.15,0.12-0.27C332.12,76.87,332.14,76.75,332.14,76.65z"/>
						<path class="st0" d="M336.76,78.61c-0.11,0.01-0.23,0.02-0.36,0.02c-0.13,0-0.28,0.01-0.44,0.01c-0.45,0-0.77-0.09-0.97-0.26
							s-0.3-0.46-0.3-0.86v-3.2h-0.68v-0.97h0.68v-1.41h1.29v1.41h0.78v0.97h-0.78v2.97c0,0.12,0.03,0.2,0.1,0.24
							s0.21,0.06,0.42,0.06h0.26L336.76,78.61L336.76,78.61z"/>
						<path class="st0" d="M337.61,71.46h1.3v1.28h-1.3V71.46z M337.62,78.58v-5.23h0.64h0.65v5.23h-0.64H337.62z"/>
						<path class="st0" d="M342.32,78.72c-0.39,0-0.73-0.06-1.03-0.19c-0.3-0.12-0.56-0.31-0.79-0.55
							c-0.45-0.49-0.67-1.16-0.67-1.99c0-0.85,0.22-1.52,0.67-2.03c0.46-0.5,1.06-0.75,1.82-0.75c0.77,0,1.38,0.25,1.82,0.75
							c0.45,0.5,0.68,1.17,0.68,2.03c0,0.84-0.23,1.5-0.68,1.99C343.7,78.47,343.09,78.72,342.32,78.72z M342.32,77.56
							c0.39,0,0.68-0.13,0.88-0.4c0.2-0.27,0.29-0.66,0.29-1.18c0-0.53-0.1-0.93-0.29-1.21c-0.2-0.27-0.49-0.41-0.88-0.41
							s-0.68,0.14-0.87,0.41c-0.19,0.27-0.29,0.68-0.29,1.21c0,0.52,0.1,0.91,0.29,1.18C341.64,77.43,341.93,77.56,342.32,77.56z"/>
						<path class="st0" d="M345.71,78.58v-5.23h0.6h0.62v0.78c0.03-0.05,0.05-0.09,0.08-0.14c0.03-0.04,0.06-0.09,0.09-0.13
							c0.31-0.43,0.77-0.65,1.38-0.65c0.51,0,0.91,0.16,1.2,0.49c0.29,0.32,0.44,0.78,0.44,1.36v3.52h-0.64h-0.64v-3.27
							c0-0.33-0.06-0.57-0.19-0.72s-0.33-0.23-0.6-0.23c-0.34,0-0.61,0.11-0.79,0.32c-0.18,0.21-0.27,0.53-0.27,0.94v2.96h-0.64
							C346.35,78.58,345.71,78.58,345.71,78.58z"/>
					</g>
				</g>
			</g>
			<g>
				<path class="st0" d="M230.48,79.28c-0.94,0-1.68-0.24-2.21-0.73c-0.78-0.71-0.78-1.63-0.78-1.73c0-0.81,0.29-1.4,0.67-1.81
					c-0.32-0.38-0.46-0.93-0.42-1.64c0.05-0.92,0.49-1.43,0.85-1.7c1.04-0.77,2.58-0.4,2.76-0.35l-0.32,1.26l0.16-0.63l-0.16,0.63
					c-0.29-0.07-1.21-0.2-1.67,0.14c-0.12,0.09-0.29,0.27-0.32,0.73c-0.03,0.44,0.05,0.68,0.14,0.75s0.25,0.05,0.25,0.06l0.28,1.27
					c-0.15,0.04-0.93,0.28-0.93,1.31c0,0.02,0.01,0.46,0.37,0.77c0.38,0.33,1.05,0.45,1.95,0.34l0.16,1.29
					C230.99,79.26,230.73,79.28,230.48,79.28z"/>
				<rect x="228.91" y="74.24" class="st0" width="5.94" height="1.3"/>
				<path class="st0" d="M234.43,78.94c-0.8,0-1.42-0.21-1.82-0.62c-0.52-0.53-0.47-1.18-0.46-1.25v-4.96h1.3v5.03
					c0,0.06,0,0.18,0.1,0.28c0.09,0.09,0.39,0.28,1.24,0.2l0.12,1.29C234.74,78.94,234.58,78.94,234.43,78.94z"/>
			</g>
		</g>
	</g>
</g>
</svg>
