<?xml version="1.0" encoding="utf-8"?>
<!-- Generator: Adobe Illustrator 28.0.0, SVG Export Plug-In . SVG Version: 6.00 Build 0)  -->
<svg version="1.1" id="Layer_1" xmlns="http://www.w3.org/2000/svg" xmlns:xlink="http://www.w3.org/1999/xlink" x="0px" y="0px"
	 viewBox="0 0 1328.17 250" style="enable-background:new 0 0 1328.17 250;" xml:space="preserve">
<style type="text/css">
	.st0{fill:#F6F6F6;}
	.st1{fill:#B28B0E;}
</style>
<g>
	<path class="st0" d="M128.05,97.31c0,1.58-0.46,2.8-1.37,3.67c-0.91,0.87-2.17,1.3-3.75,1.3H88.08c-6.5,0-9.75-3.39-9.75-10.19
		v-0.43c0-6.87,3.29-10.37,9.87-10.49l4.12-0.06h9.24v-9.16l-13.37-0.06c-5.37,0-9.97,1.92-13.8,5.76
		c-3.87,3.88-5.81,8.63-5.81,14.25c0,3.81,0.98,7.26,2.94,10.37H48.66v-50.2l-0.13-2.24c-4.87-0.12-8.56-0.12-11.05,0v52.45H27.36
		l-2.44-15.22c-0.33-2.06-0.77-4.76-1.31-8.1c-0.54-3.34-0.91-5.63-1.12-6.88H11.24l4.75,30.2H0v8.92h123.86
		c10.37,0,15.55-4.99,15.55-14.98V49.88h-11.37L128.05,97.31L128.05,97.31z"/>
	<rect x="149.27" y="49.7" class="st0" width="11.18" height="61.49"/>
	<g>
		<path class="st0" d="M199.09,63.65c4.04,0,6.04-1.96,6-5.88s-2.08-5.86-6.12-5.82c-3.79,0.04-5.71,2-5.75,5.88
			C193.22,61.71,195.18,63.65,199.09,63.65"/>
		<path class="st0" d="M214.58,63.65c4.04,0,6.04-1.96,6-5.88s-2.08-5.86-6.12-5.82c-3.79,0.04-5.71,2-5.75,5.88
			C208.71,61.71,210.67,63.65,214.58,63.65"/>
		<path class="st0" d="M276.92,63.65c4.04,0,6.04-1.96,6-5.88s-2.08-5.86-6.12-5.82c-3.79,0.04-5.7,2-5.75,5.88
			C271.05,61.71,273.01,63.65,276.92,63.65"/>
		<path class="st0" d="M351.31,63.65c4.04,0,6.04-1.96,6-5.88s-2.08-5.86-6.12-5.82c-3.79,0.04-5.71,2-5.75,5.88
			C345.44,61.71,347.4,63.65,351.31,63.65"/>
		<path class="st0" d="M358.31,81.11l0.06,1.15l-0.06,20.02h-9.93c-6.5,0-9.75-3.38-9.75-10.13v-0.49c0-6.87,3.29-10.37,9.87-10.49
			l4.12-0.06h5.68L358.31,81.11z M254.12,102.28c0.08-5.78,0.27-9.28,0.56-10.49c1.25-4.77,4.16-7.8,8.75-9.1
			c1.16-0.32,2.73-0.53,4.68-0.61c2.41-0.08,5.33-0.12,8.75-0.12s6.33,0.04,8.75,0.12c1.95,0.08,3.52,0.28,4.68,0.61
			c4.62,1.29,7.52,4.33,8.68,9.1c0.29,1.21,0.47,4.71,0.56,10.49H254.12L254.12,102.28z M203.9,102.28c-6.49,0-9.74-3.4-9.74-10.19
			v-0.48c0-6.87,3.29-10.37,9.87-10.49l4.12-0.06h5.68l0.06,21.23h-10L203.9,102.28z M334.7,77.65c-3.87,3.88-5.81,8.63-5.81,14.25
			c0,3.81,0.98,7.26,2.94,10.38h-22.98v-1.82c0-7.16-0.59-12.33-1.75-15.53c-2.67-7.15-7.87-11.3-15.62-12.43
			c-1.79-0.33-5.1-0.49-9.93-0.49h-9.37c-3.95,0-7.27,0.16-9.93,0.49c-3.33,0.48-6.16,1.51-8.49,3.09V49.63h-11.31v52.64h-18.8
			V71.94l-19.61-0.12c-5.33-0.04-9.93,1.88-13.81,5.76c-3.91,3.96-5.85,8.71-5.81,14.25c0.04,12.9,6.58,19.34,19.61,19.34h164.09
			V71.99l-19.61-0.06c-5.41,0-10.02,1.9-13.8,5.7"/>
		<path class="st0" d="M478.79,104.1c-5,0-7.5-3.9-7.5-11.7s2.5-11.7,7.5-11.7s7.49,3.9,7.49,11.7S483.78,104.1,478.79,104.1
			 M516.77,97.31c0,1.58-0.46,2.8-1.37,3.67c-0.91,0.87-2.17,1.3-3.75,1.3h-3.81c-2.58,0-4.64-0.06-6.18-0.18
			c-2.21-0.4-3.58-1.62-4.12-3.64c0.58-2.06,0.88-4.08,0.88-6.06c0-5.58-1.92-10.35-5.75-14.31s-8.45-5.94-13.87-5.94
			s-10.04,1.98-13.87,5.94s-5.75,8.73-5.75,14.31c0,2.06,0.27,4,0.81,5.82c-0.5,2.1-1.9,3.4-4.19,3.88
			c-0.12,0.12-2.19,0.18-6.18,0.18h-8.81v-1.88c0-7.28-0.56-12.45-1.69-15.52c-2.66-7.16-7.89-11.3-15.68-12.43
			c-2.34-0.28-5.65-0.43-9.94-0.43h-6.75v9.83c0.21,0.04,0.9,0.06,2.06,0.06c1.04,0,2.22,0,3.53,0.03c1.31,0.02,2.37,0.04,3.19,0.06
			c0.81,0.02,1.49,0.03,2.03,0.03c1.96,0.08,3.52,0.28,4.68,0.61c4.58,1.21,7.5,4.27,8.75,9.16c0.33,1.21,0.46,4.71,0.37,10.49
			h-44.97V49.88h-11.31v61.31h79.2c3.87,0,7.04-1.29,9.49-3.88l1-0.66l-0.37-0.49c3.87,4.33,8.66,6.49,14.37,6.49s10.1-2,13.93-6
			l0.94,0.66c2.46,2.59,5.62,3.88,9.49,3.88h9.43c10.37,0,15.55-4.99,15.55-14.98V49.88h-11.37V97.3L516.77,97.31z"/>
		<path class="st0" d="M560.9,57.83c0,3.88,1.96,5.82,5.87,5.82s6.03-1.96,6-5.88c-0.04-3.92-2.09-5.86-6.12-5.82
			c-3.79,0.04-5.7,2-5.74,5.88"/>
		<path class="st0" d="M576.4,57.83c0,3.88,1.96,5.82,5.87,5.82s6.03-1.96,6-5.88c-0.04-3.92-2.09-5.86-6.12-5.82
			c-3.79,0.04-5.7,2-5.74,5.88"/>
		<path class="st0" d="M615.18,119.02c-3.79,0.04-5.71,2-5.75,5.88c0,3.88,1.96,5.82,5.87,5.82s6.03-1.96,6-5.88
			C621.26,120.92,619.21,118.98,615.18,119.02"/>
		<path class="st0" d="M630.68,119.02c-3.79,0.04-5.71,2-5.75,5.88c0,3.88,1.95,5.82,5.87,5.82s6.03-1.96,6-5.88
			C636.76,120.92,634.71,118.98,630.68,119.02"/>
		<path class="st0" d="M784.34,104.1c-5,0-7.49-3.9-7.49-11.7s2.5-11.7,7.49-11.7s7.49,3.9,7.49,11.7S789.33,104.1,784.34,104.1
			 M571.59,102.28c-6.49,0-9.74-3.39-9.74-10.19V91.6c0-6.87,3.29-10.37,9.87-10.49l4.12-0.06h5.68l0.07,21.22L571.59,102.28
			L571.59,102.28z M818.13,111.2c10.37,0,15.55-4.99,15.55-14.98V49.88h-11.37v47.43c0,1.58-0.46,2.8-1.37,3.67
			c-0.91,0.87-2.17,1.3-3.75,1.3h-3.81c-2.58,0-4.64-0.06-6.18-0.18c-2.21-0.4-3.58-1.62-4.12-3.64c0.58-2.06,0.87-4.08,0.87-6.06
			c0-5.58-1.92-10.35-5.75-14.32c-3.83-3.96-8.45-5.94-13.87-5.94s-10.03,1.98-13.87,5.94c-3.83,3.96-5.75,8.74-5.75,14.32
			c0,2.06,0.27,4,0.81,5.82c-0.5,2.1-1.89,3.4-4.19,3.88c-0.12,0.12-2.19,0.18-6.18,0.18h-8.87v-52.4h-11.31v52.4h-20.36v-7.34
			c0-3.39-0.52-6.57-1.56-9.52c-2.75-7.96-8.37-12.33-16.87-13.1c-0.17,0-0.6-0.03-1.31-0.09s-1.29-0.11-1.75-0.15v-0.06h-31.23
			c0-3.68,0.1-6.22,0.31-7.64c0.33-1.94,1.52-3.11,3.56-3.52c1.17-0.2,2.27-0.3,3.31-0.3h23.99V49.83L691,49.71h-23.24
			c-1.58,0-3.09,0.16-4.5,0.48c-5.41,1.37-8.77,4.85-10.06,10.43c-0.29,1.42-0.44,2.93-0.44,4.55l-0.06,17.41
			c4.58,0,9.18,0.02,13.8,0.06c3.79,0.04,8.33,0.06,13.62,0.06h0.69l5.06,0.12h0.63l0.06,0.06h2.75l0.06,0.06h1.37
			c1.96,0.08,3.46,0.24,4.5,0.48c5.16,1.21,8.37,4.47,9.62,9.76c0.34,1.21,0.5,2.61,0.5,4.19v2.85l-0.13,2.06h-76.02V71.96H617.9
			v30.32h-26.61V71.96l-19.61-0.12c-5.33-0.04-9.94,1.88-13.81,5.76c-3.92,3.96-5.85,8.71-5.81,14.25
			c0.04,12.9,6.58,19.34,19.61,19.34h188.14c3.87,0,7.04-1.29,9.49-3.88l1-0.66l-0.37-0.49c3.87,4.33,8.66,6.49,14.37,6.49
			s10.1-2,13.93-6l0.94,0.66c2.46,2.59,5.62,3.88,9.49,3.88h9.43L818.13,111.2z"/>
	</g>
	<rect x="843.53" y="49.7" class="st0" width="11.18" height="61.49"/>
	<g>
		<path class="st0" d="M887.48,57.83c0,3.88,1.96,5.82,5.87,5.82s6.04-1.96,6-5.88s-2.09-5.86-6.12-5.82c-3.79,0.04-5.7,2-5.74,5.88
			"/>
		<path class="st0" d="M902.97,57.83c0,3.88,1.96,5.82,5.87,5.82s6.04-1.96,6-5.88s-2.09-5.86-6.12-5.82
			c-3.79,0.04-5.71,2-5.74,5.88"/>
		<path class="st0" d="M936.51,64.56h12.43V60.8l-5.12-0.06c-1.09,0-1.69-0.53-1.81-1.58l0.06-1.21c0.21-1.21,0.91-1.88,2.12-2
			c0.17-0.08,0.96-0.06,2.37,0.06l0.75,0.06v-3.03c-1.54-0.64-3.04-0.79-4.5-0.42c-3.92,0.89-5.39,3.25-4.43,7.1l0.18,0.97h-2.06
			v3.88L936.51,64.56z"/>
		<path class="st0" d="M967.68,124.9c0,3.88,1.96,5.82,5.87,5.82s6.04-1.96,6-5.88c-0.04-3.92-2.09-5.86-6.12-5.82
			c-3.79,0.04-5.7,2-5.74,5.88"/>
		<path class="st0" d="M983.17,124.9c0,3.88,1.96,5.82,5.87,5.82s6.04-1.96,6-5.88c-0.04-3.92-2.09-5.86-6.12-5.82
			c-3.79,0.04-5.7,2-5.74,5.88"/>
		<path class="st0" d="M898.16,102.28c-6.5,0-9.75-3.39-9.75-10.19V91.6c0-6.87,3.29-10.37,9.87-10.49l4.12-0.06h5.68l0.06,21.22
			h-9.99L898.16,102.28z M1022.28,91.12c3.95,0,5.93,1.92,5.93,5.76c0,2.51-1.19,4.29-3.56,5.34h-4.74
			c-2.37-1.05-3.56-2.83-3.56-5.34C1016.35,93.04,1018.33,91.12,1022.28,91.12 M1028.46,83c2,0.08,3.58,0.28,4.74,0.61
			c4.54,1.25,7.44,4.3,8.68,9.16c0.29,1.21,0.48,4.37,0.56,9.46h-6.56c0.71-1.74,1.06-3.52,1.06-5.34c0-7.8-3.96-12.45-11.86-13.95
			C1026.82,82.94,1027.95,82.96,1028.46,83 M959.55,111.2h108.25c10.37,0,15.55-4.99,15.55-14.98V49.88h-11.37v47.43
			c0,1.58-0.46,2.8-1.37,3.67c-0.91,0.87-2.17,1.3-3.75,1.3h-6.31l-8.87,0.06v-1.94c0-7.28-0.56-12.45-1.69-15.53
			c-2.66-7.2-7.89-11.36-15.68-12.49c-2.17-0.28-5.48-0.43-9.93-0.43h-6.75v10.86l2.12,0.06c-8.12,1.34-12.18,6.01-12.18,14.01
			c0,1.86,0.35,3.66,1.06,5.4h-21.18V71.96h-11.31v30.32h-27.98V71.96h-11.31v30.32h-18.98V71.96l-19.61-0.12
			c-5.33-0.04-9.93,1.88-13.8,5.76c-3.92,3.96-5.85,8.71-5.81,14.25c0.04,12.9,6.57,19.34,19.61,19.34h61.28L959.55,111.2z"/>
	</g>
	<rect x="1093.21" y="49.7" class="st0" width="11.18" height="61.49"/>
	<g>
		<path class="st1" d="M1315,142.14c0.2,0.11,0.05,0.4-0.17,0.33c-2.77-0.87-5.48-1.49-8.13-1.91c-8.16-1.3-15.75-0.6-22.82,1.41
			c-3.41,0.98-6.7,2.26-9.88,3.78c-2.12,1.02-4.2,2.13-6.22,3.33c-1.52,0.91-3.01,1.86-4.46,2.84c-3.49,2.36-6.82,4.91-9.98,7.54
			c3.57,3.1,6.92,6.18,9.98,8.95c1.57,1.43,3.06,2.77,4.46,4c2.36,2.07,4.45,3.8,6.22,5.02c0.77,0.53,1.49,0.98,2.13,1.3
			c1.15-1.57,3.15-2.48,5.34-2c0.91,0.2,1.74,0.66,2.41,1.3c0.72,0.67,1.24,1.55,1.46,2.53c0.39,1.69-0.36,3.82-1.01,4.46
			c-0.15,0.15-0.3,0.28-0.46,0.41c-2.81,2.46-6.09,2.21-9.88,0.21c-1.94-1.02-4.01-2.5-6.22-4.31c-1.43-1.17-2.92-2.47-4.46-3.87
			c-3.76-3.41-7.87-7.41-12.36-11.52c-0.82-0.75-1.65-1.51-2.5-2.26c-0.85,0.76-1.69,1.52-2.51,2.28
			c-9.91,9.06-17.97,17.64-24.45,20.36c-3.39,1.43-6.35,1.26-8.91-1.3c-0.96-0.95-1.39-2.77-1.01-4.46
			c0.43-1.89,1.98-3.41,3.88-3.83c2.19-0.47,4.18,0.43,5.33,2c0.23-0.12,0.46-0.25,0.71-0.39c4.81-2.78,12.73-10.72,22.09-18.88
			c-6.63-5.52-13.98-10.73-22.09-14.38c-5.79-2.61-11.96-4.42-18.56-5c-6.03-0.53-12.41-0.02-19.15,1.88
			c-0.56,0.16-1.13,0.32-1.7,0.5c-0.21,0.07-0.36-0.22-0.16-0.33c0.49-0.28,1.12-0.63,1.86-1c3.68-1.84,10.38-4.47,19.15-4.84
			c5.47-0.24,11.72,0.39,18.56,2.64c0.8,0.26,1.6,0.54,2.42,0.84c6.62,2.5,13.3,6.78,19.64,11.63c3.68-22.26,1.89-42.93,1.02-53.08
			c0-0.06-0.07-0.09-0.12-0.05c-7.88,4.96-5.67,18.82-4.02,22.78c0.03,0.08-0.09,0.13-0.14,0.07c-9.83-11.6-5.02-24.42-3.01-27.66
			c0.05-0.08-0.06-0.15-0.12-0.09c-8.79,7.14-8.4,16.6-7.93,21.9c0,0.09-0.11,0.11-0.15,0.04c-3.57-7.02-4.66-18.89,6.29-28.52
			c0.06-0.05,0-0.16-0.07-0.14c-9.79,2.36-13.75,11.62-13.82,18.54c0,0.11-0.01,0.23-0.01,0.35c0,0.09-0.13,0.1-0.15,0.01
			c-1.4-5.17-1.1-9.37,0.17-12.74c2.83-7.6,10.51-10.94,14.24-11.4c0.09,0,0.07-0.14-0.02-0.16c-7.28-0.67-11.7,1.59-14.23,3.82
			c-1.56,1.37-2.41,2.73-2.74,3.36c-0.04,0.08-0.16,0.03-0.15-0.06c0.28-2.79,1.34-5.1,2.89-6.93c4.32-5.14,12.43-6.58,17.68-4.38
			c0.08,0.03,0.14-0.05,0.09-0.12c-3.4-4.88-10.18-5.38-13.77-3.67c-0.08,0.03-0.14-0.06-0.09-0.12c5.38-6.16,14.23-6.3,18.94,0.84
			c0.03,0.05,0.1,0.05,0.13,0c0.51-0.91,1.01-1.92,1.47-2.99c1.08-2.51,1.98-5.34,2.45-8.14c0-0.09,0.12-0.09,0.14,0
			c0.46,2.79,1.36,5.61,2.43,8.11c0.47,1.08,0.97,2.1,1.48,3.03c0.03,0.05,0.1,0.05,0.13,0c2.7-4.09,6.76-5.78,10.74-5.33
			c1.53,0.18,3.03,0.67,4.46,1.46c1.35,0.74,2.62,1.75,3.74,3.03c0.05,0.06-0.01,0.16-0.09,0.12c-1.01-0.48-2.28-0.78-3.65-0.86
			c-1.43-0.09-2.97,0.08-4.46,0.53c-2.17,0.66-4.21,1.93-5.66,4c-0.04,0.07,0.02,0.15,0.09,0.12c1.65-0.69,3.57-1.02,5.57-1
			c1.47,0.02,2.98,0.23,4.46,0.64c2.27,0.63,4.44,1.72,6.22,3.27c2.31,2.02,3.97,4.81,4.32,8.4c0,0.09-0.11,0.13-0.15,0.06
			c-0.43-0.81-1.67-2.77-4.18-4.46c-1.55-1.05-3.59-1.98-6.22-2.46c-1.34-0.25-2.81-0.39-4.46-0.36c-0.68,0-1.38,0.04-2.12,0.11
			c-0.09,0.01-0.11,0.15-0.02,0.16c0.62,0.08,1.35,0.24,2.14,0.47c1.36,0.41,2.91,1.06,4.46,1.99c2.28,1.36,4.56,3.34,6.22,6.01
			c2.33,3.75,3.44,8.87,1.59,15.66c-0.02,0.09-0.15,0.08-0.15-0.01c0.02-2.37-0.44-5.06-1.44-7.65c-1.21-3.16-3.23-6.19-6.22-8.38
			c-1.3-0.96-2.78-1.76-4.46-2.35c-0.55-0.19-1.12-0.36-1.72-0.51c-0.07-0.02-0.12,0.09-0.06,0.14c0.63,0.55,1.22,1.12,1.78,1.69
			c1.92,1.98,3.38,4.03,4.46,6.1c3.98,7.65,2.7,15.52,0.05,20.72c0,0.02-0.05,0.02-0.05,0.02c-0.05,0.01-0.1,0-0.09-0.06
			c0.03-0.37,0.07-0.76,0.09-1.18c0.11-1.55,0.16-3.37,0-5.32c-0.31-3.7-1.42-7.9-4.46-11.77c-0.98-1.25-2.14-2.47-3.56-3.63
			c-0.07-0.05-0.17,0.02-0.12,0.09c2.01,3.24,6.82,16.05-3.01,27.66c-0.06,0.07-0.17,0.01-0.14-0.07
			c1.66-3.96,3.87-17.82-4.02-22.78c-0.05-0.03-0.11,0-0.12,0.05c-0.86,10.15-2.65,30.81,1.02,53.08c3.24-2.48,6.57-4.81,9.95-6.83
			c1.48-0.89,2.97-1.72,4.46-2.47c1.74-0.88,3.49-1.67,5.23-2.33c0.33-0.12,0.66-0.23,0.99-0.35c3.44-1.22,6.74-2.05,9.88-2.55
			c9.32-1.48,17.18-0.13,22.82,1.67c3.91,1.24,6.76,2.7,8.3,3.59 M1328.17,0h-159.43v250h159.43L1328.17,0L1328.17,0z"/>
		<path class="st0" d="M26.35,169.56H11.84v15.09h14.51c3.97,0,6.73-0.54,8.27-1.62c1.55-1.08,2.32-3.08,2.32-6.01
			c0-2.49-0.42-4.17-1.26-5.06C34.22,170.36,31.11,169.56,26.35,169.56 M11.84,218.46H0v-59.6h29.1c6.75,0,11.72,1.41,14.94,4.23
			c3.21,2.82,4.82,7.41,4.82,13.76c0,9.23-3.76,14.78-11.29,16.66l13.88,24.95H38.2l-12.47-23.29H11.84
			C11.84,195.17,11.84,218.46,11.84,218.46z"/>
		<path class="st0" d="M76,209.92c2.66,0,4.97-0.85,6.9-2.56c2.51-2.32,3.76-5.86,3.76-10.61c0-4.31-1.02-7.65-3.06-10.03
			c-1.88-2.15-4.34-3.23-7.37-3.23s-5.7,1.16-7.69,3.48s-2.98,5.58-2.98,9.78c0,3.98,0.98,7.17,2.94,9.58s4.46,3.6,7.49,3.6
			 M76.15,219.38c-7.68,0-13.46-2.57-17.33-7.71c-3.09-4.09-4.63-9.12-4.63-15.08s1.7-11.19,5.1-15.33
			c3.97-4.92,9.59-7.38,16.86-7.38c6.01,0,11.01,1.8,14.98,5.39c4.6,4.09,6.9,9.86,6.9,17.33c0,6.57-1.88,11.96-5.65,16.16
			C88.41,217.18,82.99,219.39,76.15,219.38"/>
		<path class="st0" d="M121.64,208.93h8.86v-34.15h10.9v42.52c0,11.22-5.15,16.83-15.45,16.83h-21.49v-8.87h19.45
			c4.39,0,6.59-2.27,6.59-6.8h-9.65c-5.81,0-10.07-1.21-12.78-3.65c-2.88-2.65-4.31-6.99-4.31-13.02v-27.02h10.67v26.03
			c0,2.87,0.34,4.81,1.02,5.8C116.44,208.15,118.51,208.92,121.64,208.93"/>
		<path class="st0" d="M165.79,209.76h13.65v-9.12h-12.86c-4.34,0-6.54,1.52-6.59,4.56c-0.05,1.93,0.52,3.23,1.73,3.89
			C162.51,209.54,163.86,209.75,165.79,209.76 M169.49,183.81h-18.27v-9.03h22.35c11.35,0,17.02,5.44,17.02,16.33v27.35h-29.26
			c-3.97,0-7.11-1.16-9.41-3.48c-2.3-2.32-3.45-5.47-3.45-9.45c0-5.3,1.64-9.03,4.94-11.19c2.51-1.6,6.38-2.4,11.61-2.4h14.43
			c0-3.04-0.71-5.15-2.11-6.34c-1.41-1.19-4.03-1.78-7.84-1.78"/>
	</g>
	<rect x="199.29" y="158.87" class="st0" width="11.3" height="59.6"/>
	<g>
		<path class="st0" d="M288.77,158.86v10.2h-19.45c-4.5,0-7.84,1.46-10.04,4.39c-2.56,3.42-3.84,9.17-3.84,17.24
			c0,7.35,1.31,12.27,3.92,14.75c1.88,1.77,5.2,2.65,9.96,2.65h19.45v10.36h-19.92c-17.57,0-26.35-9.56-26.35-28.68
			c0-9.84,1.88-17.27,5.65-22.29c4.34-5.75,11.34-8.62,21.02-8.62L288.77,158.86L288.77,158.86z"/>
		<path class="st0" d="M314.57,209.92c2.66,0,4.97-0.85,6.9-2.56c2.51-2.32,3.76-5.86,3.76-10.61c0-4.31-1.02-7.65-3.06-10.03
			c-1.88-2.15-4.34-3.23-7.37-3.23s-5.7,1.16-7.69,3.48s-2.98,5.58-2.98,9.78c0,3.98,0.98,7.17,2.94,9.58
			c1.96,2.4,4.46,3.6,7.49,3.6 M314.72,219.38c-7.68,0-13.46-2.57-17.33-7.71c-3.09-4.09-4.63-9.12-4.63-15.08s1.7-11.19,5.1-15.33
			c3.97-4.92,9.59-7.38,16.86-7.38c6.01,0,11.01,1.8,14.98,5.39c4.6,4.09,6.9,9.86,6.9,17.33c0,6.57-1.88,11.96-5.65,16.16
			C326.98,217.18,321.56,219.39,314.72,219.38"/>
		<path class="st0" d="M353.47,218.46h-10.82v-43.68h41.8c5.81,0,10.04,1.16,12.71,3.48c2.98,2.49,4.47,6.66,4.47,12.51v27.69h-10.9
			v-26.19c0-2.87-0.39-4.86-1.18-5.97c-1-1.38-2.93-2.07-5.81-2.07c-0.83,0-1.72,0.06-2.66,0.17h-1.96c-0.78,0-1.31,0.03-1.57,0.09
			v33.98h-11.22v-33.98h-12.86V218.46L353.47,218.46z"/>
		<path class="st0" d="M421.47,218.46h-10.82v-43.68h41.8c5.81,0,10.04,1.16,12.71,3.48c2.98,2.49,4.47,6.66,4.47,12.51v27.69h-10.9
			v-26.19c0-2.87-0.39-4.86-1.18-5.97c-1-1.38-2.93-2.07-5.81-2.07c-0.83,0-1.72,0.06-2.66,0.17h-1.96c-0.78,0-1.31,0.03-1.57,0.09
			v33.98h-11.22v-33.98h-12.86V218.46L421.47,218.46z"/>
	</g>
	<path class="st0" d="M478.56,174.78h11.3v43.68h-11.3V174.78z M478.56,158.87h11.3v10.86h-11.3V158.87z"/>
	<g>
		<path class="st0" d="M526.01,218.46h-28v-9.03h22.98c3.87,0,5.81-1.46,5.81-4.39s-1.94-4.22-5.81-4.22h-9.49
			c-4.92,0-8.31-0.61-10.2-1.83c-2.72-1.71-4.08-5.13-4.08-10.27c0-9.29,4.86-13.93,14.59-13.93h23.37v9.03h-19.29
			c-2.72,0-4.58,0.25-5.57,0.74c-1.26,0.61-1.88,1.8-1.88,3.56c0,2.43,1.73,3.65,5.18,3.65h9.96c9.04,0,13.65,4.09,13.8,12.26
			c0.05,4.14-0.97,7.58-3.06,10.32S529.46,218.45,526.01,218.46"/>
		<path class="st0" d="M571.81,218.46h-28v-9.03h22.98c3.87,0,5.81-1.46,5.81-4.39s-1.93-4.22-5.81-4.22h-9.49
			c-4.92,0-8.31-0.61-10.2-1.83c-2.72-1.71-4.08-5.13-4.08-10.27c0-9.29,4.86-13.93,14.59-13.93h23.37v9.03h-19.29
			c-2.72,0-4.57,0.25-5.57,0.74c-1.26,0.61-1.88,1.8-1.88,3.56c0,2.43,1.73,3.65,5.18,3.65h9.96c9.04,0,13.65,4.09,13.8,12.26
			c0.05,4.14-0.97,7.58-3.06,10.32S575.26,218.45,571.81,218.46"/>
	</g>
	<path class="st0" d="M590.24,174.78h11.3v43.68h-11.3V174.78z M590.24,158.87h11.3v10.86h-11.3V158.87z"/>
	<g>
		<path class="st0" d="M629.3,209.92c2.66,0,4.97-0.85,6.9-2.56c2.51-2.32,3.76-5.86,3.76-10.61c0-4.31-1.02-7.65-3.06-10.03
			c-1.88-2.15-4.34-3.23-7.37-3.23s-5.7,1.16-7.69,3.48s-2.98,5.58-2.98,9.78c0,3.98,0.98,7.17,2.94,9.58s4.46,3.6,7.49,3.6
			 M629.45,219.38c-7.68,0-13.46-2.57-17.33-7.71c-3.09-4.09-4.63-9.12-4.63-15.08s1.7-11.19,5.1-15.33
			c3.97-4.92,9.59-7.38,16.86-7.38c6.01,0,11.01,1.8,14.98,5.39c4.6,4.09,6.9,9.86,6.9,17.33c0,6.57-1.88,11.96-5.65,16.16
			C641.71,217.18,636.29,219.39,629.45,219.38"/>
		<path class="st0" d="M668.12,218.46H657.3v-43.68h20.47c6.17,0,10.6,1.21,13.29,3.65s4.04,6.55,4.04,12.35v27.69h-11.06v-26.19
			c0-3.2-0.41-5.3-1.22-6.3s-2.78-1.49-5.92-1.49h-8.78L668.12,218.46L668.12,218.46z"/>
		<path class="st0" d="M744.43,218.46h-11.37v-34.98h-7.76v-8.7h7.76v-2.49c0-5.08,0.47-8.37,1.41-9.86
			c1.46-2.38,4.78-3.57,9.96-3.57h10.43v8.62c-5.44,0-8.42,0.11-8.94,0.33c-0.99,0.44-1.49,2.29-1.49,5.56v1.41h10.43v8.7h-10.43
			V218.46L744.43,218.46z"/>
		<path class="st0" d="M778.46,209.92c2.66,0,4.97-0.85,6.9-2.56c2.51-2.32,3.76-5.86,3.76-10.61c0-4.31-1.02-7.65-3.06-10.03
			c-1.88-2.15-4.34-3.23-7.37-3.23s-5.7,1.16-7.69,3.48s-2.98,5.58-2.98,9.78c0,3.98,0.98,7.17,2.94,9.58s4.46,3.6,7.49,3.6
			 M778.61,219.38c-7.68,0-13.46-2.57-17.33-7.71c-3.09-4.09-4.63-9.12-4.63-15.08s1.7-11.19,5.1-15.33
			c3.97-4.92,9.59-7.38,16.86-7.38c6.01,0,11.01,1.8,14.98,5.39c4.6,4.09,6.9,9.86,6.9,17.33c0,6.57-1.88,11.96-5.65,16.16
			C790.87,217.18,785.45,219.39,778.61,219.38"/>
		<path class="st0" d="M817.29,218.46h-10.82v-43.68h18.35c5.02,0,8.24,1.05,9.65,3.15c1.2,1.88,1.81,6.02,1.81,12.43v2.65h-10.35
			v-3.48c0-3.2-0.36-5.07-1.06-5.59c-0.71-0.53-3.23-0.79-7.57-0.79v35.31L817.29,218.46z"/>
	</g>
	<path class="st0" d="M883.17,193.67h16.86l-8.55-22.79L883.17,193.67L883.17,193.67z M874.46,218.46h-12.55l23.68-59.6h12.55
		l24.08,59.6h-13.17l-5.18-14.26h-24.55L874.46,218.46L874.46,218.46z"/>
	<rect x="924.26" y="158.87" class="st0" width="11.3" height="59.6"/>
	<path class="st0" d="M984.38,195v-36.14h11.84v35.81c0,5.03,0.68,8.59,2.04,10.69c1.83,2.82,5.38,4.22,10.67,4.22
		c4.49,0,7.66-0.96,9.49-2.9c2.04-2.21,3.06-6.22,3.06-12.02v-35.81h11.77v36.14c0,8.29-1.41,14.14-4.24,17.57
		c-3.61,4.37-10.3,6.55-20.07,6.55s-16.13-2.1-19.84-6.3c-3.14-3.54-4.71-9.48-4.71-17.82"/>
	<rect x="1042.81" y="158.87" class="st0" width="11.3" height="59.6"/>
	<path class="st0" d="M1078.1,209.76h13.65v-9.12h-12.86c-4.34,0-6.54,1.52-6.59,4.56c-0.05,1.93,0.52,3.23,1.73,3.89
		c0.79,0.45,2.14,0.66,4.08,0.66 M1081.8,183.81h-18.27v-9.03h22.35c11.35,0,17.02,5.44,17.02,16.33v27.35h-29.26
		c-3.97,0-7.11-1.16-9.41-3.48c-2.3-2.32-3.45-5.47-3.45-9.45c0-5.3,1.64-9.03,4.94-11.19c2.51-1.6,6.38-2.4,11.61-2.4h14.43
		c0-3.04-0.71-5.15-2.11-6.34c-1.41-1.19-4.03-1.78-7.84-1.78"/>
	<rect x="945.16" y="185.06" class="st0" width="27.85" height="10.36"/>
</g>
</svg>
