<?xml version="1.0" encoding="utf-8"?>
<!-- Generator: Adobe Illustrator 28.1.0, SVG Export Plug-In . SVG Version: 6.00 Build 0)  -->
<svg version="1.1" id="Layer_1" xmlns="http://www.w3.org/2000/svg" xmlns:xlink="http://www.w3.org/1999/xlink" x="0px" y="0px"
	 viewBox="0 0 80 80" style="enable-background:new 0 0 80 80;" xml:space="preserve">
<style type="text/css">
	.st0{fill:#222F37;}
	.st1{fill:#F5F5F5;}
</style>
<path class="st0" d="M72.4,78.8H7.5c-3.5,0-6.3-2.8-6.3-6.3V7.6c0-3.5,2.8-6.3,6.3-6.3h64.9c3.5,0,6.3,2.8,6.3,6.3v64.9
	C78.7,76,75.9,78.8,72.4,78.8z"/>
<g>
	<g>
		<path class="st1" d="M23.8,59c2.5,2.5,5.4,4.4,8.7,5.7c3.2,1.4,6.8,2.1,10.7,2.1c2.5,0,5.1-0.4,7.5-1.1s4.8-1.8,7.1-3.1
			c1-0.6,3.4-2.2,5.9-4l-5.4-6.5c-0.9,0.6-1.8,1.1-2.5,1.6c-2,1.2-3.7,2.2-4.4,2.5c-2.5,1.1-5,1.7-7.5,1.7s-4.7-0.4-6.8-1.4
			s-4-2.3-5.6-3.9c-1.7-1.7-2.9-3.5-3.8-5.8c-0.9-2.2-1.3-4.6-1.3-7.2c0-2.5,0.4-4.9,1.3-7.1c0.9-2.2,2.2-4.1,3.8-5.8
			c0.8-0.8,1.7-1.5,2.5-2.2c0.2-0.1,0.4-0.3,0.6-0.4c1.7-1,3.5-1.7,5.4-2.2c-6.1,0.1-11.8,2.4-16.1,6.3c-5.9,5.3-8.3,13.6-5.8,21.1
			C19,52.6,20.8,56,23.8,59z"/>
		<g>
			<path class="st1" d="M63.9,21.5L61.7,24l-3.2,3.9c-3.2-3-7.8-6.1-11.9-7.1l0,0c-2-0.5-4.1-0.8-6.3-0.8C28.9,20,19.5,27.3,16,37.4
				c0.3-2.8,1-5.4,2-8c1.4-3.2,3.3-6.1,5.9-8.5s5.5-4.4,8.8-5.7c3.3-1.4,6.9-2,10.9-2c2.5,0,5,0.4,7.5,1.1c2.5,0.7,4.7,1.7,6.9,2.8
				c2,1.1,3.9,2.5,5.4,4C63.6,21.2,63.8,21.3,63.9,21.5z"/>
		</g>
	</g>
</g>
</svg>
